M48
;Layer_Color=9474304
;FILE_FORMAT=2:5
INCH,TZ
;TYPE=PLATED
T1F00S00C0.02800
T2F00S00C0.03543
T3F00S00C0.03701
T4F00S00C0.04173
T5F00S00C0.04331
T6F00S00C0.04370
T7F00S00C0.06299
T8F00S00C0.11811
T9F00S00C0.12598
T10F00S00C0.15748
%
T01
X236142Y20586
X276642Y32586
X325197Y29921
X337008
X348819
X360630
X366535Y41732
X354724
X342913
X331102
X337008Y53543
X348819
X360630
X325197
X331102Y18110
X342913
X354724
X366535
X360630Y6299
X348819
X337008
X325197
X372441Y29921
X384252
X378346Y41732
X384252Y53543
X372441
X378346Y65354
X372441Y124409
X378346Y136220
X372441Y148031
X378346Y159842
X372441Y171653
X360630
X348819
X337008
X325197
X313386
X301575
X307480Y183465
X319291
X331102
X342913
X354724
X366535
Y159842
X354724
X342913
X331102
X319291
X307480
X313386Y148031
X325197
X337008
X348819
X360630
X366535Y136220
X354724
X342913
X331102
X319291
X307480
X301575Y148031
X284000Y142000
X290000Y110500
Y103000
Y95500
Y88500
Y81000
X298500Y78000
X330500Y69000
X342913Y65354
X354724
X366535
X360630Y124409
X348819
X337008
X336500Y108500
X310000Y114000
X226000Y140000
X212500
X188500Y140500
X172500
X149000Y113000
X126500Y96000
X117000Y97000
X185000Y99000
X212000Y90000
X211500Y113500
T02
X226488Y6511
Y16511
Y26511
Y36511
T03
X288000Y6000
X298000
X308000
Y21500
X298000
X288000
Y37000
X298000
X308000
Y52500
X298000
X288000
T04
X217342Y185500
X207500
X197658
X187815
T05
X59055Y22000
X79055
X169961Y11011
X179803
X189646
X199488
X209331
X82000Y175000
X62000
X22000Y128000
Y108000
X22500Y80500
Y60500
T06
X213500Y68500
X223500
X233500
X243500
X253500
X263500
Y128500
X253500
X243500
X233500
X223500
X213500
X203500
X193500
X183500
X173500
X163500
X153500
X143500
X133500
X123500
Y68500
X133500
X143500
X153500
X163500
X173500
X183500
X193500
X203500
T07
X385998Y88425
Y108425
X375998Y98425
X365998Y108425
Y88425
T08
X11811Y11811
X381890
X11811Y185039
T09
X381890Y185039
T10
X70500Y79250
Y120750
M30
