G04*
G04 #@! TF.GenerationSoftware,Altium Limited,Altium Designer,19.1.9 (167)*
G04*
G04 Layer_Color=8421504*
%FSLAX25Y25*%
%MOIN*%
G70*
G01*
G75*
%ADD16R,0.03740X0.03740*%
%ADD17R,0.03740X0.03543*%
%ADD18R,0.03347X0.03347*%
%ADD19R,0.03543X0.03740*%
%ADD20R,0.03347X0.03347*%
%ADD21R,0.04724X0.02362*%
%ADD22R,0.02559X0.06004*%
%ADD23R,0.00984X0.01870*%
%ADD24R,0.01870X0.00984*%
%ADD25R,0.01968X0.01378*%
%ADD26R,0.02165X0.02165*%
%ADD27R,0.02165X0.02165*%
%ADD28R,0.02362X0.01968*%
%ADD29R,0.06299X0.04921*%
%ADD30R,0.10630X0.10630*%
%ADD31R,0.01181X0.03347*%
%ADD32R,0.03347X0.01181*%
D16*
X166000Y160500D02*
D03*
Y166405D02*
D03*
X196500Y160547D02*
D03*
Y166453D02*
D03*
D17*
X181000Y160500D02*
D03*
Y166405D02*
D03*
D18*
X166000Y146449D02*
D03*
Y152551D02*
D03*
X196500Y146449D02*
D03*
Y152551D02*
D03*
X181000Y146449D02*
D03*
Y152551D02*
D03*
X212500Y165551D02*
D03*
Y159449D02*
D03*
X265142Y36086D02*
D03*
Y42189D02*
D03*
Y28638D02*
D03*
Y22535D02*
D03*
X240642Y37138D02*
D03*
Y31035D02*
D03*
X156500Y84102D02*
D03*
Y78000D02*
D03*
X168988Y46063D02*
D03*
Y39960D02*
D03*
X199000Y82449D02*
D03*
Y88551D02*
D03*
Y113602D02*
D03*
Y107500D02*
D03*
X212500Y146000D02*
D03*
Y152102D02*
D03*
X226000Y146000D02*
D03*
Y152102D02*
D03*
Y159500D02*
D03*
Y165602D02*
D03*
D19*
X256441Y6511D02*
D03*
X250536D02*
D03*
X276500Y142000D02*
D03*
X270595D02*
D03*
X256095Y16586D02*
D03*
X250190D02*
D03*
D20*
X259551Y142000D02*
D03*
X253449D02*
D03*
X248591Y49086D02*
D03*
X254694D02*
D03*
X274540Y11512D02*
D03*
X268437D02*
D03*
X165898Y115000D02*
D03*
X172000D02*
D03*
X133449Y86000D02*
D03*
X139551D02*
D03*
X133398Y106000D02*
D03*
X139500D02*
D03*
X133449Y96000D02*
D03*
X139551D02*
D03*
X165102Y98500D02*
D03*
X159000D02*
D03*
X118602Y115500D02*
D03*
X112500D02*
D03*
X118602Y77500D02*
D03*
X112500D02*
D03*
D21*
X258485Y36086D02*
D03*
Y28606D02*
D03*
X248642D02*
D03*
Y32346D02*
D03*
Y36086D02*
D03*
D22*
X209988Y54366D02*
D03*
X204988D02*
D03*
X199988D02*
D03*
X194988D02*
D03*
X189988D02*
D03*
X184988D02*
D03*
X179988D02*
D03*
X174988D02*
D03*
Y33011D02*
D03*
X179988D02*
D03*
X184988D02*
D03*
X189988D02*
D03*
X194988D02*
D03*
X199988D02*
D03*
X204988D02*
D03*
X209988D02*
D03*
D23*
X194882Y102018D02*
D03*
X196850D02*
D03*
X198819D02*
D03*
Y94833D02*
D03*
X196850D02*
D03*
X194882D02*
D03*
D24*
X201427Y101378D02*
D03*
Y99410D02*
D03*
Y97441D02*
D03*
Y95472D02*
D03*
X192274D02*
D03*
Y97441D02*
D03*
Y99410D02*
D03*
Y101378D02*
D03*
D25*
X152650Y100839D02*
D03*
Y98280D02*
D03*
Y95720D02*
D03*
Y93161D02*
D03*
X146350D02*
D03*
Y95720D02*
D03*
Y98280D02*
D03*
Y100839D02*
D03*
D26*
X342000Y70200D02*
D03*
Y74800D02*
D03*
Y79700D02*
D03*
Y84300D02*
D03*
X347000Y102799D02*
D03*
Y98199D02*
D03*
Y87699D02*
D03*
Y92299D02*
D03*
X330000Y112700D02*
D03*
Y117300D02*
D03*
X323000D02*
D03*
Y112700D02*
D03*
X319000Y117300D02*
D03*
Y112700D02*
D03*
X315000Y117300D02*
D03*
Y112700D02*
D03*
D27*
X334300Y78000D02*
D03*
X329700D02*
D03*
X320600Y85000D02*
D03*
X316000D02*
D03*
X294700Y69000D02*
D03*
X299300D02*
D03*
D28*
X329031Y101500D02*
D03*
X332968D02*
D03*
X333000Y92500D02*
D03*
X329063D02*
D03*
X332968Y97000D02*
D03*
X329031D02*
D03*
D29*
X307217Y77831D02*
D03*
X321783D02*
D03*
Y69169D02*
D03*
X307217D02*
D03*
D30*
X314000Y99000D02*
D03*
D31*
X310063Y106677D02*
D03*
X312032D02*
D03*
X314000D02*
D03*
X315968D02*
D03*
X317937D02*
D03*
Y91323D02*
D03*
X315968D02*
D03*
X314000D02*
D03*
X312032D02*
D03*
X310063D02*
D03*
D32*
X321677Y102937D02*
D03*
Y100969D02*
D03*
Y99000D02*
D03*
Y97031D02*
D03*
Y95063D02*
D03*
X306323D02*
D03*
Y97031D02*
D03*
Y99000D02*
D03*
Y100969D02*
D03*
Y102937D02*
D03*
M02*
