G04*
G04 #@! TF.GenerationSoftware,Altium Limited,Altium Designer,19.1.9 (167)*
G04*
G04 Layer_Color=255*
%FSLAX25Y25*%
%MOIN*%
G70*
G01*
G75*
%ADD67C,0.05701*%
%ADD68R,0.05701X0.05701*%
%ADD69C,0.05906*%
%ADD70R,0.05906X0.05906*%
%ADD71C,0.31496*%
%ADD72R,0.31496X0.31496*%
%ADD73C,0.09449*%
%ADD74R,0.06693X0.06693*%
%ADD75C,0.06693*%
%ADD76R,0.06496X0.06496*%
%ADD77C,0.06496*%
%ADD78C,0.06260*%
%ADD79R,0.06260X0.06260*%
D67*
X308000Y52500D02*
D03*
X298000D02*
D03*
X308000Y37000D02*
D03*
X298000D02*
D03*
X308000Y21500D02*
D03*
X298000D02*
D03*
X308000Y6000D02*
D03*
X298000D02*
D03*
D68*
X288000Y52500D02*
D03*
Y37000D02*
D03*
Y21500D02*
D03*
Y6000D02*
D03*
D69*
X226488Y36511D02*
D03*
Y26511D02*
D03*
Y16511D02*
D03*
D70*
Y6511D02*
D03*
D71*
X70500Y79250D02*
D03*
D72*
Y120750D02*
D03*
D73*
X385998Y108425D02*
D03*
X365998D02*
D03*
Y88425D02*
D03*
X385998D02*
D03*
X375998Y98425D02*
D03*
D74*
X123500Y68500D02*
D03*
D75*
X133500D02*
D03*
X143500D02*
D03*
X153500D02*
D03*
X163500D02*
D03*
X173500D02*
D03*
X183500D02*
D03*
X193500D02*
D03*
X203500D02*
D03*
X213500D02*
D03*
X223500D02*
D03*
X233500D02*
D03*
X243500D02*
D03*
X253500D02*
D03*
X263500D02*
D03*
X123500Y128500D02*
D03*
X133500D02*
D03*
X143500D02*
D03*
X153500D02*
D03*
X163500D02*
D03*
X173500D02*
D03*
X183500D02*
D03*
X193500D02*
D03*
X203500D02*
D03*
X213500D02*
D03*
X223500D02*
D03*
X233500D02*
D03*
X243500D02*
D03*
X253500D02*
D03*
X263500D02*
D03*
D76*
X209331Y11011D02*
D03*
D77*
X199488D02*
D03*
X189646D02*
D03*
X179803D02*
D03*
X169961D02*
D03*
X59055Y22000D02*
D03*
X79055D02*
D03*
X22500Y80500D02*
D03*
Y60500D02*
D03*
X22000Y128000D02*
D03*
Y108000D02*
D03*
X82000Y175000D02*
D03*
X62000D02*
D03*
D78*
X217342Y185500D02*
D03*
X207500D02*
D03*
X197658D02*
D03*
D79*
X187815D02*
D03*
M02*
