G04*
G04 #@! TF.GenerationSoftware,Altium Limited,Altium Designer,19.1.9 (167)*
G04*
G04 Layer_Color=8388736*
%FSLAX25Y25*%
%MOIN*%
G70*
G01*
G75*
%ADD33R,0.04540X0.04540*%
%ADD34R,0.04540X0.04343*%
%ADD35R,0.04147X0.04147*%
%ADD36R,0.04343X0.04540*%
%ADD37R,0.04147X0.04147*%
%ADD38R,0.05524X0.03162*%
%ADD39R,0.03359X0.06804*%
%ADD40R,0.01784X0.02670*%
%ADD41R,0.02670X0.01784*%
%ADD42R,0.02769X0.02178*%
%ADD43R,0.02965X0.02965*%
%ADD44R,0.02965X0.02965*%
%ADD45R,0.03162X0.02769*%
%ADD46R,0.07099X0.05721*%
%ADD47R,0.11430X0.11430*%
%ADD48R,0.01981X0.04147*%
%ADD49R,0.04147X0.01981*%
%ADD50C,0.06501*%
%ADD51R,0.06501X0.06501*%
%ADD52C,0.06706*%
%ADD53R,0.06706X0.06706*%
%ADD54C,0.32296*%
%ADD55R,0.32296X0.32296*%
%ADD56C,0.10249*%
%ADD57R,0.07493X0.07493*%
%ADD58C,0.07493*%
%ADD59R,0.07296X0.07296*%
%ADD60C,0.07296*%
%ADD61C,0.07060*%
%ADD62R,0.07060X0.07060*%
%ADD63C,0.05800*%
%ADD64C,0.13398*%
%ADD65C,0.12611*%
D33*
X166000Y160500D02*
D03*
Y166405D02*
D03*
X196500Y160547D02*
D03*
Y166453D02*
D03*
D34*
X181000Y160500D02*
D03*
Y166405D02*
D03*
D35*
X166000Y146449D02*
D03*
Y152551D02*
D03*
X196500Y146449D02*
D03*
Y152551D02*
D03*
X181000Y146449D02*
D03*
Y152551D02*
D03*
X212500Y165551D02*
D03*
Y159449D02*
D03*
X265142Y36086D02*
D03*
Y42189D02*
D03*
Y28638D02*
D03*
Y22535D02*
D03*
X240642Y37138D02*
D03*
Y31035D02*
D03*
X156500Y84102D02*
D03*
Y78000D02*
D03*
X168988Y46063D02*
D03*
Y39960D02*
D03*
X199000Y82449D02*
D03*
Y88551D02*
D03*
Y113602D02*
D03*
Y107500D02*
D03*
X212500Y146000D02*
D03*
Y152102D02*
D03*
X226000Y146000D02*
D03*
Y152102D02*
D03*
Y159500D02*
D03*
Y165602D02*
D03*
D36*
X256441Y6511D02*
D03*
X250536D02*
D03*
X276500Y142000D02*
D03*
X270595D02*
D03*
X256095Y16586D02*
D03*
X250190D02*
D03*
D37*
X259551Y142000D02*
D03*
X253449D02*
D03*
X248591Y49086D02*
D03*
X254694D02*
D03*
X274540Y11512D02*
D03*
X268437D02*
D03*
X165898Y115000D02*
D03*
X172000D02*
D03*
X133449Y86000D02*
D03*
X139551D02*
D03*
X133398Y106000D02*
D03*
X139500D02*
D03*
X133449Y96000D02*
D03*
X139551D02*
D03*
X165102Y98500D02*
D03*
X159000D02*
D03*
X118602Y115500D02*
D03*
X112500D02*
D03*
X118602Y77500D02*
D03*
X112500D02*
D03*
D38*
X258485Y36086D02*
D03*
Y28606D02*
D03*
X248642D02*
D03*
Y32346D02*
D03*
Y36086D02*
D03*
D39*
X209988Y54366D02*
D03*
X204988D02*
D03*
X199988D02*
D03*
X194988D02*
D03*
X189988D02*
D03*
X184988D02*
D03*
X179988D02*
D03*
X174988D02*
D03*
Y33011D02*
D03*
X179988D02*
D03*
X184988D02*
D03*
X189988D02*
D03*
X194988D02*
D03*
X199988D02*
D03*
X204988D02*
D03*
X209988D02*
D03*
D40*
X194882Y102018D02*
D03*
X196850D02*
D03*
X198819D02*
D03*
Y94833D02*
D03*
X196850D02*
D03*
X194882D02*
D03*
D41*
X201427Y101378D02*
D03*
Y99410D02*
D03*
Y97441D02*
D03*
Y95472D02*
D03*
X192274D02*
D03*
Y97441D02*
D03*
Y99410D02*
D03*
Y101378D02*
D03*
D42*
X152650Y100839D02*
D03*
Y98280D02*
D03*
Y95720D02*
D03*
Y93161D02*
D03*
X146350D02*
D03*
Y95720D02*
D03*
Y98280D02*
D03*
Y100839D02*
D03*
D43*
X342000Y70200D02*
D03*
Y74800D02*
D03*
Y79700D02*
D03*
Y84300D02*
D03*
X347000Y102799D02*
D03*
Y98199D02*
D03*
Y87699D02*
D03*
Y92299D02*
D03*
X330000Y112700D02*
D03*
Y117300D02*
D03*
X323000D02*
D03*
Y112700D02*
D03*
X319000Y117300D02*
D03*
Y112700D02*
D03*
X315000Y117300D02*
D03*
Y112700D02*
D03*
D44*
X334300Y78000D02*
D03*
X329700D02*
D03*
X320600Y85000D02*
D03*
X316000D02*
D03*
X294700Y69000D02*
D03*
X299300D02*
D03*
D45*
X329031Y101500D02*
D03*
X332968D02*
D03*
X333000Y92500D02*
D03*
X329063D02*
D03*
X332968Y97000D02*
D03*
X329031D02*
D03*
D46*
X307217Y77831D02*
D03*
X321783D02*
D03*
Y69169D02*
D03*
X307217D02*
D03*
D47*
X314000Y99000D02*
D03*
D48*
X310063Y106677D02*
D03*
X312032D02*
D03*
X314000D02*
D03*
X315968D02*
D03*
X317937D02*
D03*
Y91323D02*
D03*
X315968D02*
D03*
X314000D02*
D03*
X312032D02*
D03*
X310063D02*
D03*
D49*
X321677Y102937D02*
D03*
Y100969D02*
D03*
Y99000D02*
D03*
Y97031D02*
D03*
Y95063D02*
D03*
X306323D02*
D03*
Y97031D02*
D03*
Y99000D02*
D03*
Y100969D02*
D03*
Y102937D02*
D03*
D50*
X308000Y52500D02*
D03*
X298000D02*
D03*
X308000Y37000D02*
D03*
X298000D02*
D03*
X308000Y21500D02*
D03*
X298000D02*
D03*
X308000Y6000D02*
D03*
X298000D02*
D03*
D51*
X288000Y52500D02*
D03*
Y37000D02*
D03*
Y21500D02*
D03*
Y6000D02*
D03*
D52*
X226488Y36511D02*
D03*
Y26511D02*
D03*
Y16511D02*
D03*
D53*
Y6511D02*
D03*
D54*
X70500Y79250D02*
D03*
D55*
Y120750D02*
D03*
D56*
X385998Y108425D02*
D03*
X365998D02*
D03*
Y88425D02*
D03*
X385998D02*
D03*
X375998Y98425D02*
D03*
D57*
X123500Y68500D02*
D03*
D58*
X133500D02*
D03*
X143500D02*
D03*
X153500D02*
D03*
X163500D02*
D03*
X173500D02*
D03*
X183500D02*
D03*
X193500D02*
D03*
X203500D02*
D03*
X213500D02*
D03*
X223500D02*
D03*
X233500D02*
D03*
X243500D02*
D03*
X253500D02*
D03*
X263500D02*
D03*
X123500Y128500D02*
D03*
X133500D02*
D03*
X143500D02*
D03*
X153500D02*
D03*
X163500D02*
D03*
X173500D02*
D03*
X183500D02*
D03*
X193500D02*
D03*
X203500D02*
D03*
X213500D02*
D03*
X223500D02*
D03*
X233500D02*
D03*
X243500D02*
D03*
X253500D02*
D03*
X263500D02*
D03*
D59*
X209331Y11011D02*
D03*
D60*
X199488D02*
D03*
X189646D02*
D03*
X179803D02*
D03*
X169961D02*
D03*
X59055Y22000D02*
D03*
X79055D02*
D03*
X22500Y80500D02*
D03*
Y60500D02*
D03*
X22000Y128000D02*
D03*
Y108000D02*
D03*
X82000Y175000D02*
D03*
X62000D02*
D03*
D61*
X217342Y185500D02*
D03*
X207500D02*
D03*
X197658D02*
D03*
D62*
X187815D02*
D03*
D63*
X290000Y110500D02*
D03*
X172500Y140500D02*
D03*
X188500D02*
D03*
X372441Y171653D02*
D03*
X378346Y159842D02*
D03*
X372441Y148031D02*
D03*
X378346Y136220D02*
D03*
X372441Y124409D02*
D03*
X366535Y183465D02*
D03*
X360630Y171653D02*
D03*
X366535Y159842D02*
D03*
X360630Y148031D02*
D03*
X366535Y136220D02*
D03*
X360630Y124409D02*
D03*
X354724Y183465D02*
D03*
X348819Y171653D02*
D03*
X354724Y159842D02*
D03*
X348819Y148031D02*
D03*
X354724Y136220D02*
D03*
X348819Y124409D02*
D03*
X342913Y183465D02*
D03*
X337008Y171653D02*
D03*
X342913Y159842D02*
D03*
X337008Y148031D02*
D03*
X342913Y136220D02*
D03*
X337008Y124409D02*
D03*
X331102Y183465D02*
D03*
X325197Y171653D02*
D03*
X331102Y159842D02*
D03*
X325197Y148031D02*
D03*
X331102Y136220D02*
D03*
X319291Y183465D02*
D03*
X313386Y171653D02*
D03*
X319291Y159842D02*
D03*
X313386Y148031D02*
D03*
X319291Y136220D02*
D03*
X307480Y183465D02*
D03*
X301575Y171653D02*
D03*
X307480Y159842D02*
D03*
X301575Y148031D02*
D03*
X307480Y136220D02*
D03*
X384252Y53543D02*
D03*
Y29921D02*
D03*
X378346Y65354D02*
D03*
X372441Y53543D02*
D03*
X378346Y41732D02*
D03*
X372441Y29921D02*
D03*
X366535Y65354D02*
D03*
X360630Y53543D02*
D03*
X366535Y41732D02*
D03*
X360630Y29921D02*
D03*
X366535Y18110D02*
D03*
X360630Y6299D02*
D03*
X354724Y65354D02*
D03*
X348819Y53543D02*
D03*
X354724Y41732D02*
D03*
X348819Y29921D02*
D03*
X354724Y18110D02*
D03*
X348819Y6299D02*
D03*
X342913Y65354D02*
D03*
X337008Y53543D02*
D03*
X342913Y41732D02*
D03*
X337008Y29921D02*
D03*
X342913Y18110D02*
D03*
X337008Y6299D02*
D03*
X325197Y53543D02*
D03*
X331102Y41732D02*
D03*
X325197Y29921D02*
D03*
X331102Y18110D02*
D03*
X325197Y6299D02*
D03*
X284000Y142000D02*
D03*
X117000Y97000D02*
D03*
X226000Y140000D02*
D03*
X212500D02*
D03*
X290000Y88500D02*
D03*
Y81000D02*
D03*
Y103000D02*
D03*
Y95500D02*
D03*
X236142Y20586D02*
D03*
X276642Y32586D02*
D03*
X149000Y113000D02*
D03*
X126500Y96000D02*
D03*
X212000Y90000D02*
D03*
X185000Y99000D02*
D03*
X211500Y113500D02*
D03*
X298500Y78000D02*
D03*
X336500Y108500D02*
D03*
X330500Y69000D02*
D03*
X310000Y114000D02*
D03*
D64*
X381890Y185039D02*
D03*
Y11811D02*
D03*
X11811D02*
D03*
D65*
Y185039D02*
D03*
M02*
