G04*
G04 #@! TF.GenerationSoftware,Altium Limited,Altium Designer,19.1.9 (167)*
G04*
G04 Layer_Physical_Order=2*
G04 Layer_Color=16711680*
%FSLAX25Y25*%
%MOIN*%
G70*
G01*
G75*
%ADD66C,0.00800*%
%ADD67C,0.05701*%
%ADD68R,0.05701X0.05701*%
%ADD69C,0.05906*%
%ADD70R,0.05906X0.05906*%
%ADD71C,0.31496*%
%ADD72R,0.31496X0.31496*%
%ADD73C,0.09449*%
%ADD74R,0.06693X0.06693*%
%ADD75C,0.06693*%
%ADD76R,0.06496X0.06496*%
%ADD77C,0.06496*%
%ADD78C,0.06260*%
%ADD79R,0.06260X0.06260*%
%ADD80C,0.05000*%
%ADD81C,0.12598*%
%ADD82C,0.11811*%
G36*
X384917Y195116D02*
X386737Y194362D01*
X388375Y193268D01*
X389768Y191875D01*
X390862Y190237D01*
X391616Y188417D01*
X392000Y186485D01*
Y185500D01*
Y110201D01*
X391500Y110102D01*
X390999Y111312D01*
X390081Y112508D01*
X388885Y113426D01*
X387493Y114002D01*
X386498Y114133D01*
Y108425D01*
Y102717D01*
X387493Y102848D01*
X388885Y103425D01*
X390081Y104342D01*
X390999Y105538D01*
X391500Y106749D01*
X392000Y106649D01*
Y90201D01*
X391500Y90102D01*
X390999Y91312D01*
X390081Y92508D01*
X388885Y93426D01*
X387493Y94002D01*
X386498Y94133D01*
Y88425D01*
Y82717D01*
X387493Y82848D01*
X388885Y83425D01*
X390081Y84342D01*
X390999Y85538D01*
X391500Y86749D01*
X392000Y86649D01*
Y11500D01*
Y10515D01*
X391616Y8583D01*
X390862Y6763D01*
X389768Y5125D01*
X388375Y3732D01*
X386737Y2638D01*
X384917Y1884D01*
X382985Y1500D01*
X10515D01*
X8583Y1884D01*
X6763Y2638D01*
X5125Y3732D01*
X3732Y5125D01*
X2638Y6763D01*
X1884Y8583D01*
X1500Y10515D01*
Y11500D01*
Y185500D01*
Y186485D01*
X1884Y188417D01*
X2638Y190237D01*
X3732Y191875D01*
X5125Y193268D01*
X6763Y194362D01*
X8583Y195116D01*
X10515Y195500D01*
X382985D01*
X384917Y195116D01*
D02*
G37*
%LPC*%
G36*
X367035Y186929D02*
Y183965D01*
X370000D01*
X369945Y184378D01*
X369592Y185230D01*
X369032Y185961D01*
X368300Y186522D01*
X367449Y186874D01*
X367035Y186929D01*
D02*
G37*
G36*
X366035D02*
X365622Y186874D01*
X364770Y186522D01*
X364039Y185961D01*
X363478Y185230D01*
X363125Y184378D01*
X363071Y183965D01*
X366035D01*
Y186929D01*
D02*
G37*
G36*
X355224D02*
Y183965D01*
X358189D01*
X358134Y184378D01*
X357782Y185230D01*
X357221Y185961D01*
X356489Y186522D01*
X355638Y186874D01*
X355224Y186929D01*
D02*
G37*
G36*
X354224D02*
X353811Y186874D01*
X352959Y186522D01*
X352228Y185961D01*
X351667Y185230D01*
X351314Y184378D01*
X351260Y183965D01*
X354224D01*
Y186929D01*
D02*
G37*
G36*
X343413D02*
Y183965D01*
X346378D01*
X346323Y184378D01*
X345971Y185230D01*
X345409Y185961D01*
X344678Y186522D01*
X343827Y186874D01*
X343413Y186929D01*
D02*
G37*
G36*
X342413D02*
X342000Y186874D01*
X341148Y186522D01*
X340417Y185961D01*
X339856Y185230D01*
X339503Y184378D01*
X339449Y183965D01*
X342413D01*
Y186929D01*
D02*
G37*
G36*
X331602D02*
Y183965D01*
X334567D01*
X334512Y184378D01*
X334159Y185230D01*
X333598Y185961D01*
X332867Y186522D01*
X332016Y186874D01*
X331602Y186929D01*
D02*
G37*
G36*
X330602D02*
X330188Y186874D01*
X329337Y186522D01*
X328606Y185961D01*
X328045Y185230D01*
X327692Y184378D01*
X327638Y183965D01*
X330602D01*
Y186929D01*
D02*
G37*
G36*
X319791D02*
Y183965D01*
X322756D01*
X322701Y184378D01*
X322348Y185230D01*
X321787Y185961D01*
X321056Y186522D01*
X320205Y186874D01*
X319791Y186929D01*
D02*
G37*
G36*
X318791D02*
X318377Y186874D01*
X317526Y186522D01*
X316795Y185961D01*
X316234Y185230D01*
X315881Y184378D01*
X315827Y183965D01*
X318791D01*
Y186929D01*
D02*
G37*
G36*
X307980D02*
Y183965D01*
X310945D01*
X310890Y184378D01*
X310537Y185230D01*
X309976Y185961D01*
X309245Y186522D01*
X308394Y186874D01*
X307980Y186929D01*
D02*
G37*
G36*
X306980D02*
X306567Y186874D01*
X305715Y186522D01*
X304984Y185961D01*
X304423Y185230D01*
X304070Y184378D01*
X304016Y183965D01*
X306980D01*
Y186929D01*
D02*
G37*
G36*
X191745Y189430D02*
X183885D01*
Y181570D01*
X191745D01*
Y189430D01*
D02*
G37*
G36*
X217342Y189464D02*
X216317Y189329D01*
X215361Y188933D01*
X214540Y188303D01*
X213910Y187482D01*
X213514Y186526D01*
X213379Y185500D01*
X213514Y184474D01*
X213910Y183518D01*
X214540Y182697D01*
X215361Y182067D01*
X216317Y181671D01*
X217342Y181536D01*
X218368Y181671D01*
X219324Y182067D01*
X220145Y182697D01*
X220775Y183518D01*
X221171Y184474D01*
X221306Y185500D01*
X221171Y186526D01*
X220775Y187482D01*
X220145Y188303D01*
X219324Y188933D01*
X218368Y189329D01*
X217342Y189464D01*
D02*
G37*
G36*
X207500D02*
X206474Y189329D01*
X205518Y188933D01*
X204697Y188303D01*
X204067Y187482D01*
X203671Y186526D01*
X203536Y185500D01*
X203671Y184474D01*
X204067Y183518D01*
X204697Y182697D01*
X205518Y182067D01*
X206474Y181671D01*
X207500Y181536D01*
X208526Y181671D01*
X209482Y182067D01*
X210303Y182697D01*
X210933Y183518D01*
X211329Y184474D01*
X211464Y185500D01*
X211329Y186526D01*
X210933Y187482D01*
X210303Y188303D01*
X209482Y188933D01*
X208526Y189329D01*
X207500Y189464D01*
D02*
G37*
G36*
X197658D02*
X196632Y189329D01*
X195676Y188933D01*
X194855Y188303D01*
X194225Y187482D01*
X193829Y186526D01*
X193694Y185500D01*
X193829Y184474D01*
X194225Y183518D01*
X194855Y182697D01*
X195676Y182067D01*
X196632Y181671D01*
X197658Y181536D01*
X198683Y181671D01*
X199639Y182067D01*
X200460Y182697D01*
X201090Y183518D01*
X201486Y184474D01*
X201621Y185500D01*
X201486Y186526D01*
X201090Y187482D01*
X200460Y188303D01*
X199639Y188933D01*
X198683Y189329D01*
X197658Y189464D01*
D02*
G37*
G36*
X370000Y182965D02*
X367035D01*
Y180000D01*
X367449Y180055D01*
X368300Y180407D01*
X369032Y180968D01*
X369592Y181699D01*
X369945Y182551D01*
X370000Y182965D01*
D02*
G37*
G36*
X366035D02*
X363071D01*
X363125Y182551D01*
X363478Y181699D01*
X364039Y180968D01*
X364770Y180407D01*
X365622Y180055D01*
X366035Y180000D01*
Y182965D01*
D02*
G37*
G36*
X358189D02*
X355224D01*
Y180000D01*
X355638Y180055D01*
X356489Y180407D01*
X357221Y180968D01*
X357782Y181699D01*
X358134Y182551D01*
X358189Y182965D01*
D02*
G37*
G36*
X354224D02*
X351260D01*
X351314Y182551D01*
X351667Y181699D01*
X352228Y180968D01*
X352959Y180407D01*
X353811Y180055D01*
X354224Y180000D01*
Y182965D01*
D02*
G37*
G36*
X346378D02*
X343413D01*
Y180000D01*
X343827Y180055D01*
X344678Y180407D01*
X345409Y180968D01*
X345971Y181699D01*
X346323Y182551D01*
X346378Y182965D01*
D02*
G37*
G36*
X342413D02*
X339449D01*
X339503Y182551D01*
X339856Y181699D01*
X340417Y180968D01*
X341148Y180407D01*
X342000Y180055D01*
X342413Y180000D01*
Y182965D01*
D02*
G37*
G36*
X334567D02*
X331602D01*
Y180000D01*
X332016Y180055D01*
X332867Y180407D01*
X333598Y180968D01*
X334159Y181699D01*
X334512Y182551D01*
X334567Y182965D01*
D02*
G37*
G36*
X330602D02*
X327638D01*
X327692Y182551D01*
X328045Y181699D01*
X328606Y180968D01*
X329337Y180407D01*
X330188Y180055D01*
X330602Y180000D01*
Y182965D01*
D02*
G37*
G36*
X322756D02*
X319791D01*
Y180000D01*
X320205Y180055D01*
X321056Y180407D01*
X321787Y180968D01*
X322348Y181699D01*
X322701Y182551D01*
X322756Y182965D01*
D02*
G37*
G36*
X318791D02*
X315827D01*
X315881Y182551D01*
X316234Y181699D01*
X316795Y180968D01*
X317526Y180407D01*
X318377Y180055D01*
X318791Y180000D01*
Y182965D01*
D02*
G37*
G36*
X310945D02*
X307980D01*
Y180000D01*
X308394Y180055D01*
X309245Y180407D01*
X309976Y180968D01*
X310537Y181699D01*
X310890Y182551D01*
X310945Y182965D01*
D02*
G37*
G36*
X306980D02*
X304016D01*
X304070Y182551D01*
X304423Y181699D01*
X304984Y180968D01*
X305715Y180407D01*
X306567Y180055D01*
X306980Y180000D01*
Y182965D01*
D02*
G37*
G36*
X11811Y191777D02*
X10497Y191648D01*
X9233Y191264D01*
X8068Y190642D01*
X7047Y189804D01*
X6209Y188783D01*
X5586Y187618D01*
X5203Y186354D01*
X5073Y185039D01*
X5203Y183725D01*
X5586Y182461D01*
X6209Y181296D01*
X7047Y180275D01*
X8068Y179437D01*
X9233Y178814D01*
X10497Y178431D01*
X11811Y178301D01*
X13126Y178431D01*
X14390Y178814D01*
X15554Y179437D01*
X16576Y180275D01*
X17413Y181296D01*
X18036Y182461D01*
X18419Y183725D01*
X18549Y185039D01*
X18419Y186354D01*
X18036Y187618D01*
X17413Y188783D01*
X16576Y189804D01*
X15554Y190642D01*
X14390Y191264D01*
X13126Y191648D01*
X11811Y191777D01*
D02*
G37*
G36*
X381890Y192173D02*
X380498Y192036D01*
X379160Y191630D01*
X377927Y190971D01*
X376846Y190084D01*
X375958Y189003D01*
X375299Y187769D01*
X374893Y186431D01*
X374756Y185039D01*
X374893Y183648D01*
X375299Y182309D01*
X375958Y181076D01*
X376846Y179995D01*
X377927Y179108D01*
X379160Y178449D01*
X380498Y178043D01*
X381890Y177906D01*
X383281Y178043D01*
X384620Y178449D01*
X385853Y179108D01*
X386934Y179995D01*
X387821Y181076D01*
X388480Y182309D01*
X388886Y183648D01*
X389023Y185039D01*
X388886Y186431D01*
X388480Y187769D01*
X387821Y189003D01*
X386934Y190084D01*
X385853Y190971D01*
X384620Y191630D01*
X383281Y192036D01*
X381890Y192173D01*
D02*
G37*
G36*
X62500Y179219D02*
Y175500D01*
X66219D01*
X66139Y176109D01*
X65711Y177142D01*
X65030Y178030D01*
X64142Y178711D01*
X63109Y179139D01*
X62500Y179219D01*
D02*
G37*
G36*
X61500D02*
X60891Y179139D01*
X59858Y178711D01*
X58970Y178030D01*
X58289Y177142D01*
X57861Y176109D01*
X57781Y175500D01*
X61500D01*
Y179219D01*
D02*
G37*
G36*
X372941Y175118D02*
Y172153D01*
X375905D01*
X375851Y172567D01*
X375498Y173419D01*
X374937Y174150D01*
X374206Y174711D01*
X373355Y175063D01*
X372941Y175118D01*
D02*
G37*
G36*
X371941D02*
X371527Y175063D01*
X370676Y174711D01*
X369945Y174150D01*
X369384Y173419D01*
X369031Y172567D01*
X368976Y172153D01*
X371941D01*
Y175118D01*
D02*
G37*
G36*
X361130D02*
Y172153D01*
X364094D01*
X364040Y172567D01*
X363687Y173419D01*
X363126Y174150D01*
X362395Y174711D01*
X361543Y175063D01*
X361130Y175118D01*
D02*
G37*
G36*
X360130D02*
X359716Y175063D01*
X358865Y174711D01*
X358134Y174150D01*
X357573Y173419D01*
X357220Y172567D01*
X357165Y172153D01*
X360130D01*
Y175118D01*
D02*
G37*
G36*
X349319D02*
Y172153D01*
X352283D01*
X352229Y172567D01*
X351876Y173419D01*
X351315Y174150D01*
X350584Y174711D01*
X349732Y175063D01*
X349319Y175118D01*
D02*
G37*
G36*
X348319D02*
X347905Y175063D01*
X347054Y174711D01*
X346322Y174150D01*
X345761Y173419D01*
X345409Y172567D01*
X345354Y172153D01*
X348319D01*
Y175118D01*
D02*
G37*
G36*
X337508D02*
Y172153D01*
X340472D01*
X340418Y172567D01*
X340065Y173419D01*
X339504Y174150D01*
X338773Y174711D01*
X337921Y175063D01*
X337508Y175118D01*
D02*
G37*
G36*
X336508D02*
X336094Y175063D01*
X335243Y174711D01*
X334511Y174150D01*
X333950Y173419D01*
X333598Y172567D01*
X333543Y172153D01*
X336508D01*
Y175118D01*
D02*
G37*
G36*
X325697D02*
Y172153D01*
X328661D01*
X328607Y172567D01*
X328254Y173419D01*
X327693Y174150D01*
X326962Y174711D01*
X326110Y175063D01*
X325697Y175118D01*
D02*
G37*
G36*
X324697D02*
X324283Y175063D01*
X323432Y174711D01*
X322701Y174150D01*
X322140Y173419D01*
X321787Y172567D01*
X321732Y172153D01*
X324697D01*
Y175118D01*
D02*
G37*
G36*
X313886D02*
Y172153D01*
X316850D01*
X316796Y172567D01*
X316443Y173419D01*
X315882Y174150D01*
X315151Y174711D01*
X314299Y175063D01*
X313886Y175118D01*
D02*
G37*
G36*
X312886D02*
X312472Y175063D01*
X311621Y174711D01*
X310890Y174150D01*
X310329Y173419D01*
X309976Y172567D01*
X309921Y172153D01*
X312886D01*
Y175118D01*
D02*
G37*
G36*
X302075D02*
Y172153D01*
X305039D01*
X304985Y172567D01*
X304632Y173419D01*
X304071Y174150D01*
X303340Y174711D01*
X302488Y175063D01*
X302075Y175118D01*
D02*
G37*
G36*
X301075D02*
X300661Y175063D01*
X299810Y174711D01*
X299078Y174150D01*
X298517Y173419D01*
X298165Y172567D01*
X298110Y172153D01*
X301075D01*
Y175118D01*
D02*
G37*
G36*
X82000Y179083D02*
X80943Y178944D01*
X79958Y178536D01*
X79113Y177887D01*
X78464Y177041D01*
X78056Y176057D01*
X77917Y175000D01*
X78056Y173943D01*
X78464Y172959D01*
X79113Y172113D01*
X79958Y171464D01*
X80943Y171056D01*
X82000Y170917D01*
X83057Y171056D01*
X84042Y171464D01*
X84887Y172113D01*
X85536Y172959D01*
X85944Y173943D01*
X86083Y175000D01*
X85944Y176057D01*
X85536Y177041D01*
X84887Y177887D01*
X84042Y178536D01*
X83057Y178944D01*
X82000Y179083D01*
D02*
G37*
G36*
X66219Y174500D02*
X62500D01*
Y170781D01*
X63109Y170861D01*
X64142Y171289D01*
X65030Y171970D01*
X65711Y172858D01*
X66139Y173891D01*
X66219Y174500D01*
D02*
G37*
G36*
X61500D02*
X57781D01*
X57861Y173891D01*
X58289Y172858D01*
X58970Y171970D01*
X59858Y171289D01*
X60891Y170861D01*
X61500Y170781D01*
Y174500D01*
D02*
G37*
G36*
X375905Y171153D02*
X372941D01*
Y168189D01*
X373355Y168244D01*
X374206Y168596D01*
X374937Y169157D01*
X375498Y169888D01*
X375851Y170740D01*
X375905Y171153D01*
D02*
G37*
G36*
X371941D02*
X368976D01*
X369031Y170740D01*
X369384Y169888D01*
X369945Y169157D01*
X370676Y168596D01*
X371527Y168244D01*
X371941Y168189D01*
Y171153D01*
D02*
G37*
G36*
X364094D02*
X361130D01*
Y168189D01*
X361543Y168244D01*
X362395Y168596D01*
X363126Y169157D01*
X363687Y169888D01*
X364040Y170740D01*
X364094Y171153D01*
D02*
G37*
G36*
X360130D02*
X357165D01*
X357220Y170740D01*
X357573Y169888D01*
X358134Y169157D01*
X358865Y168596D01*
X359716Y168244D01*
X360130Y168189D01*
Y171153D01*
D02*
G37*
G36*
X352283D02*
X349319D01*
Y168189D01*
X349732Y168244D01*
X350584Y168596D01*
X351315Y169157D01*
X351876Y169888D01*
X352229Y170740D01*
X352283Y171153D01*
D02*
G37*
G36*
X348319D02*
X345354D01*
X345409Y170740D01*
X345761Y169888D01*
X346322Y169157D01*
X347054Y168596D01*
X347905Y168244D01*
X348319Y168189D01*
Y171153D01*
D02*
G37*
G36*
X340472D02*
X337508D01*
Y168189D01*
X337921Y168244D01*
X338773Y168596D01*
X339504Y169157D01*
X340065Y169888D01*
X340418Y170740D01*
X340472Y171153D01*
D02*
G37*
G36*
X336508D02*
X333543D01*
X333598Y170740D01*
X333950Y169888D01*
X334511Y169157D01*
X335243Y168596D01*
X336094Y168244D01*
X336508Y168189D01*
Y171153D01*
D02*
G37*
G36*
X328661D02*
X325697D01*
Y168189D01*
X326110Y168244D01*
X326962Y168596D01*
X327693Y169157D01*
X328254Y169888D01*
X328607Y170740D01*
X328661Y171153D01*
D02*
G37*
G36*
X324697D02*
X321732D01*
X321787Y170740D01*
X322140Y169888D01*
X322701Y169157D01*
X323432Y168596D01*
X324283Y168244D01*
X324697Y168189D01*
Y171153D01*
D02*
G37*
G36*
X316850D02*
X313886D01*
Y168189D01*
X314299Y168244D01*
X315151Y168596D01*
X315882Y169157D01*
X316443Y169888D01*
X316796Y170740D01*
X316850Y171153D01*
D02*
G37*
G36*
X312886D02*
X309921D01*
X309976Y170740D01*
X310329Y169888D01*
X310890Y169157D01*
X311621Y168596D01*
X312472Y168244D01*
X312886Y168189D01*
Y171153D01*
D02*
G37*
G36*
X305039D02*
X302075D01*
Y168189D01*
X302488Y168244D01*
X303340Y168596D01*
X304071Y169157D01*
X304632Y169888D01*
X304985Y170740D01*
X305039Y171153D01*
D02*
G37*
G36*
X301075D02*
X298110D01*
X298165Y170740D01*
X298517Y169888D01*
X299078Y169157D01*
X299810Y168596D01*
X300661Y168244D01*
X301075Y168189D01*
Y171153D01*
D02*
G37*
G36*
X378846Y163307D02*
Y160342D01*
X381811D01*
X381756Y160756D01*
X381403Y161608D01*
X380842Y162339D01*
X380111Y162900D01*
X379260Y163252D01*
X378846Y163307D01*
D02*
G37*
G36*
X377846D02*
X377433Y163252D01*
X376581Y162900D01*
X375850Y162339D01*
X375289Y161608D01*
X374936Y160756D01*
X374882Y160342D01*
X377846D01*
Y163307D01*
D02*
G37*
G36*
X367035D02*
Y160342D01*
X370000D01*
X369945Y160756D01*
X369592Y161608D01*
X369032Y162339D01*
X368300Y162900D01*
X367449Y163252D01*
X367035Y163307D01*
D02*
G37*
G36*
X366035D02*
X365622Y163252D01*
X364770Y162900D01*
X364039Y162339D01*
X363478Y161608D01*
X363125Y160756D01*
X363071Y160342D01*
X366035D01*
Y163307D01*
D02*
G37*
G36*
X355224D02*
Y160342D01*
X358189D01*
X358134Y160756D01*
X357782Y161608D01*
X357221Y162339D01*
X356489Y162900D01*
X355638Y163252D01*
X355224Y163307D01*
D02*
G37*
G36*
X354224D02*
X353811Y163252D01*
X352959Y162900D01*
X352228Y162339D01*
X351667Y161608D01*
X351314Y160756D01*
X351260Y160342D01*
X354224D01*
Y163307D01*
D02*
G37*
G36*
X343413D02*
Y160342D01*
X346378D01*
X346323Y160756D01*
X345971Y161608D01*
X345409Y162339D01*
X344678Y162900D01*
X343827Y163252D01*
X343413Y163307D01*
D02*
G37*
G36*
X342413D02*
X342000Y163252D01*
X341148Y162900D01*
X340417Y162339D01*
X339856Y161608D01*
X339503Y160756D01*
X339449Y160342D01*
X342413D01*
Y163307D01*
D02*
G37*
G36*
X331602D02*
Y160342D01*
X334567D01*
X334512Y160756D01*
X334159Y161608D01*
X333598Y162339D01*
X332867Y162900D01*
X332016Y163252D01*
X331602Y163307D01*
D02*
G37*
G36*
X330602D02*
X330188Y163252D01*
X329337Y162900D01*
X328606Y162339D01*
X328045Y161608D01*
X327692Y160756D01*
X327638Y160342D01*
X330602D01*
Y163307D01*
D02*
G37*
G36*
X319791D02*
Y160342D01*
X322756D01*
X322701Y160756D01*
X322348Y161608D01*
X321787Y162339D01*
X321056Y162900D01*
X320205Y163252D01*
X319791Y163307D01*
D02*
G37*
G36*
X318791D02*
X318377Y163252D01*
X317526Y162900D01*
X316795Y162339D01*
X316234Y161608D01*
X315881Y160756D01*
X315827Y160342D01*
X318791D01*
Y163307D01*
D02*
G37*
G36*
X307980D02*
Y160342D01*
X310945D01*
X310890Y160756D01*
X310537Y161608D01*
X309976Y162339D01*
X309245Y162900D01*
X308394Y163252D01*
X307980Y163307D01*
D02*
G37*
G36*
X306980D02*
X306567Y163252D01*
X305715Y162900D01*
X304984Y162339D01*
X304423Y161608D01*
X304070Y160756D01*
X304016Y160342D01*
X306980D01*
Y163307D01*
D02*
G37*
G36*
X381811Y159342D02*
X378846D01*
Y156378D01*
X379260Y156432D01*
X380111Y156785D01*
X380842Y157346D01*
X381403Y158077D01*
X381756Y158929D01*
X381811Y159342D01*
D02*
G37*
G36*
X377846D02*
X374882D01*
X374936Y158929D01*
X375289Y158077D01*
X375850Y157346D01*
X376581Y156785D01*
X377433Y156432D01*
X377846Y156378D01*
Y159342D01*
D02*
G37*
G36*
X370000D02*
X367035D01*
Y156378D01*
X367449Y156432D01*
X368300Y156785D01*
X369032Y157346D01*
X369592Y158077D01*
X369945Y158929D01*
X370000Y159342D01*
D02*
G37*
G36*
X366035D02*
X363071D01*
X363125Y158929D01*
X363478Y158077D01*
X364039Y157346D01*
X364770Y156785D01*
X365622Y156432D01*
X366035Y156378D01*
Y159342D01*
D02*
G37*
G36*
X358189D02*
X355224D01*
Y156378D01*
X355638Y156432D01*
X356489Y156785D01*
X357221Y157346D01*
X357782Y158077D01*
X358134Y158929D01*
X358189Y159342D01*
D02*
G37*
G36*
X354224D02*
X351260D01*
X351314Y158929D01*
X351667Y158077D01*
X352228Y157346D01*
X352959Y156785D01*
X353811Y156432D01*
X354224Y156378D01*
Y159342D01*
D02*
G37*
G36*
X346378D02*
X343413D01*
Y156378D01*
X343827Y156432D01*
X344678Y156785D01*
X345409Y157346D01*
X345971Y158077D01*
X346323Y158929D01*
X346378Y159342D01*
D02*
G37*
G36*
X342413D02*
X339449D01*
X339503Y158929D01*
X339856Y158077D01*
X340417Y157346D01*
X341148Y156785D01*
X342000Y156432D01*
X342413Y156378D01*
Y159342D01*
D02*
G37*
G36*
X334567D02*
X331602D01*
Y156378D01*
X332016Y156432D01*
X332867Y156785D01*
X333598Y157346D01*
X334159Y158077D01*
X334512Y158929D01*
X334567Y159342D01*
D02*
G37*
G36*
X330602D02*
X327638D01*
X327692Y158929D01*
X328045Y158077D01*
X328606Y157346D01*
X329337Y156785D01*
X330188Y156432D01*
X330602Y156378D01*
Y159342D01*
D02*
G37*
G36*
X322756D02*
X319791D01*
Y156378D01*
X320205Y156432D01*
X321056Y156785D01*
X321787Y157346D01*
X322348Y158077D01*
X322701Y158929D01*
X322756Y159342D01*
D02*
G37*
G36*
X318791D02*
X315827D01*
X315881Y158929D01*
X316234Y158077D01*
X316795Y157346D01*
X317526Y156785D01*
X318377Y156432D01*
X318791Y156378D01*
Y159342D01*
D02*
G37*
G36*
X310945D02*
X307980D01*
Y156378D01*
X308394Y156432D01*
X309245Y156785D01*
X309976Y157346D01*
X310537Y158077D01*
X310890Y158929D01*
X310945Y159342D01*
D02*
G37*
G36*
X306980D02*
X304016D01*
X304070Y158929D01*
X304423Y158077D01*
X304984Y157346D01*
X305715Y156785D01*
X306567Y156432D01*
X306980Y156378D01*
Y159342D01*
D02*
G37*
G36*
X372941Y151496D02*
Y148531D01*
X375905D01*
X375851Y148945D01*
X375498Y149796D01*
X374937Y150528D01*
X374206Y151089D01*
X373355Y151441D01*
X372941Y151496D01*
D02*
G37*
G36*
X371941D02*
X371527Y151441D01*
X370676Y151089D01*
X369945Y150528D01*
X369384Y149796D01*
X369031Y148945D01*
X368976Y148531D01*
X371941D01*
Y151496D01*
D02*
G37*
G36*
X361130D02*
Y148531D01*
X364094D01*
X364040Y148945D01*
X363687Y149796D01*
X363126Y150528D01*
X362395Y151089D01*
X361543Y151441D01*
X361130Y151496D01*
D02*
G37*
G36*
X360130D02*
X359716Y151441D01*
X358865Y151089D01*
X358134Y150528D01*
X357573Y149796D01*
X357220Y148945D01*
X357165Y148531D01*
X360130D01*
Y151496D01*
D02*
G37*
G36*
X349319D02*
Y148531D01*
X352283D01*
X352229Y148945D01*
X351876Y149796D01*
X351315Y150528D01*
X350584Y151089D01*
X349732Y151441D01*
X349319Y151496D01*
D02*
G37*
G36*
X348319D02*
X347905Y151441D01*
X347054Y151089D01*
X346322Y150528D01*
X345761Y149796D01*
X345409Y148945D01*
X345354Y148531D01*
X348319D01*
Y151496D01*
D02*
G37*
G36*
X337508D02*
Y148531D01*
X340472D01*
X340418Y148945D01*
X340065Y149796D01*
X339504Y150528D01*
X338773Y151089D01*
X337921Y151441D01*
X337508Y151496D01*
D02*
G37*
G36*
X336508D02*
X336094Y151441D01*
X335243Y151089D01*
X334511Y150528D01*
X333950Y149796D01*
X333598Y148945D01*
X333543Y148531D01*
X336508D01*
Y151496D01*
D02*
G37*
G36*
X325697D02*
Y148531D01*
X328661D01*
X328607Y148945D01*
X328254Y149796D01*
X327693Y150528D01*
X326962Y151089D01*
X326110Y151441D01*
X325697Y151496D01*
D02*
G37*
G36*
X324697D02*
X324283Y151441D01*
X323432Y151089D01*
X322701Y150528D01*
X322140Y149796D01*
X321787Y148945D01*
X321732Y148531D01*
X324697D01*
Y151496D01*
D02*
G37*
G36*
X313886D02*
Y148531D01*
X316850D01*
X316796Y148945D01*
X316443Y149796D01*
X315882Y150528D01*
X315151Y151089D01*
X314299Y151441D01*
X313886Y151496D01*
D02*
G37*
G36*
X312886D02*
X312472Y151441D01*
X311621Y151089D01*
X310890Y150528D01*
X310329Y149796D01*
X309976Y148945D01*
X309921Y148531D01*
X312886D01*
Y151496D01*
D02*
G37*
G36*
X302075D02*
Y148531D01*
X305039D01*
X304985Y148945D01*
X304632Y149796D01*
X304071Y150528D01*
X303340Y151089D01*
X302488Y151441D01*
X302075Y151496D01*
D02*
G37*
G36*
X301075D02*
X300661Y151441D01*
X299810Y151089D01*
X299078Y150528D01*
X298517Y149796D01*
X298165Y148945D01*
X298110Y148531D01*
X301075D01*
Y151496D01*
D02*
G37*
G36*
X375905Y147531D02*
X372941D01*
Y144567D01*
X373355Y144622D01*
X374206Y144974D01*
X374937Y145535D01*
X375498Y146266D01*
X375851Y147118D01*
X375905Y147531D01*
D02*
G37*
G36*
X371941D02*
X368976D01*
X369031Y147118D01*
X369384Y146266D01*
X369945Y145535D01*
X370676Y144974D01*
X371527Y144622D01*
X371941Y144567D01*
Y147531D01*
D02*
G37*
G36*
X364094D02*
X361130D01*
Y144567D01*
X361543Y144622D01*
X362395Y144974D01*
X363126Y145535D01*
X363687Y146266D01*
X364040Y147118D01*
X364094Y147531D01*
D02*
G37*
G36*
X360130D02*
X357165D01*
X357220Y147118D01*
X357573Y146266D01*
X358134Y145535D01*
X358865Y144974D01*
X359716Y144622D01*
X360130Y144567D01*
Y147531D01*
D02*
G37*
G36*
X352283D02*
X349319D01*
Y144567D01*
X349732Y144622D01*
X350584Y144974D01*
X351315Y145535D01*
X351876Y146266D01*
X352229Y147118D01*
X352283Y147531D01*
D02*
G37*
G36*
X348319D02*
X345354D01*
X345409Y147118D01*
X345761Y146266D01*
X346322Y145535D01*
X347054Y144974D01*
X347905Y144622D01*
X348319Y144567D01*
Y147531D01*
D02*
G37*
G36*
X340472D02*
X337508D01*
Y144567D01*
X337921Y144622D01*
X338773Y144974D01*
X339504Y145535D01*
X340065Y146266D01*
X340418Y147118D01*
X340472Y147531D01*
D02*
G37*
G36*
X336508D02*
X333543D01*
X333598Y147118D01*
X333950Y146266D01*
X334511Y145535D01*
X335243Y144974D01*
X336094Y144622D01*
X336508Y144567D01*
Y147531D01*
D02*
G37*
G36*
X328661D02*
X325697D01*
Y144567D01*
X326110Y144622D01*
X326962Y144974D01*
X327693Y145535D01*
X328254Y146266D01*
X328607Y147118D01*
X328661Y147531D01*
D02*
G37*
G36*
X324697D02*
X321732D01*
X321787Y147118D01*
X322140Y146266D01*
X322701Y145535D01*
X323432Y144974D01*
X324283Y144622D01*
X324697Y144567D01*
Y147531D01*
D02*
G37*
G36*
X316850D02*
X313886D01*
Y144567D01*
X314299Y144622D01*
X315151Y144974D01*
X315882Y145535D01*
X316443Y146266D01*
X316796Y147118D01*
X316850Y147531D01*
D02*
G37*
G36*
X312886D02*
X309921D01*
X309976Y147118D01*
X310329Y146266D01*
X310890Y145535D01*
X311621Y144974D01*
X312472Y144622D01*
X312886Y144567D01*
Y147531D01*
D02*
G37*
G36*
X305039D02*
X302075D01*
Y144567D01*
X302488Y144622D01*
X303340Y144974D01*
X304071Y145535D01*
X304632Y146266D01*
X304985Y147118D01*
X305039Y147531D01*
D02*
G37*
G36*
X301075D02*
X298110D01*
X298165Y147118D01*
X298517Y146266D01*
X299078Y145535D01*
X299810Y144974D01*
X300661Y144622D01*
X301075Y144567D01*
Y147531D01*
D02*
G37*
G36*
X284500Y145464D02*
Y142500D01*
X287464D01*
X287410Y142914D01*
X287057Y143765D01*
X286496Y144496D01*
X285765Y145057D01*
X284914Y145410D01*
X284500Y145464D01*
D02*
G37*
G36*
X283500D02*
X283086Y145410D01*
X282235Y145057D01*
X281504Y144496D01*
X280943Y143765D01*
X280590Y142914D01*
X280536Y142500D01*
X283500D01*
Y145464D01*
D02*
G37*
G36*
X189000Y143964D02*
Y141000D01*
X191964D01*
X191910Y141414D01*
X191557Y142265D01*
X190996Y142996D01*
X190265Y143557D01*
X189414Y143910D01*
X189000Y143964D01*
D02*
G37*
G36*
X188000D02*
X187586Y143910D01*
X186735Y143557D01*
X186004Y142996D01*
X185443Y142265D01*
X185090Y141414D01*
X185036Y141000D01*
X188000D01*
Y143964D01*
D02*
G37*
G36*
X173000D02*
Y141000D01*
X175964D01*
X175910Y141414D01*
X175557Y142265D01*
X174996Y142996D01*
X174265Y143557D01*
X173414Y143910D01*
X173000Y143964D01*
D02*
G37*
G36*
X172000D02*
X171586Y143910D01*
X170735Y143557D01*
X170004Y142996D01*
X169443Y142265D01*
X169090Y141414D01*
X169036Y141000D01*
X172000D01*
Y143964D01*
D02*
G37*
G36*
X226500Y143464D02*
Y140500D01*
X229464D01*
X229410Y140914D01*
X229057Y141765D01*
X228496Y142496D01*
X227765Y143057D01*
X226914Y143410D01*
X226500Y143464D01*
D02*
G37*
G36*
X225500D02*
X225086Y143410D01*
X224235Y143057D01*
X223504Y142496D01*
X222943Y141765D01*
X222590Y140914D01*
X222536Y140500D01*
X225500D01*
Y143464D01*
D02*
G37*
G36*
X213000D02*
Y140500D01*
X215964D01*
X215910Y140914D01*
X215557Y141765D01*
X214996Y142496D01*
X214265Y143057D01*
X213414Y143410D01*
X213000Y143464D01*
D02*
G37*
G36*
X212000D02*
X211586Y143410D01*
X210735Y143057D01*
X210004Y142496D01*
X209443Y141765D01*
X209090Y140914D01*
X209036Y140500D01*
X212000D01*
Y143464D01*
D02*
G37*
G36*
X287464Y141500D02*
X284500D01*
Y138536D01*
X284914Y138590D01*
X285765Y138943D01*
X286496Y139504D01*
X287057Y140235D01*
X287410Y141086D01*
X287464Y141500D01*
D02*
G37*
G36*
X283500D02*
X280536D01*
X280590Y141086D01*
X280943Y140235D01*
X281504Y139504D01*
X282235Y138943D01*
X283086Y138590D01*
X283500Y138536D01*
Y141500D01*
D02*
G37*
G36*
X191964Y140000D02*
X189000D01*
Y137036D01*
X189414Y137090D01*
X190265Y137443D01*
X190996Y138004D01*
X191557Y138735D01*
X191910Y139586D01*
X191964Y140000D01*
D02*
G37*
G36*
X188000D02*
X185036D01*
X185090Y139586D01*
X185443Y138735D01*
X186004Y138004D01*
X186735Y137443D01*
X187586Y137090D01*
X188000Y137036D01*
Y140000D01*
D02*
G37*
G36*
X175964D02*
X173000D01*
Y137036D01*
X173414Y137090D01*
X174265Y137443D01*
X174996Y138004D01*
X175557Y138735D01*
X175910Y139586D01*
X175964Y140000D01*
D02*
G37*
G36*
X172000D02*
X169036D01*
X169090Y139586D01*
X169443Y138735D01*
X170004Y138004D01*
X170735Y137443D01*
X171586Y137090D01*
X172000Y137036D01*
Y140000D01*
D02*
G37*
G36*
X378846Y139685D02*
Y136720D01*
X381811D01*
X381756Y137134D01*
X381403Y137986D01*
X380842Y138717D01*
X380111Y139278D01*
X379260Y139630D01*
X378846Y139685D01*
D02*
G37*
G36*
X377846D02*
X377433Y139630D01*
X376581Y139278D01*
X375850Y138717D01*
X375289Y137986D01*
X374936Y137134D01*
X374882Y136720D01*
X377846D01*
Y139685D01*
D02*
G37*
G36*
X367035D02*
Y136720D01*
X370000D01*
X369945Y137134D01*
X369592Y137986D01*
X369032Y138717D01*
X368300Y139278D01*
X367449Y139630D01*
X367035Y139685D01*
D02*
G37*
G36*
X366035D02*
X365622Y139630D01*
X364770Y139278D01*
X364039Y138717D01*
X363478Y137986D01*
X363125Y137134D01*
X363071Y136720D01*
X366035D01*
Y139685D01*
D02*
G37*
G36*
X355224D02*
Y136720D01*
X358189D01*
X358134Y137134D01*
X357782Y137986D01*
X357221Y138717D01*
X356489Y139278D01*
X355638Y139630D01*
X355224Y139685D01*
D02*
G37*
G36*
X354224D02*
X353811Y139630D01*
X352959Y139278D01*
X352228Y138717D01*
X351667Y137986D01*
X351314Y137134D01*
X351260Y136720D01*
X354224D01*
Y139685D01*
D02*
G37*
G36*
X343413D02*
Y136720D01*
X346378D01*
X346323Y137134D01*
X345971Y137986D01*
X345409Y138717D01*
X344678Y139278D01*
X343827Y139630D01*
X343413Y139685D01*
D02*
G37*
G36*
X342413D02*
X342000Y139630D01*
X341148Y139278D01*
X340417Y138717D01*
X339856Y137986D01*
X339503Y137134D01*
X339449Y136720D01*
X342413D01*
Y139685D01*
D02*
G37*
G36*
X331602D02*
Y136720D01*
X334567D01*
X334512Y137134D01*
X334159Y137986D01*
X333598Y138717D01*
X332867Y139278D01*
X332016Y139630D01*
X331602Y139685D01*
D02*
G37*
G36*
X330602D02*
X330188Y139630D01*
X329337Y139278D01*
X328606Y138717D01*
X328045Y137986D01*
X327692Y137134D01*
X327638Y136720D01*
X330602D01*
Y139685D01*
D02*
G37*
G36*
X319791D02*
Y136720D01*
X322756D01*
X322701Y137134D01*
X322348Y137986D01*
X321787Y138717D01*
X321056Y139278D01*
X320205Y139630D01*
X319791Y139685D01*
D02*
G37*
G36*
X318791D02*
X318377Y139630D01*
X317526Y139278D01*
X316795Y138717D01*
X316234Y137986D01*
X315881Y137134D01*
X315827Y136720D01*
X318791D01*
Y139685D01*
D02*
G37*
G36*
X307980D02*
Y136720D01*
X310945D01*
X310890Y137134D01*
X310537Y137986D01*
X309976Y138717D01*
X309245Y139278D01*
X308394Y139630D01*
X307980Y139685D01*
D02*
G37*
G36*
X306980D02*
X306567Y139630D01*
X305715Y139278D01*
X304984Y138717D01*
X304423Y137986D01*
X304070Y137134D01*
X304016Y136720D01*
X306980D01*
Y139685D01*
D02*
G37*
G36*
X229464Y139500D02*
X226500D01*
Y136536D01*
X226914Y136590D01*
X227765Y136943D01*
X228496Y137504D01*
X229057Y138235D01*
X229410Y139086D01*
X229464Y139500D01*
D02*
G37*
G36*
X225500D02*
X222536D01*
X222590Y139086D01*
X222943Y138235D01*
X223504Y137504D01*
X224235Y136943D01*
X225086Y136590D01*
X225500Y136536D01*
Y139500D01*
D02*
G37*
G36*
X215964D02*
X213000D01*
Y136536D01*
X213414Y136590D01*
X214265Y136943D01*
X214996Y137504D01*
X215557Y138235D01*
X215910Y139086D01*
X215964Y139500D01*
D02*
G37*
G36*
X212000D02*
X209036D01*
X209090Y139086D01*
X209443Y138235D01*
X210004Y137504D01*
X210735Y136943D01*
X211586Y136590D01*
X212000Y136536D01*
Y139500D01*
D02*
G37*
G36*
X381811Y135720D02*
X378846D01*
Y132756D01*
X379260Y132810D01*
X380111Y133163D01*
X380842Y133724D01*
X381403Y134455D01*
X381756Y135307D01*
X381811Y135720D01*
D02*
G37*
G36*
X377846D02*
X374882D01*
X374936Y135307D01*
X375289Y134455D01*
X375850Y133724D01*
X376581Y133163D01*
X377433Y132810D01*
X377846Y132756D01*
Y135720D01*
D02*
G37*
G36*
X370000D02*
X367035D01*
Y132756D01*
X367449Y132810D01*
X368300Y133163D01*
X369032Y133724D01*
X369592Y134455D01*
X369945Y135307D01*
X370000Y135720D01*
D02*
G37*
G36*
X366035D02*
X363071D01*
X363125Y135307D01*
X363478Y134455D01*
X364039Y133724D01*
X364770Y133163D01*
X365622Y132810D01*
X366035Y132756D01*
Y135720D01*
D02*
G37*
G36*
X358189D02*
X355224D01*
Y132756D01*
X355638Y132810D01*
X356489Y133163D01*
X357221Y133724D01*
X357782Y134455D01*
X358134Y135307D01*
X358189Y135720D01*
D02*
G37*
G36*
X354224D02*
X351260D01*
X351314Y135307D01*
X351667Y134455D01*
X352228Y133724D01*
X352959Y133163D01*
X353811Y132810D01*
X354224Y132756D01*
Y135720D01*
D02*
G37*
G36*
X346378D02*
X343413D01*
Y132756D01*
X343827Y132810D01*
X344678Y133163D01*
X345409Y133724D01*
X345971Y134455D01*
X346323Y135307D01*
X346378Y135720D01*
D02*
G37*
G36*
X342413D02*
X339449D01*
X339503Y135307D01*
X339856Y134455D01*
X340417Y133724D01*
X341148Y133163D01*
X342000Y132810D01*
X342413Y132756D01*
Y135720D01*
D02*
G37*
G36*
X334567D02*
X331602D01*
Y132756D01*
X332016Y132810D01*
X332867Y133163D01*
X333598Y133724D01*
X334159Y134455D01*
X334512Y135307D01*
X334567Y135720D01*
D02*
G37*
G36*
X330602D02*
X327638D01*
X327692Y135307D01*
X328045Y134455D01*
X328606Y133724D01*
X329337Y133163D01*
X330188Y132810D01*
X330602Y132756D01*
Y135720D01*
D02*
G37*
G36*
X322756D02*
X319791D01*
Y132756D01*
X320205Y132810D01*
X321056Y133163D01*
X321787Y133724D01*
X322348Y134455D01*
X322701Y135307D01*
X322756Y135720D01*
D02*
G37*
G36*
X318791D02*
X315827D01*
X315881Y135307D01*
X316234Y134455D01*
X316795Y133724D01*
X317526Y133163D01*
X318377Y132810D01*
X318791Y132756D01*
Y135720D01*
D02*
G37*
G36*
X310945D02*
X307980D01*
Y132756D01*
X308394Y132810D01*
X309245Y133163D01*
X309976Y133724D01*
X310537Y134455D01*
X310890Y135307D01*
X310945Y135720D01*
D02*
G37*
G36*
X306980D02*
X304016D01*
X304070Y135307D01*
X304423Y134455D01*
X304984Y133724D01*
X305715Y133163D01*
X306567Y132810D01*
X306980Y132756D01*
Y135720D01*
D02*
G37*
G36*
X134000Y132818D02*
Y129000D01*
X137818D01*
X137735Y129635D01*
X137297Y130692D01*
X136600Y131600D01*
X135692Y132297D01*
X134635Y132735D01*
X134000Y132818D01*
D02*
G37*
G36*
X133000D02*
X132365Y132735D01*
X131308Y132297D01*
X130400Y131600D01*
X129703Y130692D01*
X129265Y129635D01*
X129182Y129000D01*
X133000D01*
Y132818D01*
D02*
G37*
G36*
X372941Y127874D02*
Y124909D01*
X375905D01*
X375851Y125323D01*
X375498Y126174D01*
X374937Y126906D01*
X374206Y127467D01*
X373355Y127819D01*
X372941Y127874D01*
D02*
G37*
G36*
X371941D02*
X371527Y127819D01*
X370676Y127467D01*
X369945Y126906D01*
X369384Y126174D01*
X369031Y125323D01*
X368976Y124909D01*
X371941D01*
Y127874D01*
D02*
G37*
G36*
X361130D02*
Y124909D01*
X364094D01*
X364040Y125323D01*
X363687Y126174D01*
X363126Y126906D01*
X362395Y127467D01*
X361543Y127819D01*
X361130Y127874D01*
D02*
G37*
G36*
X360130D02*
X359716Y127819D01*
X358865Y127467D01*
X358134Y126906D01*
X357573Y126174D01*
X357220Y125323D01*
X357165Y124909D01*
X360130D01*
Y127874D01*
D02*
G37*
G36*
X349319D02*
Y124909D01*
X352283D01*
X352229Y125323D01*
X351876Y126174D01*
X351315Y126906D01*
X350584Y127467D01*
X349732Y127819D01*
X349319Y127874D01*
D02*
G37*
G36*
X348319D02*
X347905Y127819D01*
X347054Y127467D01*
X346322Y126906D01*
X345761Y126174D01*
X345409Y125323D01*
X345354Y124909D01*
X348319D01*
Y127874D01*
D02*
G37*
G36*
X337508D02*
Y124909D01*
X340472D01*
X340418Y125323D01*
X340065Y126174D01*
X339504Y126906D01*
X338773Y127467D01*
X337921Y127819D01*
X337508Y127874D01*
D02*
G37*
G36*
X336508D02*
X336094Y127819D01*
X335243Y127467D01*
X334511Y126906D01*
X333950Y126174D01*
X333598Y125323D01*
X333543Y124909D01*
X336508D01*
Y127874D01*
D02*
G37*
G36*
X253500Y132682D02*
X252418Y132540D01*
X251409Y132122D01*
X250543Y131457D01*
X249878Y130591D01*
X249460Y129582D01*
X249318Y128500D01*
X249460Y127418D01*
X249878Y126409D01*
X250543Y125543D01*
X251409Y124878D01*
X252418Y124460D01*
X253500Y124318D01*
X254582Y124460D01*
X255591Y124878D01*
X256457Y125543D01*
X257122Y126409D01*
X257540Y127418D01*
X257682Y128500D01*
X257540Y129582D01*
X257122Y130591D01*
X256457Y131457D01*
X255591Y132122D01*
X254582Y132540D01*
X253500Y132682D01*
D02*
G37*
G36*
X243500D02*
X242418Y132540D01*
X241409Y132122D01*
X240543Y131457D01*
X239878Y130591D01*
X239460Y129582D01*
X239318Y128500D01*
X239460Y127418D01*
X239878Y126409D01*
X240543Y125543D01*
X241409Y124878D01*
X242418Y124460D01*
X243500Y124318D01*
X244582Y124460D01*
X245591Y124878D01*
X246457Y125543D01*
X247122Y126409D01*
X247540Y127418D01*
X247682Y128500D01*
X247540Y129582D01*
X247122Y130591D01*
X246457Y131457D01*
X245591Y132122D01*
X244582Y132540D01*
X243500Y132682D01*
D02*
G37*
G36*
X233500D02*
X232418Y132540D01*
X231409Y132122D01*
X230543Y131457D01*
X229878Y130591D01*
X229460Y129582D01*
X229318Y128500D01*
X229460Y127418D01*
X229878Y126409D01*
X230543Y125543D01*
X231409Y124878D01*
X232418Y124460D01*
X233500Y124318D01*
X234582Y124460D01*
X235591Y124878D01*
X236457Y125543D01*
X237122Y126409D01*
X237540Y127418D01*
X237682Y128500D01*
X237540Y129582D01*
X237122Y130591D01*
X236457Y131457D01*
X235591Y132122D01*
X234582Y132540D01*
X233500Y132682D01*
D02*
G37*
G36*
X223500D02*
X222418Y132540D01*
X221409Y132122D01*
X220543Y131457D01*
X219878Y130591D01*
X219460Y129582D01*
X219318Y128500D01*
X219460Y127418D01*
X219878Y126409D01*
X220543Y125543D01*
X221409Y124878D01*
X222418Y124460D01*
X223500Y124318D01*
X224582Y124460D01*
X225591Y124878D01*
X226457Y125543D01*
X227122Y126409D01*
X227540Y127418D01*
X227682Y128500D01*
X227540Y129582D01*
X227122Y130591D01*
X226457Y131457D01*
X225591Y132122D01*
X224582Y132540D01*
X223500Y132682D01*
D02*
G37*
G36*
X213500D02*
X212418Y132540D01*
X211409Y132122D01*
X210543Y131457D01*
X209878Y130591D01*
X209460Y129582D01*
X209318Y128500D01*
X209460Y127418D01*
X209878Y126409D01*
X210543Y125543D01*
X211409Y124878D01*
X212418Y124460D01*
X213500Y124318D01*
X214582Y124460D01*
X215591Y124878D01*
X216457Y125543D01*
X217122Y126409D01*
X217540Y127418D01*
X217682Y128500D01*
X217540Y129582D01*
X217122Y130591D01*
X216457Y131457D01*
X215591Y132122D01*
X214582Y132540D01*
X213500Y132682D01*
D02*
G37*
G36*
X203500D02*
X202418Y132540D01*
X201409Y132122D01*
X200543Y131457D01*
X199878Y130591D01*
X199460Y129582D01*
X199318Y128500D01*
X199460Y127418D01*
X199878Y126409D01*
X200543Y125543D01*
X201409Y124878D01*
X202418Y124460D01*
X203500Y124318D01*
X204582Y124460D01*
X205591Y124878D01*
X206457Y125543D01*
X207122Y126409D01*
X207540Y127418D01*
X207682Y128500D01*
X207540Y129582D01*
X207122Y130591D01*
X206457Y131457D01*
X205591Y132122D01*
X204582Y132540D01*
X203500Y132682D01*
D02*
G37*
G36*
X193500D02*
X192418Y132540D01*
X191409Y132122D01*
X190543Y131457D01*
X189878Y130591D01*
X189460Y129582D01*
X189318Y128500D01*
X189460Y127418D01*
X189878Y126409D01*
X190543Y125543D01*
X191409Y124878D01*
X192418Y124460D01*
X193500Y124318D01*
X194582Y124460D01*
X195591Y124878D01*
X196457Y125543D01*
X197122Y126409D01*
X197540Y127418D01*
X197682Y128500D01*
X197540Y129582D01*
X197122Y130591D01*
X196457Y131457D01*
X195591Y132122D01*
X194582Y132540D01*
X193500Y132682D01*
D02*
G37*
G36*
X183500D02*
X182418Y132540D01*
X181409Y132122D01*
X180543Y131457D01*
X179878Y130591D01*
X179460Y129582D01*
X179318Y128500D01*
X179460Y127418D01*
X179878Y126409D01*
X180543Y125543D01*
X181409Y124878D01*
X182418Y124460D01*
X183500Y124318D01*
X184582Y124460D01*
X185591Y124878D01*
X186457Y125543D01*
X187122Y126409D01*
X187540Y127418D01*
X187682Y128500D01*
X187540Y129582D01*
X187122Y130591D01*
X186457Y131457D01*
X185591Y132122D01*
X184582Y132540D01*
X183500Y132682D01*
D02*
G37*
G36*
X173500D02*
X172418Y132540D01*
X171409Y132122D01*
X170543Y131457D01*
X169878Y130591D01*
X169460Y129582D01*
X169318Y128500D01*
X169460Y127418D01*
X169878Y126409D01*
X170543Y125543D01*
X171409Y124878D01*
X172418Y124460D01*
X173500Y124318D01*
X174582Y124460D01*
X175591Y124878D01*
X176457Y125543D01*
X177122Y126409D01*
X177540Y127418D01*
X177682Y128500D01*
X177540Y129582D01*
X177122Y130591D01*
X176457Y131457D01*
X175591Y132122D01*
X174582Y132540D01*
X173500Y132682D01*
D02*
G37*
G36*
X163500D02*
X162418Y132540D01*
X161409Y132122D01*
X160543Y131457D01*
X159878Y130591D01*
X159460Y129582D01*
X159318Y128500D01*
X159460Y127418D01*
X159878Y126409D01*
X160543Y125543D01*
X161409Y124878D01*
X162418Y124460D01*
X163500Y124318D01*
X164582Y124460D01*
X165591Y124878D01*
X166457Y125543D01*
X167122Y126409D01*
X167540Y127418D01*
X167682Y128500D01*
X167540Y129582D01*
X167122Y130591D01*
X166457Y131457D01*
X165591Y132122D01*
X164582Y132540D01*
X163500Y132682D01*
D02*
G37*
G36*
X153500D02*
X152418Y132540D01*
X151409Y132122D01*
X150543Y131457D01*
X149878Y130591D01*
X149460Y129582D01*
X149318Y128500D01*
X149460Y127418D01*
X149878Y126409D01*
X150543Y125543D01*
X151409Y124878D01*
X152418Y124460D01*
X153500Y124318D01*
X154582Y124460D01*
X155591Y124878D01*
X156457Y125543D01*
X157122Y126409D01*
X157540Y127418D01*
X157682Y128500D01*
X157540Y129582D01*
X157122Y130591D01*
X156457Y131457D01*
X155591Y132122D01*
X154582Y132540D01*
X153500Y132682D01*
D02*
G37*
G36*
X143500D02*
X142418Y132540D01*
X141409Y132122D01*
X140543Y131457D01*
X139878Y130591D01*
X139460Y129582D01*
X139318Y128500D01*
X139460Y127418D01*
X139878Y126409D01*
X140543Y125543D01*
X141409Y124878D01*
X142418Y124460D01*
X143500Y124318D01*
X144582Y124460D01*
X145591Y124878D01*
X146457Y125543D01*
X147122Y126409D01*
X147540Y127418D01*
X147682Y128500D01*
X147540Y129582D01*
X147122Y130591D01*
X146457Y131457D01*
X145591Y132122D01*
X144582Y132540D01*
X143500Y132682D01*
D02*
G37*
G36*
X123500D02*
X122418Y132540D01*
X121409Y132122D01*
X120543Y131457D01*
X119878Y130591D01*
X119460Y129582D01*
X119318Y128500D01*
X119460Y127418D01*
X119878Y126409D01*
X120543Y125543D01*
X121409Y124878D01*
X122418Y124460D01*
X123500Y124318D01*
X124582Y124460D01*
X125591Y124878D01*
X126457Y125543D01*
X127122Y126409D01*
X127540Y127418D01*
X127682Y128500D01*
X127540Y129582D01*
X127122Y130591D01*
X126457Y131457D01*
X125591Y132122D01*
X124582Y132540D01*
X123500Y132682D01*
D02*
G37*
G36*
X137818Y128000D02*
X134000D01*
Y124182D01*
X134635Y124265D01*
X135692Y124703D01*
X136600Y125400D01*
X137297Y126308D01*
X137735Y127365D01*
X137818Y128000D01*
D02*
G37*
G36*
X133000D02*
X129182D01*
X129265Y127365D01*
X129703Y126308D01*
X130400Y125400D01*
X131308Y124703D01*
X132365Y124265D01*
X133000Y124182D01*
Y128000D01*
D02*
G37*
G36*
X22000Y132083D02*
X20943Y131944D01*
X19959Y131536D01*
X19113Y130887D01*
X18464Y130042D01*
X18056Y129057D01*
X17917Y128000D01*
X18056Y126943D01*
X18464Y125959D01*
X19113Y125113D01*
X19959Y124464D01*
X20943Y124056D01*
X22000Y123917D01*
X23057Y124056D01*
X24042Y124464D01*
X24887Y125113D01*
X25536Y125959D01*
X25944Y126943D01*
X26083Y128000D01*
X25944Y129057D01*
X25536Y130042D01*
X24887Y130887D01*
X24042Y131536D01*
X23057Y131944D01*
X22000Y132083D01*
D02*
G37*
G36*
X375905Y123909D02*
X372941D01*
Y120945D01*
X373355Y121000D01*
X374206Y121352D01*
X374937Y121913D01*
X375498Y122644D01*
X375851Y123496D01*
X375905Y123909D01*
D02*
G37*
G36*
X371941D02*
X368976D01*
X369031Y123496D01*
X369384Y122644D01*
X369945Y121913D01*
X370676Y121352D01*
X371527Y121000D01*
X371941Y120945D01*
Y123909D01*
D02*
G37*
G36*
X364094D02*
X361130D01*
Y120945D01*
X361543Y121000D01*
X362395Y121352D01*
X363126Y121913D01*
X363687Y122644D01*
X364040Y123496D01*
X364094Y123909D01*
D02*
G37*
G36*
X360130D02*
X357165D01*
X357220Y123496D01*
X357573Y122644D01*
X358134Y121913D01*
X358865Y121352D01*
X359716Y121000D01*
X360130Y120945D01*
Y123909D01*
D02*
G37*
G36*
X352283D02*
X349319D01*
Y120945D01*
X349732Y121000D01*
X350584Y121352D01*
X351315Y121913D01*
X351876Y122644D01*
X352229Y123496D01*
X352283Y123909D01*
D02*
G37*
G36*
X348319D02*
X345354D01*
X345409Y123496D01*
X345761Y122644D01*
X346322Y121913D01*
X347054Y121352D01*
X347905Y121000D01*
X348319Y120945D01*
Y123909D01*
D02*
G37*
G36*
X340472D02*
X337508D01*
Y120945D01*
X337921Y121000D01*
X338773Y121352D01*
X339504Y121913D01*
X340065Y122644D01*
X340418Y123496D01*
X340472Y123909D01*
D02*
G37*
G36*
X336508D02*
X333543D01*
X333598Y123496D01*
X333950Y122644D01*
X334511Y121913D01*
X335243Y121352D01*
X336094Y121000D01*
X336508Y120945D01*
Y123909D01*
D02*
G37*
G36*
X310500Y117464D02*
Y114500D01*
X313464D01*
X313410Y114914D01*
X313057Y115765D01*
X312496Y116496D01*
X311765Y117057D01*
X310914Y117410D01*
X310500Y117464D01*
D02*
G37*
G36*
X309500D02*
X309086Y117410D01*
X308235Y117057D01*
X307504Y116496D01*
X306943Y115765D01*
X306590Y114914D01*
X306536Y114500D01*
X309500D01*
Y117464D01*
D02*
G37*
G36*
X212000Y116964D02*
Y114000D01*
X214964D01*
X214910Y114414D01*
X214557Y115265D01*
X213996Y115996D01*
X213265Y116557D01*
X212414Y116910D01*
X212000Y116964D01*
D02*
G37*
G36*
X211000D02*
X210586Y116910D01*
X209735Y116557D01*
X209004Y115996D01*
X208443Y115265D01*
X208090Y114414D01*
X208036Y114000D01*
X211000D01*
Y116964D01*
D02*
G37*
G36*
X263500Y132682D02*
X262418Y132540D01*
X261409Y132122D01*
X260543Y131457D01*
X259878Y130591D01*
X259460Y129582D01*
X259318Y128500D01*
X259460Y127418D01*
X259878Y126409D01*
X260543Y125543D01*
X261409Y124878D01*
X262418Y124460D01*
X263500Y124318D01*
X264582Y124460D01*
X265591Y124878D01*
X266457Y125543D01*
X267122Y126409D01*
X267481Y127277D01*
X277993D01*
X291121Y114149D01*
X290878Y113743D01*
X290845Y113717D01*
X290000Y113829D01*
X289139Y113715D01*
X288336Y113382D01*
X287646Y112854D01*
X287118Y112164D01*
X286785Y111362D01*
X286671Y110500D01*
X286785Y109639D01*
X287118Y108836D01*
X287646Y108146D01*
X288336Y107617D01*
X289139Y107285D01*
X290000Y107171D01*
X290862Y107285D01*
X291302Y107467D01*
X292421Y106349D01*
X292374Y105878D01*
X291937Y105673D01*
X291664Y105883D01*
X290862Y106215D01*
X290000Y106328D01*
X289139Y106215D01*
X288336Y105883D01*
X287646Y105354D01*
X287118Y104664D01*
X286935Y104224D01*
X258000D01*
X257532Y104130D01*
X257135Y103865D01*
X225450Y72180D01*
X224582Y72540D01*
X223500Y72682D01*
X222418Y72540D01*
X221409Y72122D01*
X220543Y71457D01*
X219878Y70591D01*
X219460Y69582D01*
X219318Y68500D01*
X219460Y67418D01*
X219878Y66409D01*
X220543Y65543D01*
X221409Y64878D01*
X222418Y64460D01*
X223500Y64318D01*
X224582Y64460D01*
X225591Y64878D01*
X226457Y65543D01*
X227122Y66409D01*
X227540Y67418D01*
X227682Y68500D01*
X227540Y69582D01*
X227180Y70450D01*
X258507Y101777D01*
X286935D01*
X287118Y101336D01*
X287434Y100924D01*
X287187Y100424D01*
X274200D01*
X273732Y100330D01*
X273335Y100065D01*
X245450Y72180D01*
X244582Y72540D01*
X243500Y72682D01*
X242418Y72540D01*
X241409Y72122D01*
X240543Y71457D01*
X239878Y70591D01*
X239460Y69582D01*
X239318Y68500D01*
X239460Y67418D01*
X239878Y66409D01*
X240543Y65543D01*
X241409Y64878D01*
X242418Y64460D01*
X243500Y64318D01*
X244582Y64460D01*
X245591Y64878D01*
X246457Y65543D01*
X247122Y66409D01*
X247540Y67418D01*
X247682Y68500D01*
X247540Y69582D01*
X247180Y70450D01*
X274707Y97976D01*
X287110D01*
X287357Y97477D01*
X287118Y97164D01*
X286785Y96362D01*
X286671Y95500D01*
X286785Y94639D01*
X287118Y93836D01*
X287646Y93146D01*
X288336Y92617D01*
X289139Y92285D01*
X289387Y92252D01*
Y91748D01*
X289139Y91715D01*
X288336Y91383D01*
X287646Y90854D01*
X287118Y90164D01*
X286935Y89723D01*
X273500D01*
X273032Y89630D01*
X272635Y89365D01*
X255450Y72180D01*
X254582Y72540D01*
X253500Y72682D01*
X252418Y72540D01*
X251409Y72122D01*
X250543Y71457D01*
X249878Y70591D01*
X249460Y69582D01*
X249318Y68500D01*
X249460Y67418D01*
X249878Y66409D01*
X250543Y65543D01*
X251409Y64878D01*
X252418Y64460D01*
X253500Y64318D01*
X254582Y64460D01*
X255591Y64878D01*
X256457Y65543D01*
X257122Y66409D01*
X257540Y67418D01*
X257682Y68500D01*
X257540Y69582D01*
X257180Y70450D01*
X274007Y87277D01*
X286935D01*
X287118Y86836D01*
X287646Y86146D01*
X288336Y85617D01*
X289139Y85285D01*
X290000Y85172D01*
X290862Y85285D01*
X291664Y85617D01*
X292354Y86146D01*
X292882Y86836D01*
X293215Y87638D01*
X293328Y88500D01*
X293215Y89362D01*
X292882Y90164D01*
X292354Y90854D01*
X291664Y91383D01*
X290862Y91715D01*
X290613Y91748D01*
Y92252D01*
X290862Y92285D01*
X291664Y92617D01*
X292354Y93146D01*
X292882Y93836D01*
X293156Y94495D01*
X293365Y94635D01*
X298865Y100135D01*
X299130Y100532D01*
X299223Y101000D01*
Y109000D01*
X299130Y109468D01*
X298865Y109865D01*
X279365Y129365D01*
X278968Y129630D01*
X278500Y129724D01*
X267481D01*
X267122Y130591D01*
X266457Y131457D01*
X265591Y132122D01*
X264582Y132540D01*
X263500Y132682D01*
D02*
G37*
G36*
X149500Y116464D02*
Y113500D01*
X152464D01*
X152410Y113914D01*
X152057Y114765D01*
X151496Y115496D01*
X150765Y116057D01*
X149914Y116410D01*
X149500Y116464D01*
D02*
G37*
G36*
X148500D02*
X148086Y116410D01*
X147235Y116057D01*
X146504Y115496D01*
X145943Y114765D01*
X145590Y113914D01*
X145536Y113500D01*
X148500D01*
Y116464D01*
D02*
G37*
G36*
X313464Y113500D02*
X310500D01*
Y110536D01*
X310914Y110590D01*
X311765Y110943D01*
X312496Y111504D01*
X313057Y112235D01*
X313410Y113086D01*
X313464Y113500D01*
D02*
G37*
G36*
X309500D02*
X306536D01*
X306590Y113086D01*
X306943Y112235D01*
X307504Y111504D01*
X308235Y110943D01*
X309086Y110590D01*
X309500Y110536D01*
Y113500D01*
D02*
G37*
G36*
X214964Y113000D02*
X212000D01*
Y110036D01*
X212414Y110090D01*
X213265Y110443D01*
X213996Y111004D01*
X214557Y111735D01*
X214910Y112586D01*
X214964Y113000D01*
D02*
G37*
G36*
X211000D02*
X208036D01*
X208090Y112586D01*
X208443Y111735D01*
X209004Y111004D01*
X209735Y110443D01*
X210586Y110090D01*
X211000Y110036D01*
Y113000D01*
D02*
G37*
G36*
X152464Y112500D02*
X149500D01*
Y109536D01*
X149914Y109590D01*
X150765Y109943D01*
X151496Y110504D01*
X152057Y111235D01*
X152410Y112086D01*
X152464Y112500D01*
D02*
G37*
G36*
X148500D02*
X145536D01*
X145590Y112086D01*
X145943Y111235D01*
X146504Y110504D01*
X147235Y109943D01*
X148086Y109590D01*
X148500Y109536D01*
Y112500D01*
D02*
G37*
G36*
X337000Y111964D02*
Y109000D01*
X339964D01*
X339910Y109414D01*
X339557Y110265D01*
X338996Y110996D01*
X338265Y111557D01*
X337414Y111910D01*
X337000Y111964D01*
D02*
G37*
G36*
X336000D02*
X335586Y111910D01*
X334735Y111557D01*
X334004Y110996D01*
X333443Y110265D01*
X333090Y109414D01*
X333036Y109000D01*
X336000D01*
Y111964D01*
D02*
G37*
G36*
X366498Y114133D02*
Y108925D01*
X371706D01*
X371575Y109920D01*
X370999Y111312D01*
X370081Y112508D01*
X368885Y113426D01*
X367493Y114002D01*
X366498Y114133D01*
D02*
G37*
G36*
X385498D02*
X384504Y114002D01*
X383112Y113426D01*
X381916Y112508D01*
X380998Y111312D01*
X380421Y109920D01*
X380290Y108925D01*
X385498D01*
Y114133D01*
D02*
G37*
G36*
X365498D02*
X364504Y114002D01*
X363111Y113426D01*
X361916Y112508D01*
X360998Y111312D01*
X360421Y109920D01*
X360290Y108925D01*
X365498D01*
Y114133D01*
D02*
G37*
G36*
X22500Y112219D02*
Y108500D01*
X26219D01*
X26139Y109109D01*
X25711Y110142D01*
X25030Y111030D01*
X24142Y111711D01*
X23109Y112139D01*
X22500Y112219D01*
D02*
G37*
G36*
X21500D02*
X20891Y112139D01*
X19858Y111711D01*
X18970Y111030D01*
X18289Y110142D01*
X17861Y109109D01*
X17781Y108500D01*
X21500D01*
Y112219D01*
D02*
G37*
G36*
X339964Y108000D02*
X337000D01*
Y105036D01*
X337414Y105090D01*
X338265Y105443D01*
X338996Y106004D01*
X339557Y106735D01*
X339910Y107586D01*
X339964Y108000D01*
D02*
G37*
G36*
X336000D02*
X333036D01*
X333090Y107586D01*
X333443Y106735D01*
X334004Y106004D01*
X334735Y105443D01*
X335586Y105090D01*
X336000Y105036D01*
Y108000D01*
D02*
G37*
G36*
X87048Y137298D02*
X53952D01*
Y104202D01*
X87048D01*
Y137298D01*
D02*
G37*
G36*
X26219Y107500D02*
X22500D01*
Y103781D01*
X23109Y103861D01*
X24142Y104289D01*
X25030Y104970D01*
X25711Y105858D01*
X26139Y106891D01*
X26219Y107500D01*
D02*
G37*
G36*
X21500D02*
X17781D01*
X17861Y106891D01*
X18289Y105858D01*
X18970Y104970D01*
X19858Y104289D01*
X20891Y103861D01*
X21500Y103781D01*
Y107500D01*
D02*
G37*
G36*
X371706Y107925D02*
X366498D01*
Y102717D01*
X367493Y102848D01*
X368885Y103425D01*
X370081Y104342D01*
X370999Y105538D01*
X371575Y106931D01*
X371706Y107925D01*
D02*
G37*
G36*
X385498D02*
X380290D01*
X380421Y106931D01*
X380998Y105538D01*
X381916Y104342D01*
X383112Y103425D01*
X384504Y102848D01*
X385498Y102717D01*
Y107925D01*
D02*
G37*
G36*
X365498D02*
X360290D01*
X360421Y106931D01*
X360998Y105538D01*
X361916Y104342D01*
X363111Y103425D01*
X364504Y102848D01*
X365498Y102717D01*
Y107925D01*
D02*
G37*
G36*
X185500Y102464D02*
Y99500D01*
X188464D01*
X188410Y99914D01*
X188057Y100765D01*
X187496Y101496D01*
X186765Y102057D01*
X185914Y102410D01*
X185500Y102464D01*
D02*
G37*
G36*
X184500D02*
X184086Y102410D01*
X183235Y102057D01*
X182504Y101496D01*
X181943Y100765D01*
X181590Y99914D01*
X181536Y99500D01*
X184500D01*
Y102464D01*
D02*
G37*
G36*
X117500Y100464D02*
Y97500D01*
X120464D01*
X120410Y97914D01*
X120057Y98765D01*
X119496Y99496D01*
X118765Y100057D01*
X117914Y100410D01*
X117500Y100464D01*
D02*
G37*
G36*
X116500D02*
X116086Y100410D01*
X115235Y100057D01*
X114504Y99496D01*
X113943Y98765D01*
X113590Y97914D01*
X113536Y97500D01*
X116500D01*
Y100464D01*
D02*
G37*
G36*
X127000Y99464D02*
Y96500D01*
X129964D01*
X129910Y96914D01*
X129557Y97765D01*
X128996Y98496D01*
X128265Y99057D01*
X127414Y99410D01*
X127000Y99464D01*
D02*
G37*
G36*
X126000D02*
X125586Y99410D01*
X124735Y99057D01*
X124004Y98496D01*
X123443Y97765D01*
X123090Y96914D01*
X123036Y96500D01*
X126000D01*
Y99464D01*
D02*
G37*
G36*
X188464Y98500D02*
X185500D01*
Y95536D01*
X185914Y95590D01*
X186765Y95943D01*
X187496Y96504D01*
X188057Y97235D01*
X188410Y98086D01*
X188464Y98500D01*
D02*
G37*
G36*
X184500D02*
X181536D01*
X181590Y98086D01*
X181943Y97235D01*
X182504Y96504D01*
X183235Y95943D01*
X184086Y95590D01*
X184500Y95536D01*
Y98500D01*
D02*
G37*
G36*
X120464Y96500D02*
X117500D01*
Y93536D01*
X117914Y93590D01*
X118765Y93943D01*
X119496Y94504D01*
X120057Y95235D01*
X120410Y96086D01*
X120464Y96500D01*
D02*
G37*
G36*
X116500D02*
X113536D01*
X113590Y96086D01*
X113943Y95235D01*
X114504Y94504D01*
X115235Y93943D01*
X116086Y93590D01*
X116500Y93536D01*
Y96500D01*
D02*
G37*
G36*
X375998Y103997D02*
X374556Y103807D01*
X373212Y103251D01*
X372058Y102365D01*
X371173Y101211D01*
X370616Y99867D01*
X370426Y98425D01*
X370616Y96983D01*
X371173Y95639D01*
X372058Y94485D01*
X373212Y93600D01*
X374556Y93043D01*
X375998Y92853D01*
X377441Y93043D01*
X378784Y93600D01*
X379939Y94485D01*
X380824Y95639D01*
X381381Y96983D01*
X381571Y98425D01*
X381381Y99867D01*
X380824Y101211D01*
X379939Y102365D01*
X378784Y103251D01*
X377441Y103807D01*
X375998Y103997D01*
D02*
G37*
G36*
X129964Y95500D02*
X127000D01*
Y92536D01*
X127414Y92590D01*
X128265Y92943D01*
X128996Y93504D01*
X129557Y94235D01*
X129910Y95086D01*
X129964Y95500D01*
D02*
G37*
G36*
X126000D02*
X123036D01*
X123090Y95086D01*
X123443Y94235D01*
X124004Y93504D01*
X124735Y92943D01*
X125586Y92590D01*
X126000Y92536D01*
Y95500D01*
D02*
G37*
G36*
X212500Y93464D02*
Y90500D01*
X215464D01*
X215410Y90914D01*
X215057Y91765D01*
X214496Y92496D01*
X213765Y93057D01*
X212914Y93410D01*
X212500Y93464D01*
D02*
G37*
G36*
X211500D02*
X211086Y93410D01*
X210235Y93057D01*
X209504Y92496D01*
X208943Y91765D01*
X208590Y90914D01*
X208536Y90500D01*
X211500D01*
Y93464D01*
D02*
G37*
G36*
X366498Y94133D02*
Y88925D01*
X371706D01*
X371575Y89920D01*
X370999Y91312D01*
X370081Y92508D01*
X368885Y93426D01*
X367493Y94002D01*
X366498Y94133D01*
D02*
G37*
G36*
X385498D02*
X384504Y94002D01*
X383112Y93426D01*
X381916Y92508D01*
X380998Y91312D01*
X380421Y89920D01*
X380290Y88925D01*
X385498D01*
Y94133D01*
D02*
G37*
G36*
X365498D02*
X364504Y94002D01*
X363111Y93426D01*
X361916Y92508D01*
X360998Y91312D01*
X360421Y89920D01*
X360290Y88925D01*
X365498D01*
Y94133D01*
D02*
G37*
G36*
X215464Y89500D02*
X212500D01*
Y86536D01*
X212914Y86590D01*
X213765Y86943D01*
X214496Y87504D01*
X215057Y88235D01*
X215410Y89086D01*
X215464Y89500D01*
D02*
G37*
G36*
X211500D02*
X208536D01*
X208590Y89086D01*
X208943Y88235D01*
X209504Y87504D01*
X210235Y86943D01*
X211086Y86590D01*
X211500Y86536D01*
Y89500D01*
D02*
G37*
G36*
X371706Y87925D02*
X366498D01*
Y82717D01*
X367493Y82848D01*
X368885Y83425D01*
X370081Y84342D01*
X370999Y85538D01*
X371575Y86931D01*
X371706Y87925D01*
D02*
G37*
G36*
X385498D02*
X380290D01*
X380421Y86931D01*
X380998Y85538D01*
X381916Y84342D01*
X383112Y83425D01*
X384504Y82848D01*
X385498Y82717D01*
Y87925D01*
D02*
G37*
G36*
X365498D02*
X360290D01*
X360421Y86931D01*
X360998Y85538D01*
X361916Y84342D01*
X363111Y83425D01*
X364504Y82848D01*
X365498Y82717D01*
Y87925D01*
D02*
G37*
G36*
X299000Y81464D02*
Y78500D01*
X301964D01*
X301910Y78914D01*
X301557Y79765D01*
X300996Y80496D01*
X300265Y81057D01*
X299414Y81410D01*
X299000Y81464D01*
D02*
G37*
G36*
X298000D02*
X297586Y81410D01*
X296735Y81057D01*
X296004Y80496D01*
X295443Y79765D01*
X295090Y78914D01*
X295036Y78500D01*
X298000D01*
Y81464D01*
D02*
G37*
G36*
X290000Y84329D02*
X289139Y84215D01*
X288336Y83883D01*
X287646Y83354D01*
X287118Y82664D01*
X286785Y81862D01*
X286671Y81000D01*
X286785Y80138D01*
X287118Y79336D01*
X287329Y79060D01*
X277993Y69723D01*
X267481D01*
X267122Y70591D01*
X266457Y71457D01*
X265591Y72122D01*
X264582Y72540D01*
X263500Y72682D01*
X262418Y72540D01*
X261409Y72122D01*
X260543Y71457D01*
X259878Y70591D01*
X259460Y69582D01*
X259318Y68500D01*
X259460Y67418D01*
X259878Y66409D01*
X260543Y65543D01*
X261409Y64878D01*
X262418Y64460D01*
X263500Y64318D01*
X264582Y64460D01*
X265591Y64878D01*
X266457Y65543D01*
X267122Y66409D01*
X267481Y67277D01*
X278500D01*
X278968Y67370D01*
X279365Y67635D01*
X289471Y77741D01*
X290000Y77671D01*
X290862Y77785D01*
X291664Y78117D01*
X292354Y78646D01*
X292882Y79336D01*
X293215Y80138D01*
X293328Y81000D01*
X293215Y81862D01*
X292882Y82664D01*
X292354Y83354D01*
X291664Y83883D01*
X290862Y84215D01*
X290000Y84329D01*
D02*
G37*
G36*
X22500Y84583D02*
X21443Y84444D01*
X20459Y84036D01*
X19613Y83387D01*
X18964Y82542D01*
X18556Y81557D01*
X18417Y80500D01*
X18556Y79443D01*
X18964Y78458D01*
X19613Y77613D01*
X20459Y76964D01*
X21443Y76556D01*
X22500Y76417D01*
X23557Y76556D01*
X24542Y76964D01*
X25387Y77613D01*
X26036Y78458D01*
X26444Y79443D01*
X26583Y80500D01*
X26444Y81557D01*
X26036Y82542D01*
X25387Y83387D01*
X24542Y84036D01*
X23557Y84444D01*
X22500Y84583D01*
D02*
G37*
G36*
X301964Y77500D02*
X299000D01*
Y74536D01*
X299414Y74590D01*
X300265Y74943D01*
X300996Y75504D01*
X301557Y76235D01*
X301910Y77086D01*
X301964Y77500D01*
D02*
G37*
G36*
X298000D02*
X295036D01*
X295090Y77086D01*
X295443Y76235D01*
X296004Y75504D01*
X296735Y74943D01*
X297586Y74590D01*
X298000Y74536D01*
Y77500D01*
D02*
G37*
G36*
X331000Y72464D02*
Y69500D01*
X333964D01*
X333910Y69914D01*
X333557Y70765D01*
X332996Y71496D01*
X332265Y72057D01*
X331414Y72410D01*
X331000Y72464D01*
D02*
G37*
G36*
X330000D02*
X329586Y72410D01*
X328735Y72057D01*
X328004Y71496D01*
X327443Y70765D01*
X327090Y69914D01*
X327036Y69500D01*
X330000D01*
Y72464D01*
D02*
G37*
G36*
X154000Y72818D02*
Y69000D01*
X157818D01*
X157735Y69635D01*
X157297Y70692D01*
X156600Y71600D01*
X155692Y72297D01*
X154635Y72735D01*
X154000Y72818D01*
D02*
G37*
G36*
X153000D02*
X152365Y72735D01*
X151308Y72297D01*
X150400Y71600D01*
X149703Y70692D01*
X149265Y69635D01*
X149182Y69000D01*
X153000D01*
Y72818D01*
D02*
G37*
G36*
X203500Y72682D02*
X202418Y72540D01*
X201409Y72122D01*
X200543Y71457D01*
X199878Y70591D01*
X199460Y69582D01*
X199340Y68668D01*
X199096Y68509D01*
X198966Y68462D01*
X198825Y68447D01*
X198515Y68654D01*
X198047Y68747D01*
X197650D01*
X197540Y69582D01*
X197122Y70591D01*
X196457Y71457D01*
X195591Y72122D01*
X194582Y72540D01*
X193500Y72682D01*
X192418Y72540D01*
X191409Y72122D01*
X190543Y71457D01*
X189878Y70591D01*
X189460Y69582D01*
X189318Y68500D01*
X189460Y67418D01*
X189878Y66409D01*
X190543Y65543D01*
X191409Y64878D01*
X192418Y64460D01*
X193500Y64318D01*
X194582Y64460D01*
X195591Y64878D01*
X196457Y65543D01*
X197039Y66300D01*
X197540D01*
X204705Y59135D01*
X205102Y58870D01*
X205570Y58776D01*
X232993D01*
X271135Y20635D01*
X271532Y20370D01*
X272000Y20277D01*
X284350D01*
Y17850D01*
X291650D01*
Y25150D01*
X284350D01*
Y22724D01*
X272507D01*
X259939Y35291D01*
X260048Y35838D01*
X260077Y35861D01*
X260500Y35776D01*
X274229D01*
X274399Y35276D01*
X274146Y35083D01*
X273585Y34352D01*
X273233Y33500D01*
X273178Y33086D01*
X280107D01*
X280052Y33500D01*
X279700Y34352D01*
X279139Y35083D01*
X278886Y35276D01*
X279056Y35776D01*
X284350D01*
Y33350D01*
X291650D01*
Y40650D01*
X284350D01*
Y38223D01*
X261007D01*
X235865Y63365D01*
X235468Y63630D01*
X235000Y63723D01*
X210007D01*
X207180Y66550D01*
X207540Y67418D01*
X207682Y68500D01*
X207540Y69582D01*
X207122Y70591D01*
X206457Y71457D01*
X205591Y72122D01*
X204582Y72540D01*
X203500Y72682D01*
D02*
G37*
G36*
X183500D02*
X182418Y72540D01*
X181409Y72122D01*
X180543Y71457D01*
X179878Y70591D01*
X179460Y69582D01*
X179340Y68668D01*
X179096Y68509D01*
X178966Y68462D01*
X178825Y68447D01*
X178515Y68654D01*
X178047Y68747D01*
X177650D01*
X177540Y69582D01*
X177122Y70591D01*
X176457Y71457D01*
X175591Y72122D01*
X174582Y72540D01*
X173500Y72682D01*
X172418Y72540D01*
X171409Y72122D01*
X170543Y71457D01*
X169878Y70591D01*
X169460Y69582D01*
X169318Y68500D01*
X169460Y67418D01*
X169878Y66409D01*
X170543Y65543D01*
X171409Y64878D01*
X172418Y64460D01*
X173500Y64318D01*
X174582Y64460D01*
X175591Y64878D01*
X176457Y65543D01*
X177039Y66300D01*
X177540D01*
X187705Y56135D01*
X188102Y55870D01*
X188570Y55777D01*
X231493D01*
X282135Y5135D01*
X282532Y4870D01*
X283000Y4777D01*
X284350D01*
Y2350D01*
X291650D01*
Y9650D01*
X284350D01*
Y7224D01*
X283507D01*
X232865Y57865D01*
X232468Y58130D01*
X232000Y58223D01*
X189077D01*
X183447Y63854D01*
X183668Y64340D01*
X184582Y64460D01*
X185591Y64878D01*
X186457Y65543D01*
X187122Y66409D01*
X187540Y67418D01*
X187682Y68500D01*
X187540Y69582D01*
X187122Y70591D01*
X186457Y71457D01*
X185591Y72122D01*
X184582Y72540D01*
X183500Y72682D01*
D02*
G37*
G36*
X378846Y68819D02*
Y65854D01*
X381811D01*
X381756Y66268D01*
X381403Y67119D01*
X380842Y67851D01*
X380111Y68411D01*
X379260Y68764D01*
X378846Y68819D01*
D02*
G37*
G36*
X377846D02*
X377433Y68764D01*
X376581Y68411D01*
X375850Y67851D01*
X375289Y67119D01*
X374936Y66268D01*
X374882Y65854D01*
X377846D01*
Y68819D01*
D02*
G37*
G36*
X367035D02*
Y65854D01*
X370000D01*
X369945Y66268D01*
X369592Y67119D01*
X369032Y67851D01*
X368300Y68411D01*
X367449Y68764D01*
X367035Y68819D01*
D02*
G37*
G36*
X366035D02*
X365622Y68764D01*
X364770Y68411D01*
X364039Y67851D01*
X363478Y67119D01*
X363125Y66268D01*
X363071Y65854D01*
X366035D01*
Y68819D01*
D02*
G37*
G36*
X355224D02*
Y65854D01*
X358189D01*
X358134Y66268D01*
X357782Y67119D01*
X357221Y67851D01*
X356489Y68411D01*
X355638Y68764D01*
X355224Y68819D01*
D02*
G37*
G36*
X354224D02*
X353811Y68764D01*
X352959Y68411D01*
X352228Y67851D01*
X351667Y67119D01*
X351314Y66268D01*
X351260Y65854D01*
X354224D01*
Y68819D01*
D02*
G37*
G36*
X343413D02*
Y65854D01*
X346378D01*
X346323Y66268D01*
X345971Y67119D01*
X345409Y67851D01*
X344678Y68411D01*
X343827Y68764D01*
X343413Y68819D01*
D02*
G37*
G36*
X342413D02*
X342000Y68764D01*
X341148Y68411D01*
X340417Y67851D01*
X339856Y67119D01*
X339503Y66268D01*
X339449Y65854D01*
X342413D01*
Y68819D01*
D02*
G37*
G36*
X333964Y68500D02*
X331000D01*
Y65536D01*
X331414Y65590D01*
X332265Y65943D01*
X332996Y66504D01*
X333557Y67235D01*
X333910Y68086D01*
X333964Y68500D01*
D02*
G37*
G36*
X330000D02*
X327036D01*
X327090Y68086D01*
X327443Y67235D01*
X328004Y66504D01*
X328735Y65943D01*
X329586Y65590D01*
X330000Y65536D01*
Y68500D01*
D02*
G37*
G36*
X127647Y72646D02*
X119353D01*
Y64354D01*
X127647D01*
Y72646D01*
D02*
G37*
G36*
X213500Y72682D02*
X212418Y72540D01*
X211409Y72122D01*
X210543Y71457D01*
X209878Y70591D01*
X209460Y69582D01*
X209318Y68500D01*
X209460Y67418D01*
X209878Y66409D01*
X210543Y65543D01*
X211409Y64878D01*
X212418Y64460D01*
X213500Y64318D01*
X214582Y64460D01*
X215591Y64878D01*
X216457Y65543D01*
X217122Y66409D01*
X217540Y67418D01*
X217682Y68500D01*
X217540Y69582D01*
X217122Y70591D01*
X216457Y71457D01*
X215591Y72122D01*
X214582Y72540D01*
X213500Y72682D01*
D02*
G37*
G36*
X163500D02*
X162418Y72540D01*
X161409Y72122D01*
X160543Y71457D01*
X159878Y70591D01*
X159460Y69582D01*
X159318Y68500D01*
X159460Y67418D01*
X159878Y66409D01*
X160543Y65543D01*
X161409Y64878D01*
X162418Y64460D01*
X163500Y64318D01*
X164582Y64460D01*
X165591Y64878D01*
X166457Y65543D01*
X167122Y66409D01*
X167540Y67418D01*
X167682Y68500D01*
X167540Y69582D01*
X167122Y70591D01*
X166457Y71457D01*
X165591Y72122D01*
X164582Y72540D01*
X163500Y72682D01*
D02*
G37*
G36*
X143500D02*
X142418Y72540D01*
X141409Y72122D01*
X140543Y71457D01*
X139878Y70591D01*
X139460Y69582D01*
X139318Y68500D01*
X139460Y67418D01*
X139878Y66409D01*
X140543Y65543D01*
X141409Y64878D01*
X142418Y64460D01*
X143500Y64318D01*
X144582Y64460D01*
X145591Y64878D01*
X146457Y65543D01*
X147122Y66409D01*
X147540Y67418D01*
X147682Y68500D01*
X147540Y69582D01*
X147122Y70591D01*
X146457Y71457D01*
X145591Y72122D01*
X144582Y72540D01*
X143500Y72682D01*
D02*
G37*
G36*
X133500D02*
X132418Y72540D01*
X131409Y72122D01*
X130543Y71457D01*
X129878Y70591D01*
X129460Y69582D01*
X129318Y68500D01*
X129460Y67418D01*
X129878Y66409D01*
X130543Y65543D01*
X131409Y64878D01*
X132418Y64460D01*
X133500Y64318D01*
X134582Y64460D01*
X135591Y64878D01*
X136457Y65543D01*
X137122Y66409D01*
X137540Y67418D01*
X137682Y68500D01*
X137540Y69582D01*
X137122Y70591D01*
X136457Y71457D01*
X135591Y72122D01*
X134582Y72540D01*
X133500Y72682D01*
D02*
G37*
G36*
X157818Y68000D02*
X154000D01*
Y64182D01*
X154635Y64265D01*
X155692Y64703D01*
X156600Y65400D01*
X157297Y66308D01*
X157735Y67365D01*
X157818Y68000D01*
D02*
G37*
G36*
X153000D02*
X149182D01*
X149265Y67365D01*
X149703Y66308D01*
X150400Y65400D01*
X151308Y64703D01*
X152365Y64265D01*
X153000Y64182D01*
Y68000D01*
D02*
G37*
G36*
X381811Y64854D02*
X378846D01*
Y61890D01*
X379260Y61944D01*
X380111Y62297D01*
X380842Y62858D01*
X381403Y63589D01*
X381756Y64441D01*
X381811Y64854D01*
D02*
G37*
G36*
X377846D02*
X374882D01*
X374936Y64441D01*
X375289Y63589D01*
X375850Y62858D01*
X376581Y62297D01*
X377433Y61944D01*
X377846Y61890D01*
Y64854D01*
D02*
G37*
G36*
X370000D02*
X367035D01*
Y61890D01*
X367449Y61944D01*
X368300Y62297D01*
X369032Y62858D01*
X369592Y63589D01*
X369945Y64441D01*
X370000Y64854D01*
D02*
G37*
G36*
X366035D02*
X363071D01*
X363125Y64441D01*
X363478Y63589D01*
X364039Y62858D01*
X364770Y62297D01*
X365622Y61944D01*
X366035Y61890D01*
Y64854D01*
D02*
G37*
G36*
X358189D02*
X355224D01*
Y61890D01*
X355638Y61944D01*
X356489Y62297D01*
X357221Y62858D01*
X357782Y63589D01*
X358134Y64441D01*
X358189Y64854D01*
D02*
G37*
G36*
X354224D02*
X351260D01*
X351314Y64441D01*
X351667Y63589D01*
X352228Y62858D01*
X352959Y62297D01*
X353811Y61944D01*
X354224Y61890D01*
Y64854D01*
D02*
G37*
G36*
X346378D02*
X343413D01*
Y61890D01*
X343827Y61944D01*
X344678Y62297D01*
X345409Y62858D01*
X345971Y63589D01*
X346323Y64441D01*
X346378Y64854D01*
D02*
G37*
G36*
X342413D02*
X339449D01*
X339503Y64441D01*
X339856Y63589D01*
X340417Y62858D01*
X341148Y62297D01*
X342000Y61944D01*
X342413Y61890D01*
Y64854D01*
D02*
G37*
G36*
X23000Y64719D02*
Y61000D01*
X26719D01*
X26639Y61609D01*
X26211Y62642D01*
X25530Y63530D01*
X24642Y64211D01*
X23609Y64639D01*
X23000Y64719D01*
D02*
G37*
G36*
X22000D02*
X21391Y64639D01*
X20358Y64211D01*
X19470Y63530D01*
X18789Y62642D01*
X18361Y61609D01*
X18281Y61000D01*
X22000D01*
Y64719D01*
D02*
G37*
G36*
X26719Y60000D02*
X23000D01*
Y56281D01*
X23609Y56361D01*
X24642Y56789D01*
X25530Y57470D01*
X26211Y58358D01*
X26639Y59391D01*
X26719Y60000D01*
D02*
G37*
G36*
X22000D02*
X18281D01*
X18361Y59391D01*
X18789Y58358D01*
X19470Y57470D01*
X20358Y56789D01*
X21391Y56361D01*
X22000Y56281D01*
Y60000D01*
D02*
G37*
G36*
X384752Y57008D02*
Y54043D01*
X387716D01*
X387662Y54457D01*
X387309Y55308D01*
X386748Y56040D01*
X386017Y56600D01*
X385166Y56953D01*
X384752Y57008D01*
D02*
G37*
G36*
X383752D02*
X383338Y56953D01*
X382487Y56600D01*
X381756Y56040D01*
X381195Y55308D01*
X380842Y54457D01*
X380787Y54043D01*
X383752D01*
Y57008D01*
D02*
G37*
G36*
X372941D02*
Y54043D01*
X375905D01*
X375851Y54457D01*
X375498Y55308D01*
X374937Y56040D01*
X374206Y56600D01*
X373355Y56953D01*
X372941Y57008D01*
D02*
G37*
G36*
X371941D02*
X371527Y56953D01*
X370676Y56600D01*
X369945Y56040D01*
X369384Y55308D01*
X369031Y54457D01*
X368976Y54043D01*
X371941D01*
Y57008D01*
D02*
G37*
G36*
X361130D02*
Y54043D01*
X364094D01*
X364040Y54457D01*
X363687Y55308D01*
X363126Y56040D01*
X362395Y56600D01*
X361543Y56953D01*
X361130Y57008D01*
D02*
G37*
G36*
X360130D02*
X359716Y56953D01*
X358865Y56600D01*
X358134Y56040D01*
X357573Y55308D01*
X357220Y54457D01*
X357165Y54043D01*
X360130D01*
Y57008D01*
D02*
G37*
G36*
X349319D02*
Y54043D01*
X352283D01*
X352229Y54457D01*
X351876Y55308D01*
X351315Y56040D01*
X350584Y56600D01*
X349732Y56953D01*
X349319Y57008D01*
D02*
G37*
G36*
X348319D02*
X347905Y56953D01*
X347054Y56600D01*
X346322Y56040D01*
X345761Y55308D01*
X345409Y54457D01*
X345354Y54043D01*
X348319D01*
Y57008D01*
D02*
G37*
G36*
X337508D02*
Y54043D01*
X340472D01*
X340418Y54457D01*
X340065Y55308D01*
X339504Y56040D01*
X338773Y56600D01*
X337921Y56953D01*
X337508Y57008D01*
D02*
G37*
G36*
X336508D02*
X336094Y56953D01*
X335243Y56600D01*
X334511Y56040D01*
X333950Y55308D01*
X333598Y54457D01*
X333543Y54043D01*
X336508D01*
Y57008D01*
D02*
G37*
G36*
X325697D02*
Y54043D01*
X328661D01*
X328607Y54457D01*
X328254Y55308D01*
X327693Y56040D01*
X326962Y56600D01*
X326110Y56953D01*
X325697Y57008D01*
D02*
G37*
G36*
X324697D02*
X324283Y56953D01*
X323432Y56600D01*
X322701Y56040D01*
X322140Y55308D01*
X321787Y54457D01*
X321732Y54043D01*
X324697D01*
Y57008D01*
D02*
G37*
G36*
X308500Y56318D02*
Y53000D01*
X311818D01*
X311751Y53505D01*
X311363Y54442D01*
X310746Y55246D01*
X309942Y55863D01*
X309005Y56251D01*
X308500Y56318D01*
D02*
G37*
G36*
X307500D02*
X306995Y56251D01*
X306058Y55863D01*
X305254Y55246D01*
X304637Y54442D01*
X304249Y53505D01*
X304182Y53000D01*
X307500D01*
Y56318D01*
D02*
G37*
G36*
X387716Y53043D02*
X384752D01*
Y50079D01*
X385166Y50133D01*
X386017Y50486D01*
X386748Y51047D01*
X387309Y51778D01*
X387662Y52630D01*
X387716Y53043D01*
D02*
G37*
G36*
X383752D02*
X380787D01*
X380842Y52630D01*
X381195Y51778D01*
X381756Y51047D01*
X382487Y50486D01*
X383338Y50133D01*
X383752Y50079D01*
Y53043D01*
D02*
G37*
G36*
X375905D02*
X372941D01*
Y50079D01*
X373355Y50133D01*
X374206Y50486D01*
X374937Y51047D01*
X375498Y51778D01*
X375851Y52630D01*
X375905Y53043D01*
D02*
G37*
G36*
X371941D02*
X368976D01*
X369031Y52630D01*
X369384Y51778D01*
X369945Y51047D01*
X370676Y50486D01*
X371527Y50133D01*
X371941Y50079D01*
Y53043D01*
D02*
G37*
G36*
X364094D02*
X361130D01*
Y50079D01*
X361543Y50133D01*
X362395Y50486D01*
X363126Y51047D01*
X363687Y51778D01*
X364040Y52630D01*
X364094Y53043D01*
D02*
G37*
G36*
X360130D02*
X357165D01*
X357220Y52630D01*
X357573Y51778D01*
X358134Y51047D01*
X358865Y50486D01*
X359716Y50133D01*
X360130Y50079D01*
Y53043D01*
D02*
G37*
G36*
X352283D02*
X349319D01*
Y50079D01*
X349732Y50133D01*
X350584Y50486D01*
X351315Y51047D01*
X351876Y51778D01*
X352229Y52630D01*
X352283Y53043D01*
D02*
G37*
G36*
X348319D02*
X345354D01*
X345409Y52630D01*
X345761Y51778D01*
X346322Y51047D01*
X347054Y50486D01*
X347905Y50133D01*
X348319Y50079D01*
Y53043D01*
D02*
G37*
G36*
X340472D02*
X337508D01*
Y50079D01*
X337921Y50133D01*
X338773Y50486D01*
X339504Y51047D01*
X340065Y51778D01*
X340418Y52630D01*
X340472Y53043D01*
D02*
G37*
G36*
X336508D02*
X333543D01*
X333598Y52630D01*
X333950Y51778D01*
X334511Y51047D01*
X335243Y50486D01*
X336094Y50133D01*
X336508Y50079D01*
Y53043D01*
D02*
G37*
G36*
X328661D02*
X325697D01*
Y50079D01*
X326110Y50133D01*
X326962Y50486D01*
X327693Y51047D01*
X328254Y51778D01*
X328607Y52630D01*
X328661Y53043D01*
D02*
G37*
G36*
X324697D02*
X321732D01*
X321787Y52630D01*
X322140Y51778D01*
X322701Y51047D01*
X323432Y50486D01*
X324283Y50133D01*
X324697Y50079D01*
Y53043D01*
D02*
G37*
G36*
X233500Y72682D02*
X232418Y72540D01*
X231409Y72122D01*
X230543Y71457D01*
X229878Y70591D01*
X229460Y69582D01*
X229318Y68500D01*
X229460Y67418D01*
X229878Y66409D01*
X230543Y65543D01*
X231409Y64878D01*
X232418Y64460D01*
X233500Y64318D01*
X234582Y64460D01*
X235450Y64820D01*
X248635Y51635D01*
X249032Y51370D01*
X249500Y51276D01*
X284350D01*
Y48850D01*
X291650D01*
Y56150D01*
X284350D01*
Y53724D01*
X250007D01*
X237180Y66550D01*
X237540Y67418D01*
X237682Y68500D01*
X237540Y69582D01*
X237122Y70591D01*
X236457Y71457D01*
X235591Y72122D01*
X234582Y72540D01*
X233500Y72682D01*
D02*
G37*
G36*
X298000Y56182D02*
X297047Y56056D01*
X296159Y55689D01*
X295396Y55103D01*
X294811Y54341D01*
X294444Y53453D01*
X294318Y52500D01*
X294444Y51547D01*
X294811Y50659D01*
X295396Y49896D01*
X296159Y49311D01*
X297047Y48944D01*
X298000Y48818D01*
X298953Y48944D01*
X299841Y49311D01*
X300604Y49896D01*
X301189Y50659D01*
X301556Y51547D01*
X301682Y52500D01*
X301556Y53453D01*
X301189Y54341D01*
X300604Y55103D01*
X299841Y55689D01*
X298953Y56056D01*
X298000Y56182D01*
D02*
G37*
G36*
X311818Y52000D02*
X308500D01*
Y48682D01*
X309005Y48749D01*
X309942Y49137D01*
X310746Y49754D01*
X311363Y50558D01*
X311751Y51495D01*
X311818Y52000D01*
D02*
G37*
G36*
X307500D02*
X304182D01*
X304249Y51495D01*
X304637Y50558D01*
X305254Y49754D01*
X306058Y49137D01*
X306995Y48749D01*
X307500Y48682D01*
Y52000D01*
D02*
G37*
G36*
X378846Y45197D02*
Y42232D01*
X381811D01*
X381756Y42646D01*
X381403Y43497D01*
X380842Y44229D01*
X380111Y44789D01*
X379260Y45142D01*
X378846Y45197D01*
D02*
G37*
G36*
X377846D02*
X377433Y45142D01*
X376581Y44789D01*
X375850Y44229D01*
X375289Y43497D01*
X374936Y42646D01*
X374882Y42232D01*
X377846D01*
Y45197D01*
D02*
G37*
G36*
X367035D02*
Y42232D01*
X370000D01*
X369945Y42646D01*
X369592Y43497D01*
X369032Y44229D01*
X368300Y44789D01*
X367449Y45142D01*
X367035Y45197D01*
D02*
G37*
G36*
X366035D02*
X365622Y45142D01*
X364770Y44789D01*
X364039Y44229D01*
X363478Y43497D01*
X363125Y42646D01*
X363071Y42232D01*
X366035D01*
Y45197D01*
D02*
G37*
G36*
X355224D02*
Y42232D01*
X358189D01*
X358134Y42646D01*
X357782Y43497D01*
X357221Y44229D01*
X356489Y44789D01*
X355638Y45142D01*
X355224Y45197D01*
D02*
G37*
G36*
X354224D02*
X353811Y45142D01*
X352959Y44789D01*
X352228Y44229D01*
X351667Y43497D01*
X351314Y42646D01*
X351260Y42232D01*
X354224D01*
Y45197D01*
D02*
G37*
G36*
X343413D02*
Y42232D01*
X346378D01*
X346323Y42646D01*
X345971Y43497D01*
X345409Y44229D01*
X344678Y44789D01*
X343827Y45142D01*
X343413Y45197D01*
D02*
G37*
G36*
X342413D02*
X342000Y45142D01*
X341148Y44789D01*
X340417Y44229D01*
X339856Y43497D01*
X339503Y42646D01*
X339449Y42232D01*
X342413D01*
Y45197D01*
D02*
G37*
G36*
X331602D02*
Y42232D01*
X334567D01*
X334512Y42646D01*
X334159Y43497D01*
X333598Y44229D01*
X332867Y44789D01*
X332016Y45142D01*
X331602Y45197D01*
D02*
G37*
G36*
X330602D02*
X330188Y45142D01*
X329337Y44789D01*
X328606Y44229D01*
X328045Y43497D01*
X327692Y42646D01*
X327638Y42232D01*
X330602D01*
Y45197D01*
D02*
G37*
G36*
X381811Y41232D02*
X378846D01*
Y38268D01*
X379260Y38322D01*
X380111Y38675D01*
X380842Y39236D01*
X381403Y39967D01*
X381756Y40819D01*
X381811Y41232D01*
D02*
G37*
G36*
X377846D02*
X374882D01*
X374936Y40819D01*
X375289Y39967D01*
X375850Y39236D01*
X376581Y38675D01*
X377433Y38322D01*
X377846Y38268D01*
Y41232D01*
D02*
G37*
G36*
X370000D02*
X367035D01*
Y38268D01*
X367449Y38322D01*
X368300Y38675D01*
X369032Y39236D01*
X369592Y39967D01*
X369945Y40819D01*
X370000Y41232D01*
D02*
G37*
G36*
X366035D02*
X363071D01*
X363125Y40819D01*
X363478Y39967D01*
X364039Y39236D01*
X364770Y38675D01*
X365622Y38322D01*
X366035Y38268D01*
Y41232D01*
D02*
G37*
G36*
X358189D02*
X355224D01*
Y38268D01*
X355638Y38322D01*
X356489Y38675D01*
X357221Y39236D01*
X357782Y39967D01*
X358134Y40819D01*
X358189Y41232D01*
D02*
G37*
G36*
X354224D02*
X351260D01*
X351314Y40819D01*
X351667Y39967D01*
X352228Y39236D01*
X352959Y38675D01*
X353811Y38322D01*
X354224Y38268D01*
Y41232D01*
D02*
G37*
G36*
X346378D02*
X343413D01*
Y38268D01*
X343827Y38322D01*
X344678Y38675D01*
X345409Y39236D01*
X345971Y39967D01*
X346323Y40819D01*
X346378Y41232D01*
D02*
G37*
G36*
X342413D02*
X339449D01*
X339503Y40819D01*
X339856Y39967D01*
X340417Y39236D01*
X341148Y38675D01*
X342000Y38322D01*
X342413Y38268D01*
Y41232D01*
D02*
G37*
G36*
X334567D02*
X331602D01*
Y38268D01*
X332016Y38322D01*
X332867Y38675D01*
X333598Y39236D01*
X334159Y39967D01*
X334512Y40819D01*
X334567Y41232D01*
D02*
G37*
G36*
X330602D02*
X327638D01*
X327692Y40819D01*
X328045Y39967D01*
X328606Y39236D01*
X329337Y38675D01*
X330188Y38322D01*
X330602Y38268D01*
Y41232D01*
D02*
G37*
G36*
X308500Y40818D02*
Y37500D01*
X311818D01*
X311751Y38005D01*
X311363Y38942D01*
X310746Y39746D01*
X309942Y40363D01*
X309005Y40751D01*
X308500Y40818D01*
D02*
G37*
G36*
X307500D02*
X306995Y40751D01*
X306058Y40363D01*
X305254Y39746D01*
X304637Y38942D01*
X304249Y38005D01*
X304182Y37500D01*
X307500D01*
Y40818D01*
D02*
G37*
G36*
X226988Y40433D02*
Y37012D01*
X230410D01*
X230339Y37543D01*
X229941Y38505D01*
X229308Y39331D01*
X228482Y39964D01*
X227520Y40363D01*
X226988Y40433D01*
D02*
G37*
G36*
X225988D02*
X225457Y40363D01*
X224495Y39964D01*
X223669Y39331D01*
X223036Y38505D01*
X222637Y37543D01*
X222567Y37012D01*
X225988D01*
Y40433D01*
D02*
G37*
G36*
X298000Y40682D02*
X297047Y40556D01*
X296159Y40189D01*
X295396Y39603D01*
X294811Y38841D01*
X294444Y37953D01*
X294318Y37000D01*
X294444Y36047D01*
X294811Y35159D01*
X295396Y34396D01*
X296159Y33811D01*
X297047Y33444D01*
X298000Y33318D01*
X298953Y33444D01*
X299841Y33811D01*
X300604Y34396D01*
X301189Y35159D01*
X301556Y36047D01*
X301682Y37000D01*
X301556Y37953D01*
X301189Y38841D01*
X300604Y39603D01*
X299841Y40189D01*
X298953Y40556D01*
X298000Y40682D01*
D02*
G37*
G36*
X311818Y36500D02*
X308500D01*
Y33182D01*
X309005Y33249D01*
X309942Y33637D01*
X310746Y34254D01*
X311363Y35058D01*
X311751Y35995D01*
X311818Y36500D01*
D02*
G37*
G36*
X307500D02*
X304182D01*
X304249Y35995D01*
X304637Y35058D01*
X305254Y34254D01*
X306058Y33637D01*
X306995Y33249D01*
X307500Y33182D01*
Y36500D01*
D02*
G37*
G36*
X230410Y36011D02*
X226988D01*
Y32590D01*
X227520Y32660D01*
X228482Y33059D01*
X229308Y33692D01*
X229941Y34518D01*
X230339Y35480D01*
X230410Y36011D01*
D02*
G37*
G36*
X225988D02*
X222567D01*
X222637Y35480D01*
X223036Y34518D01*
X223669Y33692D01*
X224495Y33059D01*
X225457Y32660D01*
X225988Y32590D01*
Y36011D01*
D02*
G37*
G36*
X384752Y33386D02*
Y30421D01*
X387716D01*
X387662Y30835D01*
X387309Y31686D01*
X386748Y32418D01*
X386017Y32978D01*
X385166Y33331D01*
X384752Y33386D01*
D02*
G37*
G36*
X383752D02*
X383338Y33331D01*
X382487Y32978D01*
X381756Y32418D01*
X381195Y31686D01*
X380842Y30835D01*
X380787Y30421D01*
X383752D01*
Y33386D01*
D02*
G37*
G36*
X372941D02*
Y30421D01*
X375905D01*
X375851Y30835D01*
X375498Y31686D01*
X374937Y32418D01*
X374206Y32978D01*
X373355Y33331D01*
X372941Y33386D01*
D02*
G37*
G36*
X371941D02*
X371527Y33331D01*
X370676Y32978D01*
X369945Y32418D01*
X369384Y31686D01*
X369031Y30835D01*
X368976Y30421D01*
X371941D01*
Y33386D01*
D02*
G37*
G36*
X361130D02*
Y30421D01*
X364094D01*
X364040Y30835D01*
X363687Y31686D01*
X363126Y32418D01*
X362395Y32978D01*
X361543Y33331D01*
X361130Y33386D01*
D02*
G37*
G36*
X360130D02*
X359716Y33331D01*
X358865Y32978D01*
X358134Y32418D01*
X357573Y31686D01*
X357220Y30835D01*
X357165Y30421D01*
X360130D01*
Y33386D01*
D02*
G37*
G36*
X349319D02*
Y30421D01*
X352283D01*
X352229Y30835D01*
X351876Y31686D01*
X351315Y32418D01*
X350584Y32978D01*
X349732Y33331D01*
X349319Y33386D01*
D02*
G37*
G36*
X348319D02*
X347905Y33331D01*
X347054Y32978D01*
X346322Y32418D01*
X345761Y31686D01*
X345409Y30835D01*
X345354Y30421D01*
X348319D01*
Y33386D01*
D02*
G37*
G36*
X337508D02*
Y30421D01*
X340472D01*
X340418Y30835D01*
X340065Y31686D01*
X339504Y32418D01*
X338773Y32978D01*
X337921Y33331D01*
X337508Y33386D01*
D02*
G37*
G36*
X336508D02*
X336094Y33331D01*
X335243Y32978D01*
X334511Y32418D01*
X333950Y31686D01*
X333598Y30835D01*
X333543Y30421D01*
X336508D01*
Y33386D01*
D02*
G37*
G36*
X325697D02*
Y30421D01*
X328661D01*
X328607Y30835D01*
X328254Y31686D01*
X327693Y32418D01*
X326962Y32978D01*
X326110Y33331D01*
X325697Y33386D01*
D02*
G37*
G36*
X324697D02*
X324283Y33331D01*
X323432Y32978D01*
X322701Y32418D01*
X322140Y31686D01*
X321787Y30835D01*
X321732Y30421D01*
X324697D01*
Y33386D01*
D02*
G37*
G36*
X280107Y32086D02*
X277142D01*
Y29122D01*
X277556Y29177D01*
X278408Y29529D01*
X279139Y30090D01*
X279700Y30821D01*
X280052Y31673D01*
X280107Y32086D01*
D02*
G37*
G36*
X276142D02*
X273178D01*
X273233Y31673D01*
X273585Y30821D01*
X274146Y30090D01*
X274877Y29529D01*
X275729Y29177D01*
X276142Y29122D01*
Y32086D01*
D02*
G37*
G36*
X387716Y29421D02*
X384752D01*
Y26457D01*
X385166Y26511D01*
X386017Y26864D01*
X386748Y27425D01*
X387309Y28156D01*
X387662Y29008D01*
X387716Y29421D01*
D02*
G37*
G36*
X383752D02*
X380787D01*
X380842Y29008D01*
X381195Y28156D01*
X381756Y27425D01*
X382487Y26864D01*
X383338Y26511D01*
X383752Y26457D01*
Y29421D01*
D02*
G37*
G36*
X375905D02*
X372941D01*
Y26457D01*
X373355Y26511D01*
X374206Y26864D01*
X374937Y27425D01*
X375498Y28156D01*
X375851Y29008D01*
X375905Y29421D01*
D02*
G37*
G36*
X371941D02*
X368976D01*
X369031Y29008D01*
X369384Y28156D01*
X369945Y27425D01*
X370676Y26864D01*
X371527Y26511D01*
X371941Y26457D01*
Y29421D01*
D02*
G37*
G36*
X364094D02*
X361130D01*
Y26457D01*
X361543Y26511D01*
X362395Y26864D01*
X363126Y27425D01*
X363687Y28156D01*
X364040Y29008D01*
X364094Y29421D01*
D02*
G37*
G36*
X360130D02*
X357165D01*
X357220Y29008D01*
X357573Y28156D01*
X358134Y27425D01*
X358865Y26864D01*
X359716Y26511D01*
X360130Y26457D01*
Y29421D01*
D02*
G37*
G36*
X352283D02*
X349319D01*
Y26457D01*
X349732Y26511D01*
X350584Y26864D01*
X351315Y27425D01*
X351876Y28156D01*
X352229Y29008D01*
X352283Y29421D01*
D02*
G37*
G36*
X348319D02*
X345354D01*
X345409Y29008D01*
X345761Y28156D01*
X346322Y27425D01*
X347054Y26864D01*
X347905Y26511D01*
X348319Y26457D01*
Y29421D01*
D02*
G37*
G36*
X340472D02*
X337508D01*
Y26457D01*
X337921Y26511D01*
X338773Y26864D01*
X339504Y27425D01*
X340065Y28156D01*
X340418Y29008D01*
X340472Y29421D01*
D02*
G37*
G36*
X336508D02*
X333543D01*
X333598Y29008D01*
X333950Y28156D01*
X334511Y27425D01*
X335243Y26864D01*
X336094Y26511D01*
X336508Y26457D01*
Y29421D01*
D02*
G37*
G36*
X328661D02*
X325697D01*
Y26457D01*
X326110Y26511D01*
X326962Y26864D01*
X327693Y27425D01*
X328254Y28156D01*
X328607Y29008D01*
X328661Y29421D01*
D02*
G37*
G36*
X324697D02*
X321732D01*
X321787Y29008D01*
X322140Y28156D01*
X322701Y27425D01*
X323432Y26864D01*
X324283Y26511D01*
X324697Y26457D01*
Y29421D01*
D02*
G37*
G36*
X226488Y30297D02*
X225509Y30168D01*
X224596Y29790D01*
X223812Y29188D01*
X223210Y28404D01*
X222832Y27491D01*
X222703Y26511D01*
X222832Y25532D01*
X223210Y24619D01*
X223812Y23835D01*
X224596Y23234D01*
X225509Y22855D01*
X226488Y22726D01*
X227468Y22855D01*
X228381Y23234D01*
X229165Y23835D01*
X229767Y24619D01*
X230145Y25532D01*
X230274Y26511D01*
X230145Y27491D01*
X229767Y28404D01*
X229165Y29188D01*
X228381Y29790D01*
X227468Y30168D01*
X226488Y30297D01*
D02*
G37*
G36*
X79555Y26219D02*
Y22500D01*
X83274D01*
X83194Y23109D01*
X82766Y24142D01*
X82085Y25030D01*
X81198Y25711D01*
X80164Y26139D01*
X79555Y26219D01*
D02*
G37*
G36*
X78555D02*
X77946Y26139D01*
X76913Y25711D01*
X76025Y25030D01*
X75345Y24142D01*
X74916Y23109D01*
X74836Y22500D01*
X78555D01*
Y26219D01*
D02*
G37*
G36*
X308500Y25318D02*
Y22000D01*
X311818D01*
X311751Y22505D01*
X311363Y23442D01*
X310746Y24246D01*
X309942Y24863D01*
X309005Y25251D01*
X308500Y25318D01*
D02*
G37*
G36*
X307500D02*
X306995Y25251D01*
X306058Y24863D01*
X305254Y24246D01*
X304637Y23442D01*
X304249Y22505D01*
X304182Y22000D01*
X307500D01*
Y25318D01*
D02*
G37*
G36*
X236642Y24051D02*
Y21086D01*
X239607D01*
X239552Y21500D01*
X239200Y22352D01*
X238639Y23083D01*
X237908Y23644D01*
X237056Y23996D01*
X236642Y24051D01*
D02*
G37*
G36*
X235642D02*
X235229Y23996D01*
X234377Y23644D01*
X233646Y23083D01*
X233085Y22352D01*
X232733Y21500D01*
X232678Y21086D01*
X235642D01*
Y24051D01*
D02*
G37*
G36*
X367035Y21575D02*
Y18610D01*
X370000D01*
X369945Y19024D01*
X369592Y19875D01*
X369032Y20606D01*
X368300Y21167D01*
X367449Y21520D01*
X367035Y21575D01*
D02*
G37*
G36*
X366035D02*
X365622Y21520D01*
X364770Y21167D01*
X364039Y20606D01*
X363478Y19875D01*
X363125Y19024D01*
X363071Y18610D01*
X366035D01*
Y21575D01*
D02*
G37*
G36*
X355224D02*
Y18610D01*
X358189D01*
X358134Y19024D01*
X357782Y19875D01*
X357221Y20606D01*
X356489Y21167D01*
X355638Y21520D01*
X355224Y21575D01*
D02*
G37*
G36*
X354224D02*
X353811Y21520D01*
X352959Y21167D01*
X352228Y20606D01*
X351667Y19875D01*
X351314Y19024D01*
X351260Y18610D01*
X354224D01*
Y21575D01*
D02*
G37*
G36*
X343413D02*
Y18610D01*
X346378D01*
X346323Y19024D01*
X345971Y19875D01*
X345409Y20606D01*
X344678Y21167D01*
X343827Y21520D01*
X343413Y21575D01*
D02*
G37*
G36*
X342413D02*
X342000Y21520D01*
X341148Y21167D01*
X340417Y20606D01*
X339856Y19875D01*
X339503Y19024D01*
X339449Y18610D01*
X342413D01*
Y21575D01*
D02*
G37*
G36*
X331602D02*
Y18610D01*
X334567D01*
X334512Y19024D01*
X334159Y19875D01*
X333598Y20606D01*
X332867Y21167D01*
X332016Y21520D01*
X331602Y21575D01*
D02*
G37*
G36*
X330602D02*
X330188Y21520D01*
X329337Y21167D01*
X328606Y20606D01*
X328045Y19875D01*
X327692Y19024D01*
X327638Y18610D01*
X330602D01*
Y21575D01*
D02*
G37*
G36*
X59055Y26083D02*
X57998Y25944D01*
X57014Y25536D01*
X56168Y24887D01*
X55519Y24042D01*
X55111Y23057D01*
X54972Y22000D01*
X55111Y20943D01*
X55519Y19959D01*
X56168Y19113D01*
X57014Y18464D01*
X57998Y18056D01*
X59055Y17917D01*
X60112Y18056D01*
X61097Y18464D01*
X61942Y19113D01*
X62591Y19959D01*
X62999Y20943D01*
X63138Y22000D01*
X62999Y23057D01*
X62591Y24042D01*
X61942Y24887D01*
X61097Y25536D01*
X60112Y25944D01*
X59055Y26083D01*
D02*
G37*
G36*
X298000Y25182D02*
X297047Y25056D01*
X296159Y24689D01*
X295396Y24103D01*
X294811Y23341D01*
X294444Y22453D01*
X294318Y21500D01*
X294444Y20547D01*
X294811Y19659D01*
X295396Y18896D01*
X296159Y18311D01*
X297047Y17944D01*
X298000Y17818D01*
X298953Y17944D01*
X299841Y18311D01*
X300604Y18896D01*
X301189Y19659D01*
X301556Y20547D01*
X301682Y21500D01*
X301556Y22453D01*
X301189Y23341D01*
X300604Y24103D01*
X299841Y24689D01*
X298953Y25056D01*
X298000Y25182D01*
D02*
G37*
G36*
X83274Y21500D02*
X79555D01*
Y17781D01*
X80164Y17861D01*
X81198Y18289D01*
X82085Y18970D01*
X82766Y19858D01*
X83194Y20891D01*
X83274Y21500D01*
D02*
G37*
G36*
X78555D02*
X74836D01*
X74916Y20891D01*
X75345Y19858D01*
X76025Y18970D01*
X76913Y18289D01*
X77946Y17861D01*
X78555Y17781D01*
Y21500D01*
D02*
G37*
G36*
X311818Y21000D02*
X308500D01*
Y17682D01*
X309005Y17749D01*
X309942Y18137D01*
X310746Y18754D01*
X311363Y19558D01*
X311751Y20495D01*
X311818Y21000D01*
D02*
G37*
G36*
X307500D02*
X304182D01*
X304249Y20495D01*
X304637Y19558D01*
X305254Y18754D01*
X306058Y18137D01*
X306995Y17749D01*
X307500Y17682D01*
Y21000D01*
D02*
G37*
G36*
X239607Y20086D02*
X236642D01*
Y17122D01*
X237056Y17176D01*
X237908Y17529D01*
X238639Y18090D01*
X239200Y18821D01*
X239552Y19673D01*
X239607Y20086D01*
D02*
G37*
G36*
X235642D02*
X232678D01*
X232733Y19673D01*
X233085Y18821D01*
X233646Y18090D01*
X234377Y17529D01*
X235229Y17176D01*
X235642Y17122D01*
Y20086D01*
D02*
G37*
G36*
X370000Y17610D02*
X367035D01*
Y14646D01*
X367449Y14700D01*
X368300Y15053D01*
X369032Y15614D01*
X369592Y16345D01*
X369945Y17197D01*
X370000Y17610D01*
D02*
G37*
G36*
X366035D02*
X363071D01*
X363125Y17197D01*
X363478Y16345D01*
X364039Y15614D01*
X364770Y15053D01*
X365622Y14700D01*
X366035Y14646D01*
Y17610D01*
D02*
G37*
G36*
X358189D02*
X355224D01*
Y14646D01*
X355638Y14700D01*
X356489Y15053D01*
X357221Y15614D01*
X357782Y16345D01*
X358134Y17197D01*
X358189Y17610D01*
D02*
G37*
G36*
X354224D02*
X351260D01*
X351314Y17197D01*
X351667Y16345D01*
X352228Y15614D01*
X352959Y15053D01*
X353811Y14700D01*
X354224Y14646D01*
Y17610D01*
D02*
G37*
G36*
X346378D02*
X343413D01*
Y14646D01*
X343827Y14700D01*
X344678Y15053D01*
X345409Y15614D01*
X345971Y16345D01*
X346323Y17197D01*
X346378Y17610D01*
D02*
G37*
G36*
X342413D02*
X339449D01*
X339503Y17197D01*
X339856Y16345D01*
X340417Y15614D01*
X341148Y15053D01*
X342000Y14700D01*
X342413Y14646D01*
Y17610D01*
D02*
G37*
G36*
X334567D02*
X331602D01*
Y14646D01*
X332016Y14700D01*
X332867Y15053D01*
X333598Y15614D01*
X334159Y16345D01*
X334512Y17197D01*
X334567Y17610D01*
D02*
G37*
G36*
X330602D02*
X327638D01*
X327692Y17197D01*
X328045Y16345D01*
X328606Y15614D01*
X329337Y15053D01*
X330188Y14700D01*
X330602Y14646D01*
Y17610D01*
D02*
G37*
G36*
X226488Y20297D02*
X225509Y20168D01*
X224596Y19790D01*
X223812Y19188D01*
X223210Y18404D01*
X222832Y17491D01*
X222703Y16511D01*
X222832Y15532D01*
X223210Y14619D01*
X223812Y13835D01*
X224596Y13234D01*
X225509Y12855D01*
X226488Y12726D01*
X227468Y12855D01*
X228381Y13234D01*
X229165Y13835D01*
X229767Y14619D01*
X230145Y15532D01*
X230274Y16511D01*
X230145Y17491D01*
X229767Y18404D01*
X229165Y19188D01*
X228381Y19790D01*
X227468Y20168D01*
X226488Y20297D01*
D02*
G37*
G36*
X213379Y15060D02*
X205283D01*
Y6963D01*
X213379D01*
Y15060D01*
D02*
G37*
G36*
X199488Y15094D02*
X198432Y14955D01*
X197447Y14548D01*
X196601Y13899D01*
X195952Y13053D01*
X195545Y12068D01*
X195405Y11011D01*
X195545Y9955D01*
X195952Y8970D01*
X196601Y8124D01*
X197447Y7476D01*
X198432Y7068D01*
X199488Y6929D01*
X200545Y7068D01*
X201530Y7476D01*
X202376Y8124D01*
X203024Y8970D01*
X203432Y9955D01*
X203571Y11011D01*
X203432Y12068D01*
X203024Y13053D01*
X202376Y13899D01*
X201530Y14548D01*
X200545Y14955D01*
X199488Y15094D01*
D02*
G37*
G36*
X189646D02*
X188589Y14955D01*
X187604Y14548D01*
X186759Y13899D01*
X186110Y13053D01*
X185702Y12068D01*
X185563Y11011D01*
X185702Y9955D01*
X186110Y8970D01*
X186759Y8124D01*
X187604Y7476D01*
X188589Y7068D01*
X189646Y6929D01*
X190703Y7068D01*
X191687Y7476D01*
X192533Y8124D01*
X193182Y8970D01*
X193590Y9955D01*
X193729Y11011D01*
X193590Y12068D01*
X193182Y13053D01*
X192533Y13899D01*
X191687Y14548D01*
X190703Y14955D01*
X189646Y15094D01*
D02*
G37*
G36*
X179803D02*
X178747Y14955D01*
X177762Y14548D01*
X176916Y13899D01*
X176268Y13053D01*
X175860Y12068D01*
X175720Y11011D01*
X175860Y9955D01*
X176268Y8970D01*
X176916Y8124D01*
X177762Y7476D01*
X178747Y7068D01*
X179803Y6929D01*
X180860Y7068D01*
X181845Y7476D01*
X182691Y8124D01*
X183339Y8970D01*
X183747Y9955D01*
X183886Y11011D01*
X183747Y12068D01*
X183339Y13053D01*
X182691Y13899D01*
X181845Y14548D01*
X180860Y14955D01*
X179803Y15094D01*
D02*
G37*
G36*
X169961D02*
X168904Y14955D01*
X167919Y14548D01*
X167074Y13899D01*
X166425Y13053D01*
X166017Y12068D01*
X165878Y11011D01*
X166017Y9955D01*
X166425Y8970D01*
X167074Y8124D01*
X167919Y7476D01*
X168904Y7068D01*
X169961Y6929D01*
X171018Y7068D01*
X172002Y7476D01*
X172848Y8124D01*
X173497Y8970D01*
X173905Y9955D01*
X174044Y11011D01*
X173905Y12068D01*
X173497Y13053D01*
X172848Y13899D01*
X172002Y14548D01*
X171018Y14955D01*
X169961Y15094D01*
D02*
G37*
G36*
X361130Y9764D02*
Y6799D01*
X364094D01*
X364040Y7213D01*
X363687Y8064D01*
X363126Y8795D01*
X362395Y9356D01*
X361543Y9709D01*
X361130Y9764D01*
D02*
G37*
G36*
X360130D02*
X359716Y9709D01*
X358865Y9356D01*
X358134Y8795D01*
X357573Y8064D01*
X357220Y7213D01*
X357165Y6799D01*
X360130D01*
Y9764D01*
D02*
G37*
G36*
X349319D02*
Y6799D01*
X352283D01*
X352229Y7213D01*
X351876Y8064D01*
X351315Y8795D01*
X350584Y9356D01*
X349732Y9709D01*
X349319Y9764D01*
D02*
G37*
G36*
X348319D02*
X347905Y9709D01*
X347054Y9356D01*
X346322Y8795D01*
X345761Y8064D01*
X345409Y7213D01*
X345354Y6799D01*
X348319D01*
Y9764D01*
D02*
G37*
G36*
X337508D02*
Y6799D01*
X340472D01*
X340418Y7213D01*
X340065Y8064D01*
X339504Y8795D01*
X338773Y9356D01*
X337921Y9709D01*
X337508Y9764D01*
D02*
G37*
G36*
X336508D02*
X336094Y9709D01*
X335243Y9356D01*
X334511Y8795D01*
X333950Y8064D01*
X333598Y7213D01*
X333543Y6799D01*
X336508D01*
Y9764D01*
D02*
G37*
G36*
X325697D02*
Y6799D01*
X328661D01*
X328607Y7213D01*
X328254Y8064D01*
X327693Y8795D01*
X326962Y9356D01*
X326110Y9709D01*
X325697Y9764D01*
D02*
G37*
G36*
X324697D02*
X324283Y9709D01*
X323432Y9356D01*
X322701Y8795D01*
X322140Y8064D01*
X321787Y7213D01*
X321732Y6799D01*
X324697D01*
Y9764D01*
D02*
G37*
G36*
X308500Y9818D02*
Y6500D01*
X311818D01*
X311751Y7005D01*
X311363Y7942D01*
X310746Y8746D01*
X309942Y9363D01*
X309005Y9751D01*
X308500Y9818D01*
D02*
G37*
G36*
X307500D02*
X306995Y9751D01*
X306058Y9363D01*
X305254Y8746D01*
X304637Y7942D01*
X304249Y7005D01*
X304182Y6500D01*
X307500D01*
Y9818D01*
D02*
G37*
G36*
X381890Y18945D02*
X380498Y18808D01*
X379160Y18402D01*
X377927Y17742D01*
X376846Y16855D01*
X375958Y15774D01*
X375299Y14541D01*
X374893Y13203D01*
X374756Y11811D01*
X374893Y10419D01*
X375299Y9081D01*
X375958Y7848D01*
X376846Y6767D01*
X377927Y5880D01*
X379160Y5221D01*
X380498Y4814D01*
X381890Y4677D01*
X383281Y4814D01*
X384620Y5221D01*
X385853Y5880D01*
X386934Y6767D01*
X387821Y7848D01*
X388480Y9081D01*
X388886Y10419D01*
X389023Y11811D01*
X388886Y13203D01*
X388480Y14541D01*
X387821Y15774D01*
X386934Y16855D01*
X385853Y17742D01*
X384620Y18402D01*
X383281Y18808D01*
X381890Y18945D01*
D02*
G37*
G36*
X11811D02*
X10419Y18808D01*
X9081Y18402D01*
X7848Y17742D01*
X6767Y16855D01*
X5880Y15774D01*
X5221Y14541D01*
X4814Y13203D01*
X4677Y11811D01*
X4814Y10419D01*
X5221Y9081D01*
X5880Y7848D01*
X6767Y6767D01*
X7848Y5880D01*
X9081Y5221D01*
X10419Y4814D01*
X11811Y4677D01*
X13203Y4814D01*
X14541Y5221D01*
X15774Y5880D01*
X16855Y6767D01*
X17742Y7848D01*
X18402Y9081D01*
X18808Y10419D01*
X18945Y11811D01*
X18808Y13203D01*
X18402Y14541D01*
X17742Y15774D01*
X16855Y16855D01*
X15774Y17742D01*
X14541Y18402D01*
X13203Y18808D01*
X11811Y18945D01*
D02*
G37*
G36*
X364094Y5799D02*
X361130D01*
Y2835D01*
X361543Y2889D01*
X362395Y3242D01*
X363126Y3803D01*
X363687Y4534D01*
X364040Y5385D01*
X364094Y5799D01*
D02*
G37*
G36*
X360130D02*
X357165D01*
X357220Y5385D01*
X357573Y4534D01*
X358134Y3803D01*
X358865Y3242D01*
X359716Y2889D01*
X360130Y2835D01*
Y5799D01*
D02*
G37*
G36*
X352283D02*
X349319D01*
Y2835D01*
X349732Y2889D01*
X350584Y3242D01*
X351315Y3803D01*
X351876Y4534D01*
X352229Y5385D01*
X352283Y5799D01*
D02*
G37*
G36*
X348319D02*
X345354D01*
X345409Y5385D01*
X345761Y4534D01*
X346322Y3803D01*
X347054Y3242D01*
X347905Y2889D01*
X348319Y2835D01*
Y5799D01*
D02*
G37*
G36*
X340472D02*
X337508D01*
Y2835D01*
X337921Y2889D01*
X338773Y3242D01*
X339504Y3803D01*
X340065Y4534D01*
X340418Y5385D01*
X340472Y5799D01*
D02*
G37*
G36*
X336508D02*
X333543D01*
X333598Y5385D01*
X333950Y4534D01*
X334511Y3803D01*
X335243Y3242D01*
X336094Y2889D01*
X336508Y2835D01*
Y5799D01*
D02*
G37*
G36*
X328661D02*
X325697D01*
Y2835D01*
X326110Y2889D01*
X326962Y3242D01*
X327693Y3803D01*
X328254Y4534D01*
X328607Y5385D01*
X328661Y5799D01*
D02*
G37*
G36*
X324697D02*
X321732D01*
X321787Y5385D01*
X322140Y4534D01*
X322701Y3803D01*
X323432Y3242D01*
X324283Y2889D01*
X324697Y2835D01*
Y5799D01*
D02*
G37*
G36*
X230241Y10264D02*
X222736D01*
Y2759D01*
X230241D01*
Y10264D01*
D02*
G37*
G36*
X298000Y9682D02*
X297047Y9556D01*
X296159Y9189D01*
X295396Y8603D01*
X294811Y7841D01*
X294444Y6953D01*
X294318Y6000D01*
X294444Y5047D01*
X294811Y4159D01*
X295396Y3396D01*
X296159Y2811D01*
X297047Y2444D01*
X298000Y2318D01*
X298953Y2444D01*
X299841Y2811D01*
X300604Y3396D01*
X301189Y4159D01*
X301556Y5047D01*
X301682Y6000D01*
X301556Y6953D01*
X301189Y7841D01*
X300604Y8603D01*
X299841Y9189D01*
X298953Y9556D01*
X298000Y9682D01*
D02*
G37*
G36*
X311818Y5500D02*
X308500D01*
Y2182D01*
X309005Y2249D01*
X309942Y2637D01*
X310746Y3254D01*
X311363Y4058D01*
X311751Y4995D01*
X311818Y5500D01*
D02*
G37*
G36*
X307500D02*
X304182D01*
X304249Y4995D01*
X304637Y4058D01*
X305254Y3254D01*
X306058Y2637D01*
X306995Y2249D01*
X307500Y2182D01*
Y5500D01*
D02*
G37*
%LPD*%
G36*
X285174Y36200D02*
X285166Y36276D01*
X285141Y36344D01*
X285101Y36404D01*
X285044Y36456D01*
X284971Y36500D01*
X284881Y36536D01*
X284776Y36564D01*
X284654Y36584D01*
X284516Y36596D01*
X284362Y36600D01*
Y37400D01*
X284516Y37404D01*
X284654Y37416D01*
X284776Y37436D01*
X284881Y37464D01*
X284971Y37500D01*
X285044Y37544D01*
X285101Y37596D01*
X285141Y37656D01*
X285166Y37724D01*
X285174Y37800D01*
Y36200D01*
D02*
G37*
G36*
Y20700D02*
X285166Y20776D01*
X285141Y20844D01*
X285101Y20904D01*
X285044Y20956D01*
X284971Y21000D01*
X284881Y21036D01*
X284776Y21064D01*
X284654Y21084D01*
X284516Y21096D01*
X284362Y21100D01*
Y21900D01*
X284516Y21904D01*
X284654Y21916D01*
X284776Y21936D01*
X284881Y21964D01*
X284971Y22000D01*
X285044Y22044D01*
X285101Y22096D01*
X285141Y22156D01*
X285166Y22224D01*
X285174Y22300D01*
Y20700D01*
D02*
G37*
G36*
Y5200D02*
X285166Y5276D01*
X285141Y5344D01*
X285101Y5404D01*
X285044Y5456D01*
X284971Y5500D01*
X284881Y5536D01*
X284776Y5564D01*
X284654Y5584D01*
X284516Y5596D01*
X284362Y5600D01*
Y6400D01*
X284516Y6404D01*
X284654Y6416D01*
X284776Y6436D01*
X284881Y6464D01*
X284971Y6500D01*
X285044Y6544D01*
X285101Y6596D01*
X285141Y6656D01*
X285166Y6724D01*
X285174Y6800D01*
Y5200D01*
D02*
G37*
G36*
Y51700D02*
X285166Y51776D01*
X285141Y51844D01*
X285101Y51904D01*
X285044Y51956D01*
X284971Y52000D01*
X284881Y52036D01*
X284776Y52064D01*
X284654Y52084D01*
X284516Y52096D01*
X284362Y52100D01*
Y52900D01*
X284516Y52904D01*
X284654Y52916D01*
X284776Y52936D01*
X284881Y52964D01*
X284971Y53000D01*
X285044Y53044D01*
X285101Y53096D01*
X285141Y53156D01*
X285166Y53224D01*
X285174Y53300D01*
Y51700D01*
D02*
G37*
D66*
X293700Y101467D02*
Y106800D01*
X290000Y110500D02*
X293700Y106800D01*
X272000Y21500D02*
X288000D01*
X233500Y60000D02*
X272000Y21500D01*
X205570Y60000D02*
X233500D01*
X232000Y57000D02*
X283000Y6000D01*
X188570Y57000D02*
X232000D01*
X178047Y67524D02*
X188570Y57000D01*
X283000Y6000D02*
X288000D01*
X174476Y67524D02*
X178047D01*
X173500Y68500D02*
X174476Y67524D01*
X198047D02*
X205570Y60000D01*
X194476Y67524D02*
X198047D01*
X193500Y68500D02*
X194476Y67524D01*
X260500Y37000D02*
X288000D01*
X235000Y62500D02*
X260500Y37000D01*
X209500Y62500D02*
X235000D01*
X203500Y68500D02*
X209500Y62500D01*
X249500Y52500D02*
X288000D01*
X233500Y68500D02*
X249500Y52500D01*
X291433Y99200D02*
X293700Y101467D01*
X273500Y88500D02*
X290000D01*
X253500Y68500D02*
X273500Y88500D01*
X290000Y80000D02*
Y81000D01*
X278500Y68500D02*
X290000Y80000D01*
X263500Y68500D02*
X278500D01*
X274200Y99200D02*
X291433D01*
X243500Y68500D02*
X274200Y99200D01*
X258000Y103000D02*
X290000D01*
X223500Y68500D02*
X258000Y103000D01*
X278500Y128500D02*
X298000Y109000D01*
Y101000D02*
Y109000D01*
X292500Y95500D02*
X298000Y101000D01*
X290000Y95500D02*
X292500D01*
X263500Y128500D02*
X278500D01*
D67*
X308000Y52500D02*
D03*
X298000D02*
D03*
X308000Y37000D02*
D03*
X298000D02*
D03*
X308000Y21500D02*
D03*
X298000D02*
D03*
X308000Y6000D02*
D03*
X298000D02*
D03*
D68*
X288000Y52500D02*
D03*
Y37000D02*
D03*
Y21500D02*
D03*
Y6000D02*
D03*
D69*
X226488Y36511D02*
D03*
Y26511D02*
D03*
Y16511D02*
D03*
D70*
Y6511D02*
D03*
D71*
X70500Y79250D02*
D03*
D72*
Y120750D02*
D03*
D73*
X385998Y108425D02*
D03*
X365998D02*
D03*
Y88425D02*
D03*
X385998D02*
D03*
X375998Y98425D02*
D03*
D74*
X123500Y68500D02*
D03*
D75*
X133500D02*
D03*
X143500D02*
D03*
X153500D02*
D03*
X163500D02*
D03*
X173500D02*
D03*
X183500D02*
D03*
X193500D02*
D03*
X203500D02*
D03*
X213500D02*
D03*
X223500D02*
D03*
X233500D02*
D03*
X243500D02*
D03*
X253500D02*
D03*
X263500D02*
D03*
X123500Y128500D02*
D03*
X133500D02*
D03*
X143500D02*
D03*
X153500D02*
D03*
X163500D02*
D03*
X173500D02*
D03*
X183500D02*
D03*
X193500D02*
D03*
X203500D02*
D03*
X213500D02*
D03*
X223500D02*
D03*
X233500D02*
D03*
X243500D02*
D03*
X253500D02*
D03*
X263500D02*
D03*
D76*
X209331Y11011D02*
D03*
D77*
X199488D02*
D03*
X189646D02*
D03*
X179803D02*
D03*
X169961D02*
D03*
X59055Y22000D02*
D03*
X79055D02*
D03*
X22500Y80500D02*
D03*
Y60500D02*
D03*
X22000Y128000D02*
D03*
Y108000D02*
D03*
X82000Y175000D02*
D03*
X62000D02*
D03*
D78*
X217342Y185500D02*
D03*
X207500D02*
D03*
X197658D02*
D03*
D79*
X187815D02*
D03*
D80*
X290000Y110500D02*
D03*
X172500Y140500D02*
D03*
X188500D02*
D03*
X372441Y171653D02*
D03*
X378346Y159842D02*
D03*
X372441Y148031D02*
D03*
X378346Y136220D02*
D03*
X372441Y124409D02*
D03*
X366535Y183465D02*
D03*
X360630Y171653D02*
D03*
X366535Y159842D02*
D03*
X360630Y148031D02*
D03*
X366535Y136220D02*
D03*
X360630Y124409D02*
D03*
X354724Y183465D02*
D03*
X348819Y171653D02*
D03*
X354724Y159842D02*
D03*
X348819Y148031D02*
D03*
X354724Y136220D02*
D03*
X348819Y124409D02*
D03*
X342913Y183465D02*
D03*
X337008Y171653D02*
D03*
X342913Y159842D02*
D03*
X337008Y148031D02*
D03*
X342913Y136220D02*
D03*
X337008Y124409D02*
D03*
X331102Y183465D02*
D03*
X325197Y171653D02*
D03*
X331102Y159842D02*
D03*
X325197Y148031D02*
D03*
X331102Y136220D02*
D03*
X319291Y183465D02*
D03*
X313386Y171653D02*
D03*
X319291Y159842D02*
D03*
X313386Y148031D02*
D03*
X319291Y136220D02*
D03*
X307480Y183465D02*
D03*
X301575Y171653D02*
D03*
X307480Y159842D02*
D03*
X301575Y148031D02*
D03*
X307480Y136220D02*
D03*
X384252Y53543D02*
D03*
Y29921D02*
D03*
X378346Y65354D02*
D03*
X372441Y53543D02*
D03*
X378346Y41732D02*
D03*
X372441Y29921D02*
D03*
X366535Y65354D02*
D03*
X360630Y53543D02*
D03*
X366535Y41732D02*
D03*
X360630Y29921D02*
D03*
X366535Y18110D02*
D03*
X360630Y6299D02*
D03*
X354724Y65354D02*
D03*
X348819Y53543D02*
D03*
X354724Y41732D02*
D03*
X348819Y29921D02*
D03*
X354724Y18110D02*
D03*
X348819Y6299D02*
D03*
X342913Y65354D02*
D03*
X337008Y53543D02*
D03*
X342913Y41732D02*
D03*
X337008Y29921D02*
D03*
X342913Y18110D02*
D03*
X337008Y6299D02*
D03*
X325197Y53543D02*
D03*
X331102Y41732D02*
D03*
X325197Y29921D02*
D03*
X331102Y18110D02*
D03*
X325197Y6299D02*
D03*
X284000Y142000D02*
D03*
X117000Y97000D02*
D03*
X226000Y140000D02*
D03*
X212500D02*
D03*
X290000Y88500D02*
D03*
Y81000D02*
D03*
Y103000D02*
D03*
Y95500D02*
D03*
X236142Y20586D02*
D03*
X276642Y32586D02*
D03*
X149000Y113000D02*
D03*
X126500Y96000D02*
D03*
X212000Y90000D02*
D03*
X185000Y99000D02*
D03*
X211500Y113500D02*
D03*
X298500Y78000D02*
D03*
X336500Y108500D02*
D03*
X330500Y69000D02*
D03*
X310000Y114000D02*
D03*
D81*
X381890Y185039D02*
D03*
Y11811D02*
D03*
X11811D02*
D03*
D82*
Y185039D02*
D03*
M02*
