G04*
G04 #@! TF.GenerationSoftware,Altium Limited,Altium Designer,20.2.6 (244)*
G04*
G04 Layer_Color=255*
%FSLAX25Y25*%
%MOIN*%
G70*
G04*
G04 #@! TF.SameCoordinates,3022D20F-0E7D-494E-A21C-2806337C0760*
G04*
G04*
G04 #@! TF.FilePolarity,Positive*
G04*
G01*
G75*
%ADD25R,0.03937X0.03937*%
%ADD37O,0.07284X0.04134*%
%ADD38C,0.07480*%
%ADD39C,0.04724*%
%ADD42R,0.03543X0.03937*%
%ADD43R,0.02756X0.02756*%
D25*
X33500Y22000D02*
D03*
Y28299D02*
D03*
X40000Y22000D02*
D03*
Y28299D02*
D03*
X46500Y22000D02*
D03*
Y28299D02*
D03*
D37*
X18968Y35925D02*
D03*
X5386D02*
D03*
Y64075D02*
D03*
X18968D02*
D03*
D38*
X52000Y91000D02*
D03*
X62000D02*
D03*
X72000D02*
D03*
X52000Y77000D02*
D03*
X62000D02*
D03*
X72000D02*
D03*
D39*
X34000Y6000D02*
D03*
X44000D02*
D03*
X64000D02*
D03*
X54000D02*
D03*
X74000D02*
D03*
X84000D02*
D03*
X96500Y18500D02*
D03*
Y28500D02*
D03*
Y48500D02*
D03*
Y38500D02*
D03*
Y58500D02*
D03*
Y68500D02*
D03*
D42*
X52949Y55858D02*
D03*
Y63142D02*
D03*
X59051D02*
D03*
Y55858D02*
D03*
D43*
X63744Y67000D02*
D03*
X69256D02*
D03*
X42744Y56000D02*
D03*
X48256D02*
D03*
M02*
