G04*
G04 #@! TF.GenerationSoftware,Altium Limited,Altium Designer,20.2.6 (244)*
G04*
G04 Layer_Color=16711935*
%FSLAX25Y25*%
%MOIN*%
G70*
G04*
G04 #@! TF.SameCoordinates,3022D20F-0E7D-494E-A21C-2806337C0760*
G04*
G04*
G04 #@! TF.FilePolarity,Negative*
G04*
G01*
G75*
%ADD32R,0.04737X0.04737*%
%ADD33O,0.08083X0.04934*%
%ADD34C,0.08280*%
%ADD35C,0.05524*%
%ADD36C,0.02800*%
%ADD42R,0.03543X0.03937*%
%ADD43R,0.02756X0.02756*%
D32*
X33500Y22000D02*
D03*
Y28299D02*
D03*
X40000Y22000D02*
D03*
Y28299D02*
D03*
X46500Y22000D02*
D03*
Y28299D02*
D03*
D33*
X18968Y35925D02*
D03*
X5386D02*
D03*
Y64075D02*
D03*
X18968D02*
D03*
D34*
X52000Y91000D02*
D03*
X62000D02*
D03*
X72000D02*
D03*
X52000Y77000D02*
D03*
X62000D02*
D03*
X72000D02*
D03*
D35*
X34000Y6000D02*
D03*
X44000D02*
D03*
X64000D02*
D03*
X54000D02*
D03*
X74000D02*
D03*
X84000D02*
D03*
X96500Y18500D02*
D03*
Y28500D02*
D03*
Y48500D02*
D03*
Y38500D02*
D03*
Y58500D02*
D03*
Y68500D02*
D03*
D36*
X100500Y92000D02*
D03*
Y80000D02*
D03*
Y56000D02*
D03*
Y44000D02*
D03*
Y32000D02*
D03*
X97500Y14000D02*
D03*
X91500Y62000D02*
D03*
Y50000D02*
D03*
Y26000D02*
D03*
Y14000D02*
D03*
X94500Y8000D02*
D03*
X91500Y2000D02*
D03*
X88500Y80000D02*
D03*
X85500Y74000D02*
D03*
X88500Y56000D02*
D03*
X85500Y50000D02*
D03*
X88500Y32000D02*
D03*
X85500Y26000D02*
D03*
X88500Y20000D02*
D03*
X85500Y14000D02*
D03*
X88500Y8000D02*
D03*
X82500Y80000D02*
D03*
Y68000D02*
D03*
X79500Y2000D02*
D03*
X76500Y68000D02*
D03*
Y56000D02*
D03*
Y20000D02*
D03*
X73500Y14000D02*
D03*
X67500Y2000D02*
D03*
X61500D02*
D03*
X58500Y68000D02*
D03*
X55500Y38000D02*
D03*
X58500Y8000D02*
D03*
X49500Y2000D02*
D03*
X46500Y80000D02*
D03*
X43500Y74000D02*
D03*
X46500Y68000D02*
D03*
X40500Y92000D02*
D03*
X37500Y74000D02*
D03*
Y2000D02*
D03*
X34500Y80000D02*
D03*
X31500Y62000D02*
D03*
Y2000D02*
D03*
X25500Y62000D02*
D03*
X28500Y56000D02*
D03*
Y8000D02*
D03*
X25500Y2000D02*
D03*
X22500Y56000D02*
D03*
Y44000D02*
D03*
Y32000D02*
D03*
X19500Y26000D02*
D03*
X22500Y20000D02*
D03*
X19500Y14000D02*
D03*
X22500Y8000D02*
D03*
X19500Y2000D02*
D03*
X16500Y80000D02*
D03*
X13500Y26000D02*
D03*
X16500Y20000D02*
D03*
X13500Y14000D02*
D03*
X16500Y8000D02*
D03*
X13500Y2000D02*
D03*
X10500Y92000D02*
D03*
X7500Y50000D02*
D03*
X10500Y32000D02*
D03*
X7500Y26000D02*
D03*
X10500Y20000D02*
D03*
X7500Y14000D02*
D03*
X10500Y8000D02*
D03*
X7500Y2000D02*
D03*
X4500Y56000D02*
D03*
Y44000D02*
D03*
Y20000D02*
D03*
Y8000D02*
D03*
D42*
X52949Y55858D02*
D03*
Y63142D02*
D03*
X59051D02*
D03*
Y55858D02*
D03*
D43*
X63744Y67000D02*
D03*
X69256D02*
D03*
X42744Y56000D02*
D03*
X48256D02*
D03*
M02*
