G04*
G04 #@! TF.GenerationSoftware,Altium Limited,Altium Designer,20.2.6 (244)*
G04*
G04 Layer_Color=8388736*
%FSLAX25Y25*%
%MOIN*%
G70*
G04*
G04 #@! TF.SameCoordinates,3022D20F-0E7D-494E-A21C-2806337C0760*
G04*
G04*
G04 #@! TF.FilePolarity,Negative*
G04*
G01*
G75*
%ADD22R,0.03150X0.03150*%
%ADD23R,0.03150X0.03150*%
%ADD26R,0.06312X0.02375*%
%ADD27R,0.06509X0.03359*%
%ADD28R,0.05918X0.03162*%
%ADD29R,0.04737X0.03950*%
%ADD30R,0.04737X0.04343*%
%ADD31R,0.04737X0.04737*%
%ADD32R,0.04737X0.04737*%
%ADD33O,0.08083X0.04934*%
%ADD34C,0.08280*%
%ADD35C,0.05524*%
%ADD36C,0.02800*%
D22*
X96453Y89500D02*
D03*
X90547D02*
D03*
D23*
X80500Y38453D02*
D03*
Y32547D02*
D03*
Y45047D02*
D03*
Y50953D02*
D03*
D26*
X17000Y55118D02*
D03*
Y52559D02*
D03*
Y50000D02*
D03*
Y47441D02*
D03*
Y44882D02*
D03*
D27*
X44272Y62000D02*
D03*
Y57000D02*
D03*
Y52000D02*
D03*
Y47000D02*
D03*
Y42000D02*
D03*
Y37000D02*
D03*
Y32000D02*
D03*
Y27000D02*
D03*
X65728Y62000D02*
D03*
Y57000D02*
D03*
Y52000D02*
D03*
Y47000D02*
D03*
Y42000D02*
D03*
Y37000D02*
D03*
Y32000D02*
D03*
Y27000D02*
D03*
D28*
X15618Y83260D02*
D03*
Y87000D02*
D03*
Y90740D02*
D03*
X5382D02*
D03*
Y83260D02*
D03*
D29*
X96500Y84405D02*
D03*
Y78500D02*
D03*
D30*
X80500Y26650D02*
D03*
Y20350D02*
D03*
Y62650D02*
D03*
Y56350D02*
D03*
D31*
X11650Y76500D02*
D03*
X5350D02*
D03*
X28650Y83650D02*
D03*
X22350D02*
D03*
X28500Y77000D02*
D03*
X22201D02*
D03*
D32*
X83000Y91150D02*
D03*
Y84850D02*
D03*
D33*
X18968Y35925D02*
D03*
X5386D02*
D03*
Y64075D02*
D03*
X18968D02*
D03*
D34*
X52000Y91000D02*
D03*
X62000D02*
D03*
X72000D02*
D03*
X52000Y77000D02*
D03*
X62000D02*
D03*
X72000D02*
D03*
D35*
X34000Y6000D02*
D03*
X44000D02*
D03*
X64000D02*
D03*
X54000D02*
D03*
X74000D02*
D03*
X84000D02*
D03*
X96500Y18500D02*
D03*
Y28500D02*
D03*
Y48500D02*
D03*
Y38500D02*
D03*
Y58500D02*
D03*
Y68500D02*
D03*
D36*
X100500Y92000D02*
D03*
Y80000D02*
D03*
Y56000D02*
D03*
Y44000D02*
D03*
Y32000D02*
D03*
X97500Y14000D02*
D03*
X91500Y62000D02*
D03*
Y50000D02*
D03*
Y26000D02*
D03*
Y14000D02*
D03*
X94500Y8000D02*
D03*
X91500Y2000D02*
D03*
X88500Y80000D02*
D03*
X85500Y74000D02*
D03*
X88500Y56000D02*
D03*
X85500Y50000D02*
D03*
X88500Y32000D02*
D03*
X85500Y26000D02*
D03*
X88500Y20000D02*
D03*
X85500Y14000D02*
D03*
X88500Y8000D02*
D03*
X82500Y80000D02*
D03*
Y68000D02*
D03*
X79500Y2000D02*
D03*
X76500Y68000D02*
D03*
Y56000D02*
D03*
Y20000D02*
D03*
X73500Y14000D02*
D03*
X67500Y2000D02*
D03*
X61500D02*
D03*
X58500Y68000D02*
D03*
X55500Y38000D02*
D03*
X58500Y8000D02*
D03*
X49500Y2000D02*
D03*
X46500Y80000D02*
D03*
X43500Y74000D02*
D03*
X46500Y68000D02*
D03*
X40500Y92000D02*
D03*
X37500Y74000D02*
D03*
Y2000D02*
D03*
X34500Y80000D02*
D03*
X31500Y62000D02*
D03*
Y2000D02*
D03*
X25500Y62000D02*
D03*
X28500Y56000D02*
D03*
Y8000D02*
D03*
X25500Y2000D02*
D03*
X22500Y56000D02*
D03*
Y44000D02*
D03*
Y32000D02*
D03*
X19500Y26000D02*
D03*
X22500Y20000D02*
D03*
X19500Y14000D02*
D03*
X22500Y8000D02*
D03*
X19500Y2000D02*
D03*
X16500Y80000D02*
D03*
X13500Y26000D02*
D03*
X16500Y20000D02*
D03*
X13500Y14000D02*
D03*
X16500Y8000D02*
D03*
X13500Y2000D02*
D03*
X10500Y92000D02*
D03*
X7500Y50000D02*
D03*
X10500Y32000D02*
D03*
X7500Y26000D02*
D03*
X10500Y20000D02*
D03*
X7500Y14000D02*
D03*
X10500Y8000D02*
D03*
X7500Y2000D02*
D03*
X4500Y56000D02*
D03*
Y44000D02*
D03*
Y20000D02*
D03*
Y8000D02*
D03*
M02*
