G04*
G04 #@! TF.GenerationSoftware,Altium Limited,Altium Designer,20.2.6 (244)*
G04*
G04 Layer_Color=16711935*
%FSLAX25Y25*%
%MOIN*%
G70*
G04*
G04 #@! TF.SameCoordinates,3022D20F-0E7D-494E-A21C-2806337C0760*
G04*
G04*
G04 #@! TF.FilePolarity,Positive*
G04*
G01*
G75*
%ADD15C,0.00394*%
%ADD16C,0.00800*%
D15*
X61299Y28358D02*
X61036Y29342D01*
X60315Y30063D01*
X59331Y30327D01*
X58346Y30063D01*
X57626Y29342D01*
X57362Y28358D01*
X57626Y27374D01*
X58346Y26654D01*
X59331Y26390D01*
X60315Y26654D01*
X61036Y27374D01*
X61299Y28358D01*
X47126Y64185D02*
X62874D01*
X47126Y24815D02*
X62874D01*
X47126D02*
Y64185D01*
X62874Y24815D02*
Y64185D01*
X13256Y80996D02*
Y93004D01*
X7744Y80996D02*
Y93004D01*
Y80996D02*
X13256D01*
X7744Y93004D02*
X13256D01*
X94728Y84799D02*
X98272D01*
X94728Y78106D02*
X98272D01*
Y84799D01*
X94728Y78106D02*
Y84799D01*
X78630Y26846D02*
X82370D01*
X78630Y20154D02*
X82370D01*
Y26846D01*
X78630Y20154D02*
Y26846D01*
Y62846D02*
X82370D01*
X78630Y56154D02*
X82370D01*
Y62846D01*
X78630Y56154D02*
Y62846D01*
X35370Y21705D02*
Y28594D01*
X31630Y21705D02*
Y28594D01*
Y21705D02*
X35370D01*
X31630Y28594D02*
X35370D01*
X11945Y74630D02*
Y78370D01*
X5055Y74630D02*
Y78370D01*
Y74630D02*
X11945D01*
X5055Y78370D02*
X11945D01*
X28945Y81779D02*
Y85520D01*
X22055Y81779D02*
Y85520D01*
Y81779D02*
X28945D01*
X22055Y85520D02*
X28945D01*
X28795Y75130D02*
Y78870D01*
X21905Y75130D02*
Y78870D01*
Y75130D02*
X28795D01*
X21905Y78870D02*
X28795D01*
X84870Y84555D02*
Y91445D01*
X81130Y84555D02*
Y91445D01*
X84870D01*
X81130Y84555D02*
X84870D01*
X41870Y21705D02*
Y28594D01*
X38130Y21705D02*
Y28594D01*
Y21705D02*
X41870D01*
X38130Y28594D02*
X41870D01*
X48370Y21705D02*
Y28594D01*
X44630Y21705D02*
Y28594D01*
Y21705D02*
X48370D01*
X44630Y28594D02*
X48370D01*
D16*
X19868Y81619D02*
X20401Y81086D01*
X21468D01*
X22001Y81619D01*
Y83752D01*
X21468Y84285D01*
X20401D01*
X19868Y83752D01*
X18802Y81086D02*
X16669D01*
Y81619D01*
X18802Y83752D01*
Y84285D01*
X38001Y24705D02*
X37468Y25238D01*
Y26305D01*
X38001Y26838D01*
X40134D01*
X40667Y26305D01*
Y25238D01*
X40134Y24705D01*
X40667Y23639D02*
Y22572D01*
Y23106D01*
X37468D01*
X38001Y23639D01*
X32501Y26238D02*
X31968Y26772D01*
Y27838D01*
X32501Y28371D01*
X34634D01*
X35167Y27838D01*
Y26772D01*
X34634Y26238D01*
Y25172D02*
X35167Y24639D01*
Y23573D01*
X34634Y23039D01*
X32501D01*
X31968Y23573D01*
Y24639D01*
X32501Y25172D01*
X33034D01*
X33567Y24639D01*
Y23039D01*
X80970Y93632D02*
X80436Y93099D01*
Y92032D01*
X80970Y91499D01*
X83102D01*
X83635Y92032D01*
Y93099D01*
X83102Y93632D01*
X80970Y94698D02*
X80436Y95231D01*
Y96298D01*
X80970Y96831D01*
X81503D01*
X82036Y96298D01*
Y95764D01*
Y96298D01*
X82569Y96831D01*
X83102D01*
X83635Y96298D01*
Y95231D01*
X83102Y94698D01*
X15738Y76001D02*
X16272Y75468D01*
X17338D01*
X17871Y76001D01*
Y78134D01*
X17338Y78667D01*
X16272D01*
X15738Y78134D01*
X12539Y75468D02*
X13606Y76001D01*
X14672Y77067D01*
Y78134D01*
X14139Y78667D01*
X13072D01*
X12539Y78134D01*
Y77601D01*
X13072Y77067D01*
X14672D01*
X39001Y26238D02*
X38468Y26772D01*
Y27838D01*
X39001Y28371D01*
X41134D01*
X41667Y27838D01*
Y26772D01*
X41134Y26238D01*
X41667Y23039D02*
Y25172D01*
X39534Y23039D01*
X39001D01*
X38468Y23573D01*
Y24639D01*
X39001Y25172D01*
X8238Y75001D02*
X8771Y74468D01*
X9838D01*
X10371Y75001D01*
Y77134D01*
X9838Y77667D01*
X8771D01*
X8238Y77134D01*
X7172Y75001D02*
X6639Y74468D01*
X5573D01*
X5039Y75001D01*
Y75534D01*
X5573Y76067D01*
X5039Y76600D01*
Y77134D01*
X5573Y77667D01*
X6639D01*
X7172Y77134D01*
Y76600D01*
X6639Y76067D01*
X7172Y75534D01*
Y75001D01*
X6639Y76067D02*
X5573D01*
M02*
