G04*
G04 #@! TF.GenerationSoftware,Altium Limited,Altium Designer,20.2.6 (244)*
G04*
G04 Layer_Color=32768*
%FSLAX25Y25*%
%MOIN*%
G70*
G04*
G04 #@! TF.SameCoordinates,3022D20F-0E7D-494E-A21C-2806337C0760*
G04*
G04*
G04 #@! TF.FilePolarity,Positive*
G04*
G01*
G75*
%ADD15C,0.00394*%
%ADD44C,0.00197*%
D15*
X55000Y42531D02*
Y46468D01*
X53031Y44500D02*
X56968D01*
X8531Y87000D02*
X12468D01*
X10500Y85031D02*
Y88968D01*
X96500Y79681D02*
Y83224D01*
X94728Y81453D02*
X98272D01*
X31630Y25150D02*
X35370D01*
X33500Y23280D02*
Y27020D01*
X36453Y19047D02*
Y31252D01*
X30547Y19047D02*
Y31252D01*
Y19047D02*
X36453D01*
X30547Y31252D02*
X36453D01*
X14602Y73547D02*
Y79453D01*
X2398Y73547D02*
Y79453D01*
Y73547D02*
X14602D01*
X2398Y79453D02*
X14602D01*
X6630Y76500D02*
X10370D01*
X8500Y74630D02*
Y78370D01*
X31602Y80697D02*
Y86602D01*
X19398Y80697D02*
Y86602D01*
Y80697D02*
X31602D01*
X19398Y86602D02*
X31602D01*
X23630Y83650D02*
X27370D01*
X25500Y81779D02*
Y85520D01*
X31453Y74047D02*
Y79953D01*
X19248Y74047D02*
Y79953D01*
Y74047D02*
X31453D01*
X19248Y79953D02*
X31453D01*
X23480Y77000D02*
X27220D01*
X25350Y75130D02*
Y78870D01*
X81130Y88000D02*
X84870D01*
X83000Y86130D02*
Y89870D01*
X85953Y81898D02*
Y94102D01*
X80047Y81898D02*
Y94102D01*
X85953D01*
X80047Y81898D02*
X85953D01*
X38130Y25150D02*
X41870D01*
X40000Y23280D02*
Y27020D01*
X42953Y19047D02*
Y31252D01*
X37047Y19047D02*
Y31252D01*
Y19047D02*
X42953D01*
X37047Y31252D02*
X42953D01*
X44630Y25150D02*
X48370D01*
X46500Y23280D02*
Y27020D01*
X49453Y19047D02*
Y31252D01*
X43547Y19047D02*
Y31252D01*
Y19047D02*
X49453D01*
X43547Y31252D02*
X49453D01*
D44*
X40433Y65169D02*
X69567D01*
X40433Y23831D02*
X69567D01*
X40433D02*
Y65169D01*
X69567Y23831D02*
Y65169D01*
X18768Y79913D02*
Y94087D01*
X2232Y79913D02*
Y94087D01*
Y79913D02*
X18768D01*
X2232Y94087D02*
X18768D01*
X92563Y87949D02*
X100437D01*
X92563Y74957D02*
X100437D01*
Y87949D01*
X92563Y74957D02*
Y87949D01*
X77547Y29406D02*
X83453D01*
X77547Y17594D02*
X83453D01*
Y29406D01*
X77547Y17594D02*
Y29406D01*
X80500Y21630D02*
Y25370D01*
X78630Y23500D02*
X82370D01*
X77547Y65405D02*
X83453D01*
X77547Y53594D02*
X83453D01*
Y65405D01*
X77547Y53594D02*
Y65405D01*
X80500Y57630D02*
Y61370D01*
X78630Y59500D02*
X82370D01*
M02*
