G04*
G04 #@! TF.GenerationSoftware,Altium Limited,Altium Designer,20.2.6 (244)*
G04*
G04 Layer_Physical_Order=2*
G04 Layer_Color=16711680*
%FSLAX25Y25*%
%MOIN*%
G70*
G04*
G04 #@! TF.SameCoordinates,3022D20F-0E7D-494E-A21C-2806337C0760*
G04*
G04*
G04 #@! TF.FilePolarity,Positive*
G04*
G01*
G75*
%ADD12C,0.01000*%
%ADD25R,0.03937X0.03937*%
%ADD37O,0.07284X0.04134*%
%ADD38C,0.07480*%
%ADD39C,0.04724*%
%ADD40C,0.02000*%
%ADD41C,0.05000*%
%ADD42R,0.03543X0.03937*%
%ADD43R,0.02756X0.02756*%
G36*
X96536Y98862D02*
X97688Y98512D01*
X98750Y97944D01*
X99681Y97181D01*
X100444Y96250D01*
X101012Y95188D01*
X101362Y94036D01*
X101477Y92868D01*
X101471Y92838D01*
Y10000D01*
X101486Y9924D01*
X101321Y8246D01*
X100809Y6558D01*
X99978Y5004D01*
X98859Y3641D01*
X97496Y2522D01*
X95942Y1691D01*
X94254Y1180D01*
X92576Y1014D01*
X92500Y1029D01*
X7328D01*
X7296Y1023D01*
X6098Y1141D01*
X4914Y1500D01*
X3823Y2083D01*
X2867Y2867D01*
X2083Y3823D01*
X1500Y4914D01*
X1141Y6098D01*
X1023Y7296D01*
X1029Y7328D01*
Y33691D01*
X1529Y33861D01*
X1624Y33738D01*
X2265Y33246D01*
X3011Y32937D01*
X3811Y32832D01*
X4886D01*
Y35925D01*
Y39019D01*
X3811D01*
X3011Y38913D01*
X2265Y38604D01*
X1624Y38113D01*
X1529Y37990D01*
X1029Y38159D01*
Y61841D01*
X1529Y62011D01*
X1624Y61887D01*
X2265Y61396D01*
X3011Y61087D01*
X3811Y60981D01*
X4886D01*
Y64075D01*
X5386D01*
Y64575D01*
X9988D01*
X9949Y64875D01*
X9640Y65622D01*
X9148Y66262D01*
X8507Y66754D01*
X7761Y67063D01*
X7616Y67082D01*
X7476Y67605D01*
X7996Y68004D01*
X8038Y68058D01*
X8435Y68432D01*
X8615Y68578D01*
X8790Y68704D01*
X8948Y68803D01*
X9089Y68877D01*
X9210Y68928D01*
X9309Y68959D01*
X9369Y68971D01*
X45500D01*
X46085Y69087D01*
X46581Y69419D01*
X48925Y71762D01*
X48936Y71772D01*
X49052Y71843D01*
X49224Y71922D01*
X49455Y72000D01*
X49742Y72072D01*
X50083Y72135D01*
X50466Y72183D01*
X51422Y72238D01*
X51841Y72240D01*
X52000Y72219D01*
X52158Y72240D01*
X52578Y72238D01*
X53534Y72183D01*
X53917Y72135D01*
X54258Y72072D01*
X54545Y72000D01*
X54776Y71922D01*
X54948Y71843D01*
X55064Y71772D01*
X55075Y71762D01*
X56919Y69919D01*
X57415Y69587D01*
X58000Y69471D01*
X60905D01*
X61366Y69378D01*
X61366Y68971D01*
Y67558D01*
X61249Y67535D01*
X60753Y67203D01*
X59909Y66360D01*
X59749Y66210D01*
X59628Y66114D01*
X59623Y66110D01*
X59435D01*
X59397Y66118D01*
X59359Y66110D01*
X56279D01*
Y61339D01*
X56221Y61311D01*
X55721Y61628D01*
Y62642D01*
X53449D01*
Y60173D01*
X54251D01*
X54442Y59711D01*
X53807Y59076D01*
X53646Y58927D01*
X53526Y58830D01*
X53520Y58827D01*
X53332D01*
X53294Y58834D01*
X53256Y58827D01*
X50177D01*
Y58378D01*
X45878D01*
Y53891D01*
X45500Y53670D01*
X45122Y53891D01*
Y55500D01*
X42744D01*
X40366D01*
X40366Y53622D01*
X39904Y53529D01*
X18134D01*
X14081Y57581D01*
X13585Y57913D01*
X13000Y58029D01*
X10811D01*
X10280Y58384D01*
X9500Y58539D01*
X8720Y58384D01*
X8058Y57942D01*
X7616Y57280D01*
X7461Y56500D01*
X7616Y55720D01*
X8058Y55058D01*
X8720Y54616D01*
X9500Y54461D01*
X10280Y54616D01*
X10811Y54971D01*
X12366D01*
X16419Y50919D01*
X16915Y50587D01*
X17500Y50471D01*
X70689D01*
X71220Y50116D01*
X72000Y49961D01*
X72780Y50116D01*
X73442Y50558D01*
X73884Y51220D01*
X74039Y52000D01*
X73884Y52780D01*
X73442Y53442D01*
X72780Y53884D01*
X72000Y54039D01*
X71220Y53884D01*
X70689Y53529D01*
X61823D01*
Y55358D01*
X59051D01*
Y56358D01*
X61823D01*
Y57797D01*
X69040D01*
X69991Y56846D01*
X70116Y56220D01*
X70558Y55558D01*
X71220Y55116D01*
X72000Y54961D01*
X72780Y55116D01*
X73442Y55558D01*
X73884Y56220D01*
X74039Y57000D01*
X73884Y57780D01*
X73442Y58442D01*
X72780Y58884D01*
X72154Y59009D01*
X71580Y59583D01*
X71826Y60044D01*
X72244Y59961D01*
X73024Y60116D01*
X73686Y60558D01*
X74128Y61220D01*
X74283Y62000D01*
X74128Y62780D01*
X73686Y63442D01*
X73024Y63884D01*
X72244Y64039D01*
X71464Y63884D01*
X70933Y63529D01*
X69378D01*
X68747Y64160D01*
X68756Y64182D01*
Y67000D01*
X69256D01*
Y67500D01*
X71634D01*
X71634Y69378D01*
X72096Y69471D01*
X86866D01*
X94509Y61828D01*
X94539Y61749D01*
X94557Y61417D01*
X94454Y61176D01*
X94452Y61175D01*
X94440Y61157D01*
X94102Y60898D01*
X93563Y60196D01*
X93224Y59378D01*
X93109Y58500D01*
X93224Y57622D01*
X93563Y56804D01*
X94102Y56102D01*
X94804Y55563D01*
X95622Y55224D01*
X96500Y55109D01*
X97378Y55224D01*
X98196Y55563D01*
X98898Y56102D01*
X99437Y56804D01*
X99776Y57622D01*
X99891Y58500D01*
X99776Y59378D01*
X99437Y60196D01*
X98898Y60898D01*
X98560Y61157D01*
X98548Y61175D01*
X98486Y61217D01*
X98435Y61273D01*
X98314Y61362D01*
X98243Y61425D01*
X98187Y61486D01*
X98143Y61545D01*
X98107Y61603D01*
X98078Y61665D01*
X98055Y61732D01*
X98037Y61809D01*
X98029Y61865D01*
Y62000D01*
X97913Y62585D01*
X97581Y63081D01*
X95991Y64671D01*
X96225Y65145D01*
X96500Y65109D01*
X97378Y65224D01*
X98196Y65563D01*
X98898Y66102D01*
X99437Y66804D01*
X99776Y67622D01*
X99891Y68500D01*
X99776Y69378D01*
X99437Y70196D01*
X98898Y70898D01*
X98196Y71437D01*
X97378Y71776D01*
X96500Y71891D01*
X96441Y71883D01*
X95941Y71900D01*
X95734Y71922D01*
X95543Y71954D01*
X95378Y71993D01*
X95242Y72037D01*
X95132Y72083D01*
X95048Y72129D01*
X95004Y72158D01*
X89081Y78081D01*
X88585Y78413D01*
X88000Y78529D01*
X77878D01*
X77863Y78531D01*
X77731Y78562D01*
X77554Y78628D01*
X77335Y78736D01*
X77081Y78887D01*
X76796Y79085D01*
X76491Y79322D01*
X75776Y79959D01*
X75478Y80254D01*
X75381Y80381D01*
X74391Y81141D01*
X73237Y81618D01*
X72000Y81781D01*
X71842Y81760D01*
X71422Y81762D01*
X70466Y81817D01*
X70083Y81865D01*
X69742Y81928D01*
X69455Y82000D01*
X69224Y82078D01*
X69052Y82157D01*
X68936Y82228D01*
X68925Y82238D01*
X67081Y84081D01*
X66585Y84413D01*
X66000Y84529D01*
X45869D01*
X45810Y84541D01*
X45710Y84572D01*
X45589Y84623D01*
X45448Y84697D01*
X45290Y84796D01*
X45126Y84914D01*
X44717Y85265D01*
X44544Y85434D01*
X44496Y85496D01*
X43765Y86057D01*
X42914Y86410D01*
X42000Y86530D01*
X41086Y86410D01*
X40235Y86057D01*
X39504Y85496D01*
X38943Y84765D01*
X38590Y83914D01*
X38470Y83000D01*
X38590Y82086D01*
X38943Y81235D01*
X39504Y80504D01*
X40235Y79943D01*
X41086Y79590D01*
X42000Y79470D01*
X42914Y79590D01*
X43765Y79943D01*
X44496Y80504D01*
X44538Y80558D01*
X44936Y80932D01*
X45115Y81078D01*
X45290Y81204D01*
X45448Y81303D01*
X45589Y81377D01*
X45710Y81428D01*
X45810Y81459D01*
X45869Y81471D01*
X49218D01*
X49388Y80971D01*
X48619Y80381D01*
X47859Y79391D01*
X47382Y78237D01*
X47219Y77000D01*
X47240Y76841D01*
X47238Y76422D01*
X47183Y75466D01*
X47135Y75083D01*
X47072Y74742D01*
X47000Y74455D01*
X46922Y74224D01*
X46843Y74052D01*
X46772Y73936D01*
X46762Y73925D01*
X44866Y72029D01*
X9369D01*
X9309Y72041D01*
X9210Y72072D01*
X9089Y72123D01*
X8948Y72197D01*
X8790Y72296D01*
X8626Y72414D01*
X8217Y72765D01*
X8044Y72934D01*
X7996Y72996D01*
X7265Y73557D01*
X6414Y73910D01*
X5500Y74030D01*
X4586Y73910D01*
X3735Y73557D01*
X3004Y72996D01*
X2443Y72265D01*
X2090Y71414D01*
X1970Y70500D01*
X2090Y69586D01*
X2443Y68735D01*
X3004Y68004D01*
X3491Y67630D01*
X3350Y67107D01*
X3011Y67063D01*
X2265Y66754D01*
X1624Y66262D01*
X1529Y66139D01*
X1029Y66309D01*
Y92838D01*
X1023Y92868D01*
X1138Y94036D01*
X1488Y95188D01*
X2056Y96250D01*
X2819Y97181D01*
X3750Y97944D01*
X4812Y98512D01*
X5964Y98862D01*
X7132Y98977D01*
X7162Y98971D01*
X95338D01*
X95368Y98977D01*
X96536Y98862D01*
D02*
G37*
G36*
X44028Y84513D02*
X44495Y84113D01*
X44720Y83950D01*
X44939Y83812D01*
X45153Y83700D01*
X45360Y83613D01*
X45562Y83550D01*
X45759Y83513D01*
X45950Y83500D01*
Y82500D01*
X45759Y82487D01*
X45562Y82450D01*
X45360Y82388D01*
X45153Y82300D01*
X44939Y82187D01*
X44720Y82050D01*
X44495Y81888D01*
X44264Y81700D01*
X43785Y81250D01*
Y84750D01*
X44028Y84513D01*
D02*
G37*
G36*
X68337Y81400D02*
X68571Y81256D01*
X68847Y81130D01*
X69165Y81021D01*
X69525Y80931D01*
X69928Y80857D01*
X70373Y80801D01*
X71391Y80743D01*
X71963Y80740D01*
X68260Y77037D01*
X68257Y77609D01*
X68199Y78627D01*
X68143Y79072D01*
X68069Y79475D01*
X67979Y79835D01*
X67870Y80153D01*
X67744Y80429D01*
X67600Y80663D01*
X67439Y80854D01*
X68146Y81561D01*
X68337Y81400D01*
D02*
G37*
G36*
X75077Y79216D02*
X75838Y78538D01*
X76192Y78263D01*
X76529Y78030D01*
X76848Y77839D01*
X77150Y77691D01*
X77434Y77585D01*
X77701Y77521D01*
X77951Y77500D01*
Y76500D01*
X77701Y76479D01*
X77434Y76415D01*
X77150Y76309D01*
X76848Y76161D01*
X76529Y75971D01*
X76192Y75738D01*
X75838Y75462D01*
X75077Y74784D01*
X74671Y74382D01*
Y79618D01*
X75077Y79216D01*
D02*
G37*
G36*
X55743Y76391D02*
X55801Y75374D01*
X55857Y74928D01*
X55931Y74525D01*
X56021Y74165D01*
X56130Y73847D01*
X56256Y73571D01*
X56400Y73337D01*
X56561Y73146D01*
X55854Y72439D01*
X55663Y72600D01*
X55429Y72744D01*
X55153Y72870D01*
X54835Y72979D01*
X54475Y73070D01*
X54072Y73143D01*
X53627Y73199D01*
X52609Y73257D01*
X52037Y73260D01*
X55740Y76963D01*
X55743Y76391D01*
D02*
G37*
G36*
X51963Y73260D02*
X51391Y73257D01*
X50374Y73199D01*
X49928Y73143D01*
X49525Y73070D01*
X49165Y72979D01*
X48847Y72870D01*
X48571Y72744D01*
X48337Y72600D01*
X48146Y72439D01*
X47439Y73146D01*
X47600Y73337D01*
X47744Y73571D01*
X47870Y73847D01*
X47979Y74165D01*
X48070Y74525D01*
X48143Y74928D01*
X48199Y75374D01*
X48257Y76391D01*
X48260Y76963D01*
X51963Y73260D01*
D02*
G37*
G36*
X7527Y72013D02*
X7995Y71613D01*
X8220Y71450D01*
X8439Y71312D01*
X8653Y71200D01*
X8860Y71113D01*
X9063Y71050D01*
X9259Y71013D01*
X9449Y71000D01*
Y70000D01*
X9259Y69987D01*
X9063Y69950D01*
X8860Y69888D01*
X8653Y69800D01*
X8439Y69687D01*
X8220Y69550D01*
X7995Y69388D01*
X7764Y69200D01*
X7285Y68750D01*
Y72250D01*
X7527Y72013D01*
D02*
G37*
G36*
X94357Y71366D02*
X94515Y71258D01*
X94692Y71162D01*
X94888Y71080D01*
X95104Y71011D01*
X95340Y70955D01*
X95595Y70912D01*
X95869Y70882D01*
X96476Y70862D01*
X94138Y68524D01*
X94135Y68837D01*
X94088Y69405D01*
X94046Y69660D01*
X93989Y69896D01*
X93920Y70112D01*
X93838Y70308D01*
X93742Y70485D01*
X93634Y70643D01*
X93512Y70781D01*
X94219Y71488D01*
X94357Y71366D01*
D02*
G37*
G36*
X92842Y69996D02*
X92871Y69952D01*
X92917Y69868D01*
X92963Y69758D01*
X93007Y69622D01*
X93046Y69457D01*
X93076Y69279D01*
X93115Y68790D01*
X93118Y68568D01*
X93109Y68500D01*
X93145Y68225D01*
X92671Y67992D01*
X88581Y72081D01*
X88085Y72413D01*
X87500Y72529D01*
X74782D01*
X74612Y73029D01*
X75381Y73619D01*
X75478Y73746D01*
X75776Y74041D01*
X76491Y74678D01*
X76796Y74915D01*
X77081Y75113D01*
X77335Y75264D01*
X77554Y75372D01*
X77732Y75438D01*
X77863Y75469D01*
X77878Y75471D01*
X87366D01*
X92842Y69996D01*
D02*
G37*
G36*
X62378Y65634D02*
X61835Y65622D01*
Y66622D01*
X61940Y66623D01*
X62368Y66650D01*
X62384Y66657D01*
X62390Y66666D01*
X62378Y65634D01*
D02*
G37*
G36*
X61518Y65098D02*
X61320Y64893D01*
X61009Y64526D01*
X60896Y64363D01*
X60811Y64214D01*
X60754Y64080D01*
X60726Y63960D01*
Y63854D01*
X60754Y63762D01*
X60811Y63684D01*
X59397Y65098D01*
X59474Y65042D01*
X59566Y65013D01*
X59672D01*
X59793Y65042D01*
X59927Y65098D01*
X60075Y65183D01*
X60238Y65296D01*
X60415Y65438D01*
X60811Y65805D01*
X61518Y65098D01*
D02*
G37*
G36*
X65053Y66970D02*
X65025Y66879D01*
Y66773D01*
X65053Y66652D01*
X65110Y66518D01*
X65195Y66369D01*
X65308Y66207D01*
X65450Y66030D01*
X65817Y65634D01*
X65110Y64927D01*
X64905Y65125D01*
X64537Y65436D01*
X64375Y65549D01*
X64226Y65634D01*
X64092Y65691D01*
X63972Y65719D01*
X63866D01*
X63774Y65691D01*
X63696Y65634D01*
X65110Y67048D01*
X65053Y66970D01*
D02*
G37*
G36*
X71530Y61300D02*
X71487Y61338D01*
X71437Y61372D01*
X71380Y61402D01*
X71315Y61428D01*
X71244Y61450D01*
X71165Y61468D01*
X71079Y61482D01*
X70986Y61492D01*
X70778Y61500D01*
Y62500D01*
X70886Y62502D01*
X71079Y62518D01*
X71165Y62532D01*
X71244Y62550D01*
X71315Y62572D01*
X71380Y62598D01*
X71437Y62628D01*
X71487Y62662D01*
X71530Y62700D01*
Y61300D01*
D02*
G37*
G36*
X97008Y61807D02*
X97033Y61623D01*
X97075Y61448D01*
X97132Y61280D01*
X97207Y61121D01*
X97298Y60971D01*
X97405Y60829D01*
X97530Y60696D01*
X97670Y60571D01*
X97827Y60454D01*
X95173D01*
X95330Y60571D01*
X95470Y60696D01*
X95595Y60829D01*
X95702Y60971D01*
X95793Y61121D01*
X95868Y61280D01*
X95925Y61448D01*
X95967Y61623D01*
X95992Y61807D01*
X96000Y62000D01*
X97000D01*
X97008Y61807D01*
D02*
G37*
G36*
X55416Y57815D02*
X55218Y57610D01*
X54906Y57242D01*
X54793Y57079D01*
X54708Y56931D01*
X54652Y56796D01*
X54624Y56676D01*
Y56570D01*
X54652Y56478D01*
X54708Y56401D01*
X53294Y57815D01*
X53372Y57758D01*
X53464Y57730D01*
X53570D01*
X53690Y57758D01*
X53825Y57815D01*
X53973Y57900D01*
X54136Y58013D01*
X54312Y58154D01*
X54708Y58522D01*
X55416Y57815D01*
D02*
G37*
G36*
X71394Y58315D02*
X71543Y58190D01*
X71613Y58139D01*
X71682Y58096D01*
X71748Y58061D01*
X71812Y58034D01*
X71873Y58015D01*
X71933Y58003D01*
X71990Y58000D01*
X71000Y57010D01*
X70997Y57067D01*
X70985Y57126D01*
X70966Y57188D01*
X70939Y57252D01*
X70904Y57318D01*
X70861Y57387D01*
X70810Y57457D01*
X70751Y57530D01*
X70610Y57683D01*
X71317Y58390D01*
X71394Y58315D01*
D02*
G37*
G36*
X51201Y55000D02*
X51191Y55095D01*
X51161Y55180D01*
X51110Y55255D01*
X51039Y55320D01*
X50948Y55375D01*
X50837Y55420D01*
X50705Y55455D01*
X50554Y55480D01*
X50406Y55493D01*
X50257Y55480D01*
X50106Y55455D01*
X49974Y55420D01*
X49863Y55375D01*
X49772Y55320D01*
X49701Y55255D01*
X49650Y55180D01*
X49620Y55095D01*
X49610Y55000D01*
Y57000D01*
X49620Y56905D01*
X49650Y56820D01*
X49701Y56745D01*
X49772Y56680D01*
X49863Y56625D01*
X49974Y56580D01*
X50106Y56545D01*
X50257Y56520D01*
X50406Y56507D01*
X50554Y56520D01*
X50705Y56545D01*
X50837Y56580D01*
X50948Y56625D01*
X51039Y56680D01*
X51110Y56745D01*
X51161Y56820D01*
X51191Y56905D01*
X51201Y57000D01*
Y55000D01*
D02*
G37*
G36*
X10257Y57162D02*
X10307Y57128D01*
X10364Y57098D01*
X10429Y57072D01*
X10500Y57050D01*
X10579Y57032D01*
X10665Y57018D01*
X10758Y57008D01*
X10966Y57000D01*
Y56000D01*
X10859Y55998D01*
X10665Y55982D01*
X10579Y55968D01*
X10500Y55950D01*
X10429Y55928D01*
X10364Y55902D01*
X10307Y55872D01*
X10257Y55838D01*
X10214Y55800D01*
Y57200D01*
X10257Y57162D01*
D02*
G37*
G36*
X71286Y51300D02*
X71243Y51338D01*
X71193Y51372D01*
X71136Y51402D01*
X71071Y51428D01*
X71000Y51450D01*
X70921Y51468D01*
X70835Y51482D01*
X70742Y51492D01*
X70534Y51500D01*
Y52500D01*
X70641Y52502D01*
X70835Y52518D01*
X70921Y52532D01*
X71000Y52550D01*
X71071Y52572D01*
X71136Y52598D01*
X71193Y52628D01*
X71243Y52662D01*
X71286Y52700D01*
Y51300D01*
D02*
G37*
%LPC*%
G36*
X72000Y95781D02*
X70763Y95618D01*
X69609Y95140D01*
X68619Y94381D01*
X67860Y93391D01*
X67382Y92237D01*
X67252Y91252D01*
X66748D01*
X66618Y92237D01*
X66141Y93391D01*
X65381Y94381D01*
X64390Y95140D01*
X63237Y95618D01*
X62000Y95781D01*
X60763Y95618D01*
X59610Y95140D01*
X58619Y94381D01*
X57859Y93391D01*
X57382Y92237D01*
X57252Y91252D01*
X56748D01*
X56618Y92237D01*
X56141Y93391D01*
X55381Y94381D01*
X54391Y95140D01*
X53237Y95618D01*
X52000Y95781D01*
X50763Y95618D01*
X49610Y95140D01*
X48619Y94381D01*
X47859Y93391D01*
X47382Y92237D01*
X47219Y91000D01*
X47382Y89763D01*
X47859Y88609D01*
X48619Y87619D01*
X49610Y86860D01*
X50763Y86382D01*
X52000Y86219D01*
X53237Y86382D01*
X54391Y86860D01*
X55381Y87619D01*
X56141Y88609D01*
X56618Y89763D01*
X56748Y90748D01*
X57252D01*
X57382Y89763D01*
X57859Y88609D01*
X58619Y87619D01*
X59610Y86860D01*
X60763Y86382D01*
X62000Y86219D01*
X63237Y86382D01*
X64390Y86860D01*
X65381Y87619D01*
X66141Y88609D01*
X66618Y89763D01*
X66748Y90748D01*
X67252D01*
X67382Y89763D01*
X67860Y88609D01*
X68619Y87619D01*
X69609Y86860D01*
X70763Y86382D01*
X72000Y86219D01*
X73237Y86382D01*
X74391Y86860D01*
X75381Y87619D01*
X76140Y88609D01*
X76618Y89763D01*
X76781Y91000D01*
X76618Y92237D01*
X76140Y93391D01*
X75381Y94381D01*
X74391Y95140D01*
X73237Y95618D01*
X72000Y95781D01*
D02*
G37*
G36*
X71634Y66500D02*
X69756D01*
Y64622D01*
X71634D01*
Y66500D01*
D02*
G37*
G36*
X20543Y67168D02*
X19468D01*
Y64575D01*
X23570D01*
X23531Y64875D01*
X23222Y65622D01*
X22730Y66262D01*
X22090Y66754D01*
X21343Y67063D01*
X20543Y67168D01*
D02*
G37*
G36*
X18468D02*
X17393D01*
X16593Y67063D01*
X15846Y66754D01*
X15206Y66262D01*
X14714Y65622D01*
X14405Y64875D01*
X14366Y64575D01*
X18468D01*
Y67168D01*
D02*
G37*
G36*
X55721Y66110D02*
X53449D01*
Y63642D01*
X55721D01*
Y66110D01*
D02*
G37*
G36*
X52449D02*
X50177D01*
Y63642D01*
X52449D01*
Y66110D01*
D02*
G37*
G36*
X23570Y63575D02*
X19468D01*
Y60981D01*
X20543D01*
X21343Y61087D01*
X22090Y61396D01*
X22730Y61887D01*
X23222Y62528D01*
X23531Y63274D01*
X23570Y63575D01*
D02*
G37*
G36*
X18468D02*
X14366D01*
X14405Y63274D01*
X14714Y62528D01*
X15206Y61887D01*
X15846Y61396D01*
X16593Y61087D01*
X17393Y60981D01*
X18468D01*
Y63575D01*
D02*
G37*
G36*
X9988D02*
X5886D01*
Y60981D01*
X6961D01*
X7761Y61087D01*
X8507Y61396D01*
X9148Y61887D01*
X9640Y62528D01*
X9949Y63274D01*
X9988Y63575D01*
D02*
G37*
G36*
X52449Y62642D02*
X50177D01*
Y60173D01*
X52449D01*
Y62642D01*
D02*
G37*
G36*
X86500Y66030D02*
X85586Y65910D01*
X84735Y65557D01*
X84004Y64996D01*
X83443Y64265D01*
X83090Y63414D01*
X82970Y62500D01*
X82979Y62432D01*
X82962Y61887D01*
X82938Y61656D01*
X82904Y61444D01*
X82862Y61261D01*
X82815Y61110D01*
X82766Y60988D01*
X82717Y60896D01*
X82682Y60845D01*
X78304Y56467D01*
X77972Y55970D01*
X77856Y55385D01*
Y51483D01*
X74322Y47949D01*
X73708Y48043D01*
X73442Y48442D01*
X72780Y48884D01*
X72000Y49039D01*
X71220Y48884D01*
X70689Y48529D01*
X10500D01*
X10275Y48485D01*
X10000Y48539D01*
X9220Y48384D01*
X8558Y47942D01*
X8116Y47280D01*
X7961Y46500D01*
X8116Y45720D01*
X8558Y45058D01*
X9220Y44616D01*
X10000Y44461D01*
X10780Y44616D01*
X11442Y45058D01*
X11718Y45471D01*
X70689D01*
X70957Y45292D01*
X71051Y44679D01*
X57051Y30678D01*
X56948Y30732D01*
X56790Y30832D01*
X56626Y30950D01*
X56217Y31300D01*
X56044Y31470D01*
X55996Y31532D01*
X55265Y32093D01*
X54414Y32445D01*
X53500Y32566D01*
X52586Y32445D01*
X51735Y32093D01*
X51004Y31532D01*
X50443Y30801D01*
X50345Y30565D01*
X49468D01*
Y31268D01*
X43532D01*
Y29829D01*
X42968D01*
Y31268D01*
X37031D01*
Y29829D01*
X36468D01*
Y31268D01*
X30531D01*
Y25469D01*
X30531Y25331D01*
Y24969D01*
X30531Y24831D01*
Y22500D01*
X33500D01*
X36468D01*
Y24831D01*
X36468Y24969D01*
Y25331D01*
X36468Y25469D01*
Y26770D01*
X37031D01*
Y25469D01*
X37031Y25331D01*
Y24969D01*
X37031Y24831D01*
Y22500D01*
X40000D01*
X42968D01*
Y24831D01*
X42968Y24969D01*
Y25331D01*
X42968Y25469D01*
Y26770D01*
X43532D01*
Y25469D01*
X43532Y25331D01*
Y24969D01*
X43532Y24831D01*
Y22500D01*
X46500D01*
X49468D01*
Y24831D01*
X49468Y24969D01*
Y25331D01*
X49468Y25469D01*
Y27506D01*
X50345D01*
X50443Y27270D01*
X51004Y26539D01*
X51735Y25978D01*
X52586Y25626D01*
X53500Y25505D01*
X54414Y25626D01*
X55265Y25978D01*
X55996Y26539D01*
X56038Y26594D01*
X56436Y26967D01*
X56615Y27113D01*
X56790Y27239D01*
X56948Y27339D01*
X57089Y27413D01*
X57210Y27464D01*
X57310Y27495D01*
X57370Y27506D01*
X57571D01*
X58156Y27623D01*
X58653Y27954D01*
X80467Y49768D01*
X80798Y50264D01*
X80914Y50849D01*
Y54752D01*
X84845Y58682D01*
X84896Y58717D01*
X84988Y58766D01*
X85110Y58815D01*
X85261Y58862D01*
X85444Y58904D01*
X85643Y58936D01*
X86180Y58978D01*
X86423Y58980D01*
X86500Y58970D01*
X87414Y59090D01*
X88265Y59443D01*
X88996Y60004D01*
X89557Y60735D01*
X89910Y61586D01*
X90030Y62500D01*
X89910Y63414D01*
X89557Y64265D01*
X88996Y64996D01*
X88265Y65557D01*
X87414Y65910D01*
X86500Y66030D01*
D02*
G37*
G36*
X45122Y58378D02*
X43244D01*
Y56500D01*
X45122D01*
Y58378D01*
D02*
G37*
G36*
X42244D02*
X40366D01*
Y56500D01*
X42244D01*
Y58378D01*
D02*
G37*
G36*
X96500Y51891D02*
X95622Y51776D01*
X94804Y51437D01*
X94102Y50898D01*
X93563Y50196D01*
X93224Y49378D01*
X93109Y48500D01*
X93224Y47622D01*
X93563Y46804D01*
X94102Y46102D01*
X94804Y45563D01*
X95622Y45224D01*
X96500Y45109D01*
X97378Y45224D01*
X98196Y45563D01*
X98898Y46102D01*
X99437Y46804D01*
X99776Y47622D01*
X99891Y48500D01*
X99776Y49378D01*
X99437Y50196D01*
X98898Y50898D01*
X98196Y51437D01*
X97378Y51776D01*
X96500Y51891D01*
D02*
G37*
G36*
X20543Y39019D02*
X19468D01*
Y36425D01*
X23570D01*
X23531Y36726D01*
X23222Y37472D01*
X22730Y38113D01*
X22090Y38604D01*
X21343Y38913D01*
X20543Y39019D01*
D02*
G37*
G36*
X6961D02*
X5886D01*
Y36425D01*
X9988D01*
X9949Y36726D01*
X9640Y37472D01*
X9148Y38113D01*
X8507Y38604D01*
X7761Y38913D01*
X6961Y39019D01*
D02*
G37*
G36*
X18468D02*
X17393D01*
X16593Y38913D01*
X15846Y38604D01*
X15206Y38113D01*
X14714Y37472D01*
X14405Y36726D01*
X14366Y36425D01*
X18468D01*
Y39019D01*
D02*
G37*
G36*
X96500Y41891D02*
X95622Y41776D01*
X94804Y41437D01*
X94102Y40898D01*
X93563Y40196D01*
X93224Y39378D01*
X93109Y38500D01*
X93224Y37622D01*
X93563Y36804D01*
X94102Y36102D01*
X94804Y35563D01*
X95622Y35224D01*
X96500Y35109D01*
X97378Y35224D01*
X98196Y35563D01*
X98898Y36102D01*
X99437Y36804D01*
X99776Y37622D01*
X99891Y38500D01*
X99776Y39378D01*
X99437Y40196D01*
X98898Y40898D01*
X98196Y41437D01*
X97378Y41776D01*
X96500Y41891D01*
D02*
G37*
G36*
X23570Y35425D02*
X19468D01*
Y32832D01*
X20543D01*
X21343Y32937D01*
X22090Y33246D01*
X22730Y33738D01*
X23222Y34378D01*
X23531Y35125D01*
X23570Y35425D01*
D02*
G37*
G36*
X18468D02*
X14366D01*
X14405Y35125D01*
X14714Y34378D01*
X15206Y33738D01*
X15846Y33246D01*
X16593Y32937D01*
X17393Y32832D01*
X18468D01*
Y35425D01*
D02*
G37*
G36*
X9988D02*
X5886D01*
Y32832D01*
X6961D01*
X7761Y32937D01*
X8507Y33246D01*
X9148Y33738D01*
X9640Y34378D01*
X9949Y35125D01*
X9988Y35425D01*
D02*
G37*
G36*
X97000Y31825D02*
Y29000D01*
X99825D01*
X99776Y29378D01*
X99437Y30196D01*
X98898Y30898D01*
X98196Y31437D01*
X97378Y31776D01*
X97000Y31825D01*
D02*
G37*
G36*
X96000D02*
X95622Y31776D01*
X94804Y31437D01*
X94102Y30898D01*
X93563Y30196D01*
X93224Y29378D01*
X93175Y29000D01*
X96000D01*
Y31825D01*
D02*
G37*
G36*
X99825Y28000D02*
X97000D01*
Y25175D01*
X97378Y25224D01*
X98196Y25563D01*
X98898Y26102D01*
X99437Y26804D01*
X99776Y27622D01*
X99825Y28000D01*
D02*
G37*
G36*
X96000D02*
X93175D01*
X93224Y27622D01*
X93563Y26804D01*
X94102Y26102D01*
X94804Y25563D01*
X95622Y25224D01*
X96000Y25175D01*
Y28000D01*
D02*
G37*
G36*
X49468Y21500D02*
X47000D01*
Y19031D01*
X49468D01*
Y21500D01*
D02*
G37*
G36*
X46000D02*
X43532D01*
Y19031D01*
X46000D01*
Y21500D01*
D02*
G37*
G36*
X42968D02*
X40500D01*
Y19031D01*
X42968D01*
Y21500D01*
D02*
G37*
G36*
X39500D02*
X37031D01*
Y19031D01*
X39500D01*
Y21500D01*
D02*
G37*
G36*
X36468D02*
X34000D01*
Y19031D01*
X36468D01*
Y21500D01*
D02*
G37*
G36*
X33000D02*
X30531D01*
Y19031D01*
X33000D01*
Y21500D01*
D02*
G37*
G36*
X97000Y21825D02*
Y19000D01*
X99825D01*
X99776Y19378D01*
X99437Y20196D01*
X98898Y20898D01*
X98196Y21437D01*
X97378Y21776D01*
X97000Y21825D01*
D02*
G37*
G36*
X96000D02*
X95622Y21776D01*
X94804Y21437D01*
X94102Y20898D01*
X93563Y20196D01*
X93224Y19378D01*
X93175Y19000D01*
X96000D01*
Y21825D01*
D02*
G37*
G36*
X99825Y18000D02*
X97000D01*
Y15175D01*
X97378Y15224D01*
X98196Y15563D01*
X98898Y16102D01*
X99437Y16804D01*
X99776Y17622D01*
X99825Y18000D01*
D02*
G37*
G36*
X96000D02*
X93175D01*
X93224Y17622D01*
X93563Y16804D01*
X94102Y16102D01*
X94804Y15563D01*
X95622Y15224D01*
X96000Y15175D01*
Y18000D01*
D02*
G37*
G36*
X84000Y9391D02*
X83122Y9276D01*
X82304Y8937D01*
X81602Y8398D01*
X81063Y7696D01*
X80724Y6878D01*
X80609Y6000D01*
X80724Y5122D01*
X81063Y4304D01*
X81602Y3602D01*
X82304Y3063D01*
X83122Y2724D01*
X84000Y2609D01*
X84878Y2724D01*
X85696Y3063D01*
X86398Y3602D01*
X86937Y4304D01*
X87276Y5122D01*
X87391Y6000D01*
X87276Y6878D01*
X86937Y7696D01*
X86398Y8398D01*
X85696Y8937D01*
X84878Y9276D01*
X84000Y9391D01*
D02*
G37*
G36*
X74000D02*
X73122Y9276D01*
X72304Y8937D01*
X71602Y8398D01*
X71063Y7696D01*
X70724Y6878D01*
X70609Y6000D01*
X70724Y5122D01*
X71063Y4304D01*
X71602Y3602D01*
X72304Y3063D01*
X73122Y2724D01*
X74000Y2609D01*
X74878Y2724D01*
X75696Y3063D01*
X76398Y3602D01*
X76937Y4304D01*
X77276Y5122D01*
X77391Y6000D01*
X77276Y6878D01*
X76937Y7696D01*
X76398Y8398D01*
X75696Y8937D01*
X74878Y9276D01*
X74000Y9391D01*
D02*
G37*
G36*
X64000D02*
X63122Y9276D01*
X62304Y8937D01*
X61602Y8398D01*
X61063Y7696D01*
X60724Y6878D01*
X60609Y6000D01*
X60724Y5122D01*
X61063Y4304D01*
X61602Y3602D01*
X62304Y3063D01*
X63122Y2724D01*
X64000Y2609D01*
X64878Y2724D01*
X65696Y3063D01*
X66398Y3602D01*
X66937Y4304D01*
X67276Y5122D01*
X67391Y6000D01*
X67276Y6878D01*
X66937Y7696D01*
X66398Y8398D01*
X65696Y8937D01*
X64878Y9276D01*
X64000Y9391D01*
D02*
G37*
G36*
X54000D02*
X53122Y9276D01*
X52304Y8937D01*
X51602Y8398D01*
X51063Y7696D01*
X50724Y6878D01*
X50609Y6000D01*
X50724Y5122D01*
X51063Y4304D01*
X51602Y3602D01*
X52304Y3063D01*
X53122Y2724D01*
X54000Y2609D01*
X54878Y2724D01*
X55696Y3063D01*
X56398Y3602D01*
X56937Y4304D01*
X57276Y5122D01*
X57391Y6000D01*
X57276Y6878D01*
X56937Y7696D01*
X56398Y8398D01*
X55696Y8937D01*
X54878Y9276D01*
X54000Y9391D01*
D02*
G37*
G36*
X44000D02*
X43122Y9276D01*
X42304Y8937D01*
X41602Y8398D01*
X41063Y7696D01*
X40724Y6878D01*
X40609Y6000D01*
X40724Y5122D01*
X41063Y4304D01*
X41602Y3602D01*
X42304Y3063D01*
X43122Y2724D01*
X44000Y2609D01*
X44878Y2724D01*
X45696Y3063D01*
X46398Y3602D01*
X46937Y4304D01*
X47276Y5122D01*
X47391Y6000D01*
X47276Y6878D01*
X46937Y7696D01*
X46398Y8398D01*
X45696Y8937D01*
X44878Y9276D01*
X44000Y9391D01*
D02*
G37*
G36*
X34000D02*
X33122Y9276D01*
X32304Y8937D01*
X31602Y8398D01*
X31063Y7696D01*
X30724Y6878D01*
X30609Y6000D01*
X30724Y5122D01*
X31063Y4304D01*
X31602Y3602D01*
X32304Y3063D01*
X33122Y2724D01*
X34000Y2609D01*
X34878Y2724D01*
X35696Y3063D01*
X36398Y3602D01*
X36937Y4304D01*
X37276Y5122D01*
X37391Y6000D01*
X37276Y6878D01*
X36937Y7696D01*
X36398Y8398D01*
X35696Y8937D01*
X34878Y9276D01*
X34000Y9391D01*
D02*
G37*
%LPD*%
G36*
X86475Y60000D02*
X86136Y59997D01*
X85523Y59949D01*
X85249Y59905D01*
X84996Y59847D01*
X84766Y59776D01*
X84557Y59691D01*
X84370Y59592D01*
X84205Y59480D01*
X84061Y59354D01*
X83354Y60061D01*
X83480Y60204D01*
X83592Y60370D01*
X83691Y60557D01*
X83776Y60766D01*
X83847Y60996D01*
X83905Y61249D01*
X83949Y61523D01*
X83980Y61818D01*
X84000Y62475D01*
X86475Y60000D01*
D02*
G37*
G36*
X71286Y46300D02*
X71243Y46338D01*
X71193Y46372D01*
X71136Y46402D01*
X71071Y46428D01*
X71000Y46450D01*
X70921Y46468D01*
X70835Y46482D01*
X70742Y46492D01*
X70534Y46500D01*
Y47500D01*
X70641Y47502D01*
X70835Y47518D01*
X70921Y47532D01*
X71000Y47550D01*
X71071Y47572D01*
X71136Y47598D01*
X71193Y47628D01*
X71243Y47662D01*
X71286Y47700D01*
Y46300D01*
D02*
G37*
G36*
X11600Y46500D02*
X11491Y46497D01*
X11393Y46490D01*
X11305Y46478D01*
X11227Y46460D01*
X11158Y46438D01*
X11100Y46410D01*
X11052Y46378D01*
X11014Y46341D01*
X10986Y46298D01*
X10968Y46251D01*
X10311Y47450D01*
X11466Y47500D01*
X11600Y46500D01*
D02*
G37*
G36*
X55528Y30548D02*
X55995Y30148D01*
X56220Y29985D01*
X56439Y29848D01*
X56653Y29735D01*
X56860Y29648D01*
X57063Y29585D01*
X57259Y29548D01*
X57450Y29535D01*
Y28536D01*
X57259Y28523D01*
X57063Y28486D01*
X56860Y28423D01*
X56653Y28335D01*
X56439Y28223D01*
X56220Y28086D01*
X55995Y27923D01*
X55764Y27735D01*
X55285Y27286D01*
Y30786D01*
X55528Y30548D01*
D02*
G37*
D12*
X46500Y28299D02*
X47236Y29035D01*
X53500D01*
X33500Y28299D02*
X40000D01*
X46500D01*
X45500Y70500D02*
X52000Y77000D01*
X5500Y70500D02*
X45500D01*
X53500Y29035D02*
X57571D01*
X79385Y50849D01*
Y55385D01*
X86500Y62500D01*
X52000Y77000D02*
X58000Y71000D01*
X87500D01*
X96500Y62000D01*
Y58500D02*
Y62000D01*
X48256Y56000D02*
X52807D01*
X52949Y55858D01*
X72000Y77000D02*
X88000D01*
X96500Y68500D01*
X56221Y59327D02*
X69673D01*
X72000Y57000D01*
X52949Y56055D02*
X56221Y59327D01*
X17500Y52000D02*
X72000D01*
X52949Y55858D02*
Y56055D01*
X13000Y56500D02*
X17500Y52000D01*
X68744Y62000D02*
X72244D01*
X63744Y67000D02*
X68744Y62000D01*
X59051Y63142D02*
Y63339D01*
X61835Y66122D01*
X62622D01*
X63500Y67000D01*
X42000Y83000D02*
X66000D01*
X72000Y77000D01*
X9500Y56500D02*
X13000D01*
X10500Y47000D02*
X72000D01*
X10000Y46500D02*
X10500Y47000D01*
D25*
X33500Y22000D02*
D03*
Y28299D02*
D03*
X40000Y22000D02*
D03*
Y28299D02*
D03*
X46500Y22000D02*
D03*
Y28299D02*
D03*
D37*
X18968Y35925D02*
D03*
X5386D02*
D03*
Y64075D02*
D03*
X18968D02*
D03*
D38*
X52000Y91000D02*
D03*
X62000D02*
D03*
X72000D02*
D03*
X52000Y77000D02*
D03*
X62000D02*
D03*
X72000D02*
D03*
D39*
X34000Y6000D02*
D03*
X44000D02*
D03*
X64000D02*
D03*
X54000D02*
D03*
X74000D02*
D03*
X84000D02*
D03*
X96500Y18500D02*
D03*
Y28500D02*
D03*
Y48500D02*
D03*
Y38500D02*
D03*
Y58500D02*
D03*
Y68500D02*
D03*
D40*
X100500Y92000D02*
D03*
Y80000D02*
D03*
Y56000D02*
D03*
Y44000D02*
D03*
Y32000D02*
D03*
X97500Y14000D02*
D03*
X91500Y62000D02*
D03*
Y50000D02*
D03*
Y26000D02*
D03*
Y14000D02*
D03*
X94500Y8000D02*
D03*
X91500Y2000D02*
D03*
X88500Y80000D02*
D03*
X85500Y74000D02*
D03*
X88500Y56000D02*
D03*
X85500Y50000D02*
D03*
X88500Y32000D02*
D03*
X85500Y26000D02*
D03*
X88500Y20000D02*
D03*
X85500Y14000D02*
D03*
X88500Y8000D02*
D03*
X82500Y80000D02*
D03*
Y68000D02*
D03*
X79500Y2000D02*
D03*
X76500Y68000D02*
D03*
Y56000D02*
D03*
Y20000D02*
D03*
X73500Y14000D02*
D03*
X67500Y2000D02*
D03*
X61500D02*
D03*
X58500Y68000D02*
D03*
X55500Y38000D02*
D03*
X58500Y8000D02*
D03*
X49500Y2000D02*
D03*
X46500Y80000D02*
D03*
X43500Y74000D02*
D03*
X46500Y68000D02*
D03*
X40500Y92000D02*
D03*
X37500Y74000D02*
D03*
Y2000D02*
D03*
X34500Y80000D02*
D03*
X31500Y62000D02*
D03*
Y2000D02*
D03*
X25500Y62000D02*
D03*
X28500Y56000D02*
D03*
Y8000D02*
D03*
X25500Y2000D02*
D03*
X22500Y56000D02*
D03*
Y44000D02*
D03*
Y32000D02*
D03*
X19500Y26000D02*
D03*
X22500Y20000D02*
D03*
X19500Y14000D02*
D03*
X22500Y8000D02*
D03*
X19500Y2000D02*
D03*
X16500Y80000D02*
D03*
X13500Y26000D02*
D03*
X16500Y20000D02*
D03*
X13500Y14000D02*
D03*
X16500Y8000D02*
D03*
X13500Y2000D02*
D03*
X10500Y92000D02*
D03*
X7500Y50000D02*
D03*
X10500Y32000D02*
D03*
X7500Y26000D02*
D03*
X10500Y20000D02*
D03*
X7500Y14000D02*
D03*
X10500Y8000D02*
D03*
X7500Y2000D02*
D03*
X4500Y56000D02*
D03*
Y44000D02*
D03*
Y20000D02*
D03*
Y8000D02*
D03*
X9500Y56500D02*
D03*
X72000Y52000D02*
D03*
Y47000D02*
D03*
Y57000D02*
D03*
X72244Y62000D02*
D03*
X10000Y46500D02*
D03*
D41*
X53500Y29035D02*
D03*
X42000Y83000D02*
D03*
X86500Y62500D02*
D03*
X5500Y70500D02*
D03*
D42*
X52949Y55858D02*
D03*
Y63142D02*
D03*
X59051D02*
D03*
Y55858D02*
D03*
D43*
X63744Y67000D02*
D03*
X69256D02*
D03*
X42744Y56000D02*
D03*
X48256D02*
D03*
M02*
