G04*
G04 #@! TF.GenerationSoftware,Altium Limited,Altium Designer,20.2.6 (244)*
G04*
G04 Layer_Color=16711935*
%FSLAX25Y25*%
%MOIN*%
G70*
G04*
G04 #@! TF.SameCoordinates,3022D20F-0E7D-494E-A21C-2806337C0760*
G04*
G04*
G04 #@! TF.FilePolarity,Positive*
G04*
G01*
G75*
%ADD12C,0.01000*%
D12*
X-500Y7328D02*
X-433Y6307D01*
X-233Y5302D01*
X96Y4333D01*
X549Y3414D01*
X1118Y2563D01*
X1793Y1793D01*
X2563Y1118D01*
X3414Y549D01*
X4333Y96D01*
X5302Y-233D01*
X6307Y-433D01*
X7328Y-500D01*
X92500D02*
X93529Y-449D01*
X94548Y-298D01*
X95548Y-48D01*
X96518Y299D01*
X97450Y740D01*
X98334Y1270D01*
X99161Y1883D01*
X99925Y2575D01*
X100617Y3339D01*
X101230Y4166D01*
X101760Y5050D01*
X102201Y5982D01*
X102548Y6952D01*
X102798Y7952D01*
X102949Y8971D01*
X103000Y10000D01*
Y92838D02*
X102934Y93838D01*
X102739Y94821D01*
X102417Y95770D01*
X101973Y96669D01*
X101417Y97502D01*
X100756Y98256D01*
X100002Y98917D01*
X99169Y99474D01*
X98270Y99917D01*
X97321Y100239D01*
X96338Y100435D01*
X95338Y100500D01*
X7162D02*
X6162Y100435D01*
X5179Y100239D01*
X4230Y99917D01*
X3331Y99474D01*
X2498Y98917D01*
X1744Y98256D01*
X1083Y97502D01*
X527Y96669D01*
X83Y95770D01*
X-239Y94821D01*
X-434Y93838D01*
X-500Y92838D01*
X7328Y-500D02*
X92500D01*
X103000Y10000D02*
Y92838D01*
X7162Y100500D02*
X95338D01*
X-500Y7328D02*
Y92838D01*
M02*
