M48
;Layer_Color=9474304
;FILE_FORMAT=2:4
INCH,TZ
;TYPE=PLATED
T1F00S00C0.0100
T3F00S00C0.0280
T4F00S00C0.0354
T5F00S00C0.0400
%
T01
X750Y200
X1350
X1950
X2550
X3150
X3750
X4950
X6150
X6750
X7950
X9150
X9450Y800
X8850
X9150Y1400
X9750
X8550
X8850Y2000
X9150Y2600
X8550
X8850Y3200
X10050
Y4400
Y5600
X8850
X9150Y6200
Y5000
X8550
X7650Y5600
X7200Y5700
Y5200
Y4700
X7224Y6200
X7650Y6800
X8250
X8550Y7400
X8850Y8000
X8250
X10050
Y9200
X4050
X4650Y8000
X4350Y7400
X3750
X3450Y8000
X1650
X1050Y9200
X950Y5650
X450Y5600
X750Y5000
X1000Y4650
X450Y4400
X2250
Y5600
X2850
X3150Y6200
X2550
X4650Y6800
X5850
X5550Y3800
X5850Y800
X7350Y1400
X7650Y2000
X2250
X1650
X1050
X450
X750Y2600
X1350
X1950
X2250Y3200
X1050
X1350Y1400
X1950
X2250Y800
X2850
X1650
X1050
X450
X750Y1400
T03
X550Y7050
X4200Y8300
X8650Y6250
X5350Y2904
T04
X3400Y600
X4400
X5400
X6400
X7400
X8400
X9650Y1850
Y2850
Y3850
Y4850
Y5850
Y6850
T05
X5200Y7700
X6200
X7200
Y9100
X6200
X5200
M30
